<svg width="39" height="24" viewBox="0 0 39 24" fill="none" xmlns="http://www.w3.org/2000/svg">
<g clip-path="url(#clip0_14_7822)">
<path fill-rule="evenodd" clip-rule="evenodd" d="M29.4499 19.0363C25.9433 21.6242 20.86 23.0001 16.4822 23.0001C10.347 23.0001 4.82222 20.7321 0.641809 16.9573C0.31364 16.6608 0.605994 16.256 1.0008 16.4859C5.51104 19.1104 11.0891 20.6913 16.8504 20.6913C20.7368 20.6913 25.0088 19.885 28.9402 18.2175C29.5324 17.9652 30.0296 18.6073 29.4499 19.0363ZM30.9083 17.3705C31.3573 17.9452 30.4094 20.3115 29.9863 21.3685C29.858 21.6883 30.1329 21.8174 30.4228 21.575C32.3035 20.0016 32.7899 16.7041 32.4051 16.2277C32.0228 15.7554 28.7344 15.349 26.7271 16.7583C26.4181 16.9748 26.4714 17.2747 26.8137 17.233C27.944 17.0981 30.4602 16.7957 30.9083 17.3705Z" fill="#FF9900"/>
<path fill-rule="evenodd" clip-rule="evenodd" d="M25.8321 13.1333L29.4819 3.84378C29.5586 3.65554 29.5977 3.52311 29.5977 3.44565C29.5977 3.31322 29.5202 3.24658 29.3653 3.24658H28.4366C28.2592 3.24658 28.1384 3.2749 28.071 3.32987C28.0043 3.38568 27.9385 3.50729 27.8719 3.69552L25.6322 10.1315L23.31 3.69552C23.2434 3.50729 23.1776 3.38568 23.1109 3.32987C23.0443 3.2749 22.9227 3.24658 22.7453 3.24658H21.75C21.595 3.24658 21.5176 3.31322 21.5176 3.44565C21.5176 3.52311 21.5559 3.65554 21.6334 3.84378L24.8351 11.7398L24.5202 12.5861C24.332 13.1175 24.1221 13.4823 23.8897 13.6814C23.6573 13.8804 23.3308 13.9795 22.911 13.9795C22.7228 13.9795 22.5737 13.9679 22.4638 13.9462C22.353 13.9246 22.2697 13.9129 22.2147 13.9129C22.049 13.9129 21.9657 14.0179 21.9657 14.2278V14.6592C21.9657 14.8141 21.9932 14.9274 22.049 14.999C22.104 15.0707 22.1922 15.124 22.3147 15.1565C22.5904 15.2331 22.9061 15.2731 23.26 15.2731C23.8906 15.2731 24.402 15.1073 24.7943 14.775C25.1882 14.4443 25.5339 13.8963 25.8321 13.1333Z" fill="#232F3E"/>
<path fill-rule="evenodd" clip-rule="evenodd" d="M12.2066 5.52957C12.0459 4.99317 11.8168 4.53673 11.5178 4.16109C11.2196 3.78544 10.8548 3.49725 10.4233 3.29818C9.99272 3.09912 9.51129 3 8.97989 3C8.48264 3 7.99538 3.09329 7.52062 3.28153C7.04503 3.46977 6.59692 3.74629 6.17629 4.11111L6.09384 3.57971C6.06052 3.35899 5.93308 3.24821 5.71153 3.24821H4.98189C4.76117 3.24821 4.65039 3.35899 4.65039 3.57971V14.7441C4.65039 14.9657 4.76117 15.0756 4.98189 15.0756H5.96057C6.18212 15.0756 6.29207 14.9649 6.29207 14.7441V10.8627C7.01088 11.5149 7.86795 11.8414 8.86328 11.8414C9.40468 11.8414 9.89693 11.7331 10.3392 11.5182C10.7815 11.3025 11.1571 11.001 11.467 10.6137C11.7768 10.2272 12.0175 9.75745 12.1883 9.20357C12.3599 8.65051 12.4457 8.03082 12.4457 7.34533C12.4473 6.6715 12.3665 6.06597 12.2066 5.52957ZM8.48264 10.5137C7.72968 10.5137 7.00005 10.2489 6.2929 9.71747V5.08979C6.98922 4.58088 7.73052 4.32684 8.51596 4.32684C10.0202 4.32684 10.7723 5.36132 10.7723 7.42862C10.7723 9.48592 10.0085 10.5137 8.48264 10.5137Z" fill="#232F3E"/>
<path fill-rule="evenodd" clip-rule="evenodd" d="M19.6873 3.65123C19.1892 3.22061 18.4154 3.00488 17.3651 3.00488C16.8453 3.00488 16.3256 3.05236 15.8059 3.14565C15.2853 3.23977 14.8488 3.36387 14.4949 3.51879C14.3624 3.5746 14.2733 3.63207 14.2292 3.69287C14.185 3.75368 14.1625 3.86195 14.1625 4.01604V4.46332C14.1625 4.66239 14.2341 4.76234 14.3782 4.76234C14.4224 4.76234 14.4699 4.75401 14.5198 4.73735C14.5698 4.72069 14.6115 4.70737 14.6439 4.6957C15.496 4.44166 16.3081 4.31423 17.0827 4.31423C17.7457 4.31423 18.2105 4.43583 18.4762 4.67988C18.7419 4.92309 18.8743 5.34288 18.8743 5.94008V7.03453C18.1005 6.8463 17.4034 6.75301 16.7837 6.75301C15.8109 6.75301 15.0371 6.99372 14.4615 7.47432C13.8868 7.95491 13.5986 8.59959 13.5986 9.40668C13.5986 10.1596 13.831 10.7585 14.2958 11.2066C14.7597 11.6547 15.3902 11.8779 16.1865 11.8779C16.6621 11.8779 17.1402 11.7838 17.6216 11.5964C18.103 11.409 18.542 11.1425 18.9401 10.8002L19.0234 11.3474C19.0567 11.5573 19.1783 11.6622 19.3891 11.6622H20.102C20.3228 11.6622 20.4344 11.5514 20.4344 11.3307V5.65856C20.4344 4.75151 20.1845 4.08268 19.6873 3.65123ZM18.8743 9.78982C18.5095 10.0664 18.128 10.2762 17.7299 10.4203C17.3318 10.5644 16.9503 10.6361 16.5855 10.6361C16.154 10.6361 15.8225 10.5228 15.5901 10.2962C15.3578 10.0697 15.242 9.74651 15.242 9.32589C15.242 8.36387 15.8667 7.88244 17.116 7.88244C17.4034 7.88244 17.6991 7.90243 18.0031 7.94075C18.3071 7.9799 18.5978 8.03237 18.8743 8.09817V9.78982Z" fill="#232F3E"/>
</g>
<defs>
<clipPath id="clip0_14_7822">
<rect width="32.0273" height="20" fill="white" transform="translate(0.5 3)"/>
</clipPath>
</defs>
</svg>
