<svg width="36" height="24" viewBox="0 0 36 24" fill="none" xmlns="http://www.w3.org/2000/svg">
<g clip-path="url(#clip0_14_7806)">
<rect y="1" width="36" height="22" rx="1" fill="#F9F9F9"/>
<rect y="1" width="36" height="22" rx="1" fill="url(#paint0_linear_14_7806)" fill-opacity="0.3"/>
<g style="mix-blend-mode:plus-darker" opacity="0.2">
<rect x="3" y="15" width="21" height="1.5" rx="0.5" fill="black"/>
</g>
<g style="mix-blend-mode:plus-darker" opacity="0.2">
<rect x="3" y="18" width="19" height="1.5" rx="0.5" fill="black"/>
</g>
<g style="mix-blend-mode:plus-darker" opacity="0.2">
<rect x="26" y="18" width="7" height="1.5" rx="0.5" fill="black"/>
</g>
<g style="mix-blend-mode:plus-darker" opacity="0.3">
<path d="M30.4649 12.399V5.05566H30.9354V12.399H30.4649ZM31.9365 7.33326C31.9059 7.06171 31.7797 6.85135 31.5578 6.70219C31.336 6.55111 31.0568 6.47557 30.7202 6.47557C30.4793 6.47557 30.2708 6.51382 30.0949 6.59031C29.919 6.6649 29.7822 6.76816 29.6847 6.90011C29.5891 7.03015 29.5413 7.17836 29.5413 7.34473C29.5413 7.48433 29.5738 7.60481 29.6388 7.70616C29.7057 7.80752 29.7927 7.89262 29.8998 7.96146C30.0088 8.02839 30.1255 8.08481 30.2498 8.1307C30.3741 8.17469 30.4936 8.21102 30.6084 8.23971L31.1821 8.38887C31.3695 8.43476 31.5617 8.49691 31.7586 8.57532C31.9556 8.65373 32.1382 8.75699 32.3065 8.88512C32.4748 9.01325 32.6106 9.17197 32.7138 9.36129C32.819 9.55061 32.8716 9.77722 32.8716 10.0411C32.8716 10.3739 32.7855 10.6693 32.6134 10.9275C32.4432 11.1857 32.1956 11.3893 31.8705 11.5385C31.5473 11.6876 31.1562 11.7622 30.6973 11.7622C30.2574 11.7622 29.8769 11.6924 29.5556 11.5528C29.2343 11.4132 28.9829 11.2153 28.8012 10.959C28.6195 10.7009 28.5191 10.3949 28.5 10.0411H29.3892C29.4064 10.2534 29.4753 10.4303 29.5958 10.5718C29.7182 10.7114 29.874 10.8156 30.0633 10.8845C30.2546 10.9514 30.464 10.9849 30.6915 10.9849C30.9421 10.9849 31.1648 10.9457 31.3599 10.8673C31.5569 10.7869 31.7118 10.676 31.8246 10.5345C31.9374 10.3911 31.9938 10.2238 31.9938 10.0325C31.9938 9.8585 31.9441 9.71603 31.8447 9.60511C31.7471 9.4942 31.6142 9.40241 31.446 9.32974C31.2796 9.25707 31.0912 9.19301 30.8809 9.13755L30.1867 8.94823C29.7162 8.8201 29.3433 8.63173 29.068 8.38313C28.7945 8.13453 28.6578 7.8056 28.6578 7.39636C28.6578 7.05788 28.7496 6.76242 28.9331 6.51C29.1167 6.25757 29.3653 6.06155 29.679 5.92195C29.9926 5.78044 30.3464 5.70968 30.7403 5.70968C31.1381 5.70968 31.489 5.77948 31.793 5.91908C32.099 6.05869 32.34 6.25087 32.5159 6.49565C32.6918 6.73852 32.7836 7.01772 32.7913 7.33326H31.9365Z" fill="black"/>
</g>
</g>
<defs>
<linearGradient id="paint0_linear_14_7806" x1="0" y1="12" x2="36" y2="12" gradientUnits="userSpaceOnUse">
<stop stop-color="#C6DCEA"/>
<stop offset="0.202966" stop-color="#BAB6D3"/>
<stop offset="0.394942" stop-color="#E6C7D2"/>
<stop offset="0.628022" stop-color="#E5C6B3"/>
<stop offset="1" stop-color="#B0D7B7"/>
</linearGradient>
<clipPath id="clip0_14_7806">
<rect y="2" width="36" height="20" rx="2" fill="white"/>
</clipPath>
</defs>
</svg>
