<svg width="45" height="24" viewBox="0 0 45 24" fill="none" xmlns="http://www.w3.org/2000/svg">
<g clip-path="url(#clip0_14_7799)">
<path d="M22.5748 6.7999C22.5748 6.09365 23.1686 5.5249 23.8686 5.5249C24.5686 5.5249 25.1623 6.0999 25.1623 6.7999C25.1623 7.4999 24.5873 8.09365 23.8686 8.09365C23.1498 8.09365 22.5748 7.51865 22.5748 6.7999ZM18.7373 5.6999H20.9873V18.2999H18.7373V5.6999ZM25.0061 9.2999H22.7373V18.2999H25.0061V9.2999ZM41.3123 13.4937C43.0186 12.4437 44.1811 10.8812 44.6373 9.29365H42.3686C41.7748 10.8062 40.4186 11.9437 38.9311 12.4249V5.6999H36.6623V18.2999H38.9311V14.5499C40.6623 14.9812 42.0311 16.4812 42.4998 18.2999H44.7811C44.4311 16.3937 43.1311 14.6062 41.3123 13.4999V13.4937ZM29.0248 10.3062C29.6186 9.51865 30.7748 9.05615 31.7186 9.05615C33.4686 9.05615 34.9186 10.3374 34.9248 12.2749V18.2937H32.6561V12.7749C32.6561 11.9812 32.2998 11.0624 31.1561 11.0624C29.8061 11.0624 29.0311 12.2624 29.0311 13.6624V18.3062H26.7623V9.30615H29.0311V10.3062H29.0248Z" fill="black"/>
<path d="M7.5 19.5C11.6438 19.5 15 16.1438 15 12C15 7.85625 11.6438 4.5 7.5 4.5C3.35625 4.5 0 7.85625 0 12C0 16.1438 3.35625 19.5 7.5 19.5Z" fill="#00D66F"/>
<path d="M7.15625 7.5H4.84375C5.29375 9.38125 6.60625 10.9875 8.25 12C6.6 13.0125 5.29375 14.6188 4.84375 16.5H7.15625C7.73125 14.7625 9.31875 13.25 11.2688 12.9375V11.0563C9.31875 10.75 7.73125 9.2375 7.15625 7.5Z" fill="#011E0F"/>
</g>
<defs>
<clipPath id="clip0_14_7799">
<rect width="44.7812" height="15" fill="white" transform="translate(0 4.5)"/>
</clipPath>
</defs>
</svg>
