<svg width="64" height="64" viewBox="0 0 64 64" fill="none" xmlns="http://www.w3.org/2000/svg">
<g clip-path="url(#clip0_475_1707)">
<rect width="64" height="64" fill="white"/>
<path d="M17.5 6.88526C10.8392 10.7309 5.9788 17.065 3.98815 24.4942C1.9975 31.9234 3.03962 39.8392 6.88526 46.5C10.7309 53.1608 17.065 58.0212 24.4942 60.0118C31.9234 62.0025 39.8391 60.9604 46.5 57.1147L40.7 47.0688C36.7035 49.3762 31.9541 50.0015 27.4965 48.8071C23.039 47.6127 19.2385 44.6965 16.9312 40.7C14.6238 36.7035 13.9985 31.9541 15.1929 27.4965C16.3873 23.039 19.3035 19.2385 23.3 16.9312L17.5 6.88526Z" fill="#C02D3C"/>
<path d="M17.5 6.88526C24.1608 3.03962 32.0766 1.9975 39.5058 3.98815C46.935 5.9788 53.2691 10.8392 57.1147 17.5C60.9604 24.1608 62.0025 32.0765 60.0118 39.5058C58.0212 46.935 53.1608 53.2691 46.5 57.1147L40.7 47.0688C44.6965 44.7615 47.6127 40.961 48.8071 36.5035C50.0015 32.0459 49.3762 27.2965 47.0688 23.3C44.7615 19.3035 40.961 16.3873 36.5035 15.1929C32.0459 13.9985 27.2965 14.6238 23.3 16.9312L17.5 6.88526Z" fill="#E36470"/>
<path d="M32 59.25C16.9502 59.25 4.75 47.0498 4.75 32C4.75 16.9502 16.9502 4.75 32 4.75C47.0498 4.75 59.25 16.9502 59.25 32C59.25 47.0498 47.0498 59.25 32 59.25Z" stroke="#C02D3C" stroke-width="3.5"/>
<path d="M32 48.25C23.0254 48.25 15.75 40.9746 15.75 32C15.75 23.0254 23.0254 15.75 32 15.75C40.9746 15.75 48.25 23.0254 48.25 32C48.25 40.9746 40.9746 48.25 32 48.25Z" stroke="#C02D3C" stroke-width="3.5"/>
<path d="M30.7973 34.6271L30.2234 23.1875H33.7859L33.2119 34.6271H30.7973ZM32.0046 41.3563C31.4637 41.3563 31.0085 41.1715 30.639 40.8021C30.2696 40.4194 30.0848 39.9642 30.0848 39.4365C30.0848 38.8955 30.2696 38.4403 30.639 38.0708C31.0085 37.6882 31.4637 37.4969 32.0046 37.4969C32.5456 37.4969 33.0008 37.6882 33.3703 38.0708C33.7397 38.4403 33.9244 38.8955 33.9244 39.4365C33.9244 39.9642 33.7397 40.4194 33.3703 40.8021C33.0008 41.1715 32.5456 41.3563 32.0046 41.3563Z" fill="#C02D3C"/>
</g>
<defs>
<clipPath id="clip0_475_1707">
<rect width="64" height="64" fill="white"/>
</clipPath>
</defs>
</svg>
