<svg width="64" height="64" viewBox="0 0 64 64" fill="none" xmlns="http://www.w3.org/2000/svg">
<path d="M17.0176 5.25H46.8994C47.8534 5.25 48.7724 5.6134 49.4678 6.2666L59.8242 15.9961C60.4148 16.5509 60.75 17.3255 60.75 18.1357C60.7499 32.7213 53.6222 46.3864 41.6611 54.7334L35.8633 58.7803C33.5426 60.3997 30.4574 60.3997 28.1367 58.7803L22.3457 54.7383C10.3804 46.3883 3.25 32.7177 3.25 18.127C3.2501 17.3201 3.58193 16.5487 4.16797 15.9941L14.4404 6.27637C15.1368 5.61753 16.0589 5.25 17.0176 5.25Z" fill="#7BC8EE" stroke="#4996BC" stroke-width="2.5"/>
<mask id="mask0_475_1697" style="mask-type:alpha" maskUnits="userSpaceOnUse" x="2" y="4" width="60" height="58">
<path d="M17.0176 5.25H46.8994C47.8534 5.25 48.7724 5.6134 49.4678 6.2666L59.8242 15.9961C60.4148 16.5509 60.75 17.3255 60.75 18.1357C60.7499 32.7213 53.6222 46.3864 41.6611 54.7334L35.8633 58.7803C33.5426 60.3997 30.4574 60.3997 28.1367 58.7803L22.3457 54.7383C10.3804 46.3883 3.25 32.7177 3.25 18.127C3.2501 17.3201 3.58193 16.5487 4.16797 15.9941L14.4404 6.27637C15.1368 5.61753 16.0589 5.25 17.0176 5.25Z" fill="#67B4DA" stroke="#4996BC" stroke-width="2.5"/>
</mask>
<g mask="url(#mask0_475_1697)">
<rect x="-6" y="-7" width="38" height="38" fill="#4996BC"/>
<rect x="32" y="31" width="38" height="38" fill="#4996BC"/>
</g>
<path d="M17.0176 6.75H46.8994C47.4718 6.75 48.0232 6.96843 48.4404 7.36035L58.7979 17.0898C59.0864 17.3611 59.25 17.7397 59.25 18.1357C59.2499 32.2311 52.3617 45.4365 40.8027 53.5029L35.0049 57.5498C33.1999 58.8094 30.8001 58.8094 28.9951 57.5498L23.2041 53.5078C11.6408 45.4384 4.75 32.2275 4.75 18.127C4.7501 17.7323 4.91259 17.3552 5.19922 17.084L15.4707 7.36523C15.8885 6.96993 16.4424 6.75 17.0176 6.75Z" stroke="#7BC8EE" stroke-width="5.5"/>
<path d="M17.0176 5.25H46.8994C47.8534 5.25 48.7724 5.6134 49.4678 6.2666L59.8242 15.9961C60.4148 16.5509 60.75 17.3255 60.75 18.1357C60.7499 32.7213 53.6222 46.3864 41.6611 54.7334L35.8633 58.7803C33.5426 60.3997 30.4574 60.3997 28.1367 58.7803L22.3457 54.7383C10.3804 46.3883 3.25 32.7177 3.25 18.127C3.2501 17.3201 3.58193 16.5487 4.16797 15.9941L14.4404 6.27637C15.1368 5.61753 16.0589 5.25 17.0176 5.25Z" stroke="#4996BC" stroke-width="2.5"/>
</svg>
