<svg width="64" height="64" viewBox="0 0 64 64" fill="none" xmlns="http://www.w3.org/2000/svg">
<g clip-path="url(#clip0_475_1678)">
<rect width="64" height="64" fill="white"/>
<path d="M29.8571 2.11912C31.0444 0.944955 32.9556 0.944956 34.1429 2.11913L35.8884 3.84526C36.7561 4.70329 38.0519 4.96104 39.1819 4.50037L41.4551 3.57361C43.0014 2.9432 44.7671 3.67456 45.4147 5.21373L46.3668 7.47645C46.8401 8.60121 47.9386 9.33523 49.1589 9.34205L51.6137 9.35575C53.2835 9.36508 54.6349 10.7165 54.6442 12.3863L54.658 14.8411C54.6648 16.0614 55.3988 17.1599 56.5235 17.6332L58.7863 18.5853C60.3254 19.2329 61.0568 20.9986 60.4264 22.5449L59.4996 24.8181C59.039 25.9481 59.2967 27.2439 60.1547 28.1116L61.8809 29.8571C63.055 31.0444 63.055 32.9556 61.8809 34.1429L60.1547 35.8884C59.2967 36.7561 59.039 38.0519 59.4996 39.1819L60.4264 41.4551C61.0568 43.0014 60.3254 44.7671 58.7863 45.4147L56.5235 46.3668C55.3988 46.8401 54.6648 47.9386 54.658 49.1589L54.6442 51.6137C54.6349 53.2835 53.2835 54.6349 51.6137 54.6442L49.1589 54.658C47.9386 54.6648 46.8401 55.3988 46.3668 56.5235L45.4147 58.7863C44.7671 60.3254 43.0014 61.0568 41.4551 60.4264L39.1819 59.4996C38.0519 59.039 36.7561 59.2967 35.8884 60.1547L34.1429 61.8809C32.9556 63.055 31.0444 63.055 29.8571 61.8809L28.1116 60.1547C27.2439 59.2967 25.9481 59.039 24.8181 59.4996L22.5449 60.4264C20.9986 61.0568 19.2329 60.3254 18.5853 58.7863L17.6332 56.5235C17.1599 55.3988 16.0614 54.6648 14.8411 54.658L12.3863 54.6442C10.7165 54.6349 9.36508 53.2835 9.35575 51.6137L9.34205 49.1589C9.33523 47.9386 8.60121 46.8401 7.47645 46.3668L5.21373 45.4147C3.67456 44.7671 2.9432 43.0014 3.57361 41.4551L4.50037 39.1819C4.96104 38.0519 4.70329 36.7561 3.84526 35.8884L2.11912 34.1429C0.944955 32.9556 0.944956 31.0444 2.11913 29.8571L3.84526 28.1116C4.70329 27.2439 4.96104 25.9481 4.50037 24.8181L3.57361 22.5449C2.9432 20.9986 3.67456 19.2329 5.21373 18.5853L7.47645 17.6332C8.60121 17.1599 9.33523 16.0614 9.34205 14.8411L9.35575 12.3863C9.36508 10.7165 10.7165 9.36508 12.3863 9.35575L14.8411 9.34205C16.0614 9.33523 17.1599 8.60121 17.6332 7.47645L18.5853 5.21373C19.2329 3.67456 20.9986 2.9432 22.5449 3.57361L24.8181 4.50037C25.9481 4.96104 27.2439 4.70329 28.1116 3.84526L29.8571 2.11912Z" fill="#06BF00"/>
<path d="M29.8571 2.11912C31.0444 0.944955 32.9556 0.944956 34.1429 2.11913L35.8884 3.84526C36.7561 4.70329 38.0519 4.96104 39.1819 4.50037L41.4551 3.57361C43.0014 2.9432 44.7671 3.67456 45.4147 5.21373L46.3668 7.47645C46.8401 8.60121 47.9386 9.33523 49.1589 9.34205L51.6137 9.35575C53.2835 9.36508 54.6349 10.7165 54.6442 12.3863L54.658 14.8411C54.6648 16.0614 55.3988 17.1599 56.5235 17.6332L58.7863 18.5853C60.3254 19.2329 61.0568 20.9986 60.4264 22.5449L59.4996 24.8181C59.039 25.9481 59.2967 27.2439 60.1547 28.1116L61.8809 29.8571C63.055 31.0444 63.055 32.9556 61.8809 34.1429L60.1547 35.8884C59.2967 36.7561 59.039 38.0519 59.4996 39.1819L60.4264 41.4551C61.0568 43.0014 60.3254 44.7671 58.7863 45.4147L56.5235 46.3668C55.3988 46.8401 54.6648 47.9386 54.658 49.1589L54.6442 51.6137C54.6349 53.2835 53.2835 54.6349 51.6137 54.6442L49.1589 54.658C47.9386 54.6648 46.8401 55.3988 46.3668 56.5235L45.4147 58.7863C44.7671 60.3254 43.0014 61.0568 41.4551 60.4264L39.1819 59.4996C38.0519 59.039 36.7561 59.2967 35.8884 60.1547L34.1429 61.8809C32.9556 63.055 31.0444 63.055 29.8571 61.8809L28.1116 60.1547C27.2439 59.2967 25.9481 59.039 24.8181 59.4996L22.5449 60.4264C20.9986 61.0568 19.2329 60.3254 18.5853 58.7863L17.6332 56.5235C17.1599 55.3988 16.0614 54.6648 14.8411 54.658L12.3863 54.6442C10.7165 54.6349 9.36508 53.2835 9.35575 51.6137L9.34205 49.1589C9.33523 47.9386 8.60121 46.8401 7.47645 46.3668L5.21373 45.4147C3.67456 44.7671 2.9432 43.0014 3.57361 41.4551L4.50037 39.1819C4.96104 38.0519 4.70329 36.7561 3.84526 35.8884L2.11912 34.1429C0.944955 32.9556 0.944956 31.0444 2.11913 29.8571L3.84526 28.1116C4.70329 27.2439 4.96104 25.9481 4.50037 24.8181L3.57361 22.5449C2.9432 20.9986 3.67456 19.2329 5.21373 18.5853L7.47645 17.6332C8.60121 17.1599 9.33523 16.0614 9.34205 14.8411L9.35575 12.3863C9.36508 10.7165 10.7165 9.36508 12.3863 9.35575L14.8411 9.34205C16.0614 9.33523 17.1599 8.60121 17.6332 7.47645L18.5853 5.21373C19.2329 3.67456 20.9986 2.9432 22.5449 3.57361L24.8181 4.50037C25.9481 4.96104 27.2439 4.70329 28.1116 3.84526L29.8571 2.11912Z" fill="#3B6B44"/>
<circle cx="31.9979" cy="31.9998" r="23.2381" fill="#4E995C"/>
<circle cx="18" cy="18" r="18" transform="matrix(1 0 0 -1 14 50)" fill="#3B6B44"/>
<path d="M24 32.5L30.1935 39L40 25" stroke="white" stroke-width="3.07685"/>
</g>
<defs>
<clipPath id="clip0_475_1678">
<rect width="64" height="64" fill="white"/>
</clipPath>
</defs>
</svg>
