<svg width="64" height="64" viewBox="0 0 64 64" fill="none" xmlns="http://www.w3.org/2000/svg">
<g clip-path="url(#clip0_475_1688)">
<rect width="64" height="64" fill="white"/>
<circle cx="31.999" cy="32" r="29" fill="#EAC33B"/>
<path d="M52.5051 11.4939C49.8122 8.801 46.6153 6.66488 43.0968 5.20749C39.5784 3.75011 35.8074 3 31.999 3C28.1907 3 24.4196 3.75011 20.9012 5.2075C17.3828 6.66488 14.1858 8.80101 11.4929 11.4939C8.80002 14.1868 6.6639 17.3837 5.20651 20.9022C3.74913 24.4206 2.99902 28.1917 2.99902 32C2.99902 35.8083 3.74913 39.5794 5.20652 43.0978C6.66391 46.6163 8.80003 49.8132 11.4929 52.5061L31.999 32L52.5051 11.4939Z" fill="#FAE073"/>
<circle cx="31.9999" cy="31.9999" r="22.33" fill="#D79B3D"/>
<path d="M31.1179 48.25V43.0729C29.295 42.7569 27.6544 42.0642 26.196 40.9948C24.762 39.9253 23.6197 38.6007 22.769 37.0208C21.9183 35.441 21.4929 33.7153 21.4929 31.8438C21.4929 29.9722 21.9183 28.2465 22.769 26.6667C23.6197 25.0868 24.762 23.7622 26.196 22.6927C27.6544 21.6233 29.295 20.9306 31.1179 20.6146V16.5312H34.1804V20.5052C35.5415 20.6267 36.8176 20.9549 38.0085 21.4896C39.2238 22.0243 40.2811 22.7049 41.1804 23.5313L39.9773 28.4896C39.3697 27.2743 38.446 26.2535 37.2065 25.4271C35.9912 24.6007 34.6058 24.1875 33.0502 24.1875C31.6405 24.1875 30.3523 24.5399 29.1856 25.2448C28.0433 25.9253 27.1318 26.849 26.4513 28.0156C25.7707 29.158 25.4304 30.434 25.4304 31.8438C25.4304 33.2292 25.7707 34.5052 26.4513 35.6719C27.1318 36.8385 28.0433 37.7743 29.1856 38.4792C30.3523 39.1597 31.6405 39.5 33.0502 39.5C34.6058 39.5 35.9912 39.099 37.2065 38.2969C38.446 37.4948 39.3697 36.4618 39.9773 35.1979L41.1804 40.1562C40.2811 40.9826 39.2238 41.6632 38.0085 42.1979C36.8176 42.7326 35.5415 43.0608 34.1804 43.1823V48.25H31.1179Z" fill="white"/>
</g>
<defs>
<clipPath id="clip0_475_1688">
<rect width="64" height="64" fill="white"/>
</clipPath>
</defs>
</svg>
