<svg width="362" height="120" viewBox="0 0 362 120" fill="none" xmlns="http://www.w3.org/2000/svg">
<path d="M105.879 56.1013L105.723 58.2341H83.9785C84.0132 61.4594 85.0883 64.1645 87.2038 66.3493C89.3193 68.4995 91.9377 69.5746 95.0589 69.5746C98.735 69.5746 101.7 68.118 103.954 65.2049L105.099 66.1412C102.533 69.4359 99.1859 71.0832 95.0589 71.0832C91.5215 71.0832 88.5043 69.8347 86.0073 67.3377C83.545 64.806 82.3139 61.7195 82.3139 58.078C82.3139 54.4713 83.5103 51.4021 85.9033 48.8704C88.3309 46.3387 91.2961 45.0729 94.7988 45.0729C97.8854 45.0729 100.504 46.0786 102.654 48.0901C104.804 50.1015 105.879 52.7719 105.879 56.1013ZM94.6948 46.5815C91.8857 46.5815 89.4754 47.5525 87.4639 49.4946C85.4524 51.4367 84.308 53.8644 84.0305 56.7775H104.215C104.423 53.7256 103.573 51.2633 101.666 49.3906C99.7928 47.5179 97.4692 46.5815 94.6948 46.5815ZM122.122 45.0729C124.827 45.0729 126.995 45.9052 128.625 47.5699C130.289 49.2345 131.122 51.6101 131.122 54.6967V70.563H129.561V66.1412C128.659 67.7019 127.376 68.9157 125.712 69.7827C124.082 70.6497 122.261 71.0832 120.249 71.0832C117.891 71.0832 115.88 70.511 114.215 69.3665C112.55 68.2221 111.718 66.5921 111.718 64.4766C111.718 62.4998 112.498 60.9392 114.059 59.7947C115.62 58.6156 117.683 58.026 120.249 58.026H129.561V54.6447C129.561 52.009 128.868 50.0148 127.48 48.6623C126.128 47.2751 124.307 46.5815 122.018 46.5815C118.966 46.5815 116.348 48.0381 114.163 50.9512L113.019 50.0148C115.516 46.7202 118.55 45.0729 122.122 45.0729ZM120.302 69.5746C122.833 69.5746 125.001 68.7943 126.804 67.2337C128.642 65.6731 129.561 63.7483 129.561 61.4594V59.4826H120.302C118.082 59.4826 116.365 59.9161 115.151 60.7831C113.972 61.6501 113.383 62.8466 113.383 64.3725C113.383 66.0719 114.059 67.3724 115.412 68.2741C116.799 69.1411 118.429 69.5746 120.302 69.5746ZM151.182 45.4891C151.598 45.4891 152.084 45.5237 152.639 45.5931V46.8936H151.442C149.188 46.8936 147.142 47.6739 145.304 49.2345C143.466 50.7952 142.547 52.876 142.547 55.477V70.563H140.986V45.5931H142.547V50.379C143.414 48.7837 144.61 47.5699 146.136 46.7375C147.662 45.9052 149.344 45.4891 151.182 45.4891ZM185.573 45.0729C189.11 45.0729 192.075 46.3387 194.468 48.8704C196.861 51.3674 198.058 54.4366 198.058 58.078C198.058 61.6848 196.844 64.754 194.416 67.2857C192.023 69.8174 189.075 71.0832 185.573 71.0832C183.249 71.0832 181.099 70.4936 179.122 69.3145C177.145 68.1354 175.724 66.5574 174.856 64.5806V70.563H173.296V31.5475H174.856V51.5755C175.724 49.5987 177.145 48.0207 179.122 46.8416C181.099 45.6625 183.249 45.0729 185.573 45.0729ZM185.573 69.5746C188.694 69.5746 191.278 68.4648 193.324 66.2453C195.37 64.0257 196.393 61.3033 196.393 58.078C196.393 54.8181 195.37 52.0957 193.324 49.9108C191.312 47.6913 188.729 46.5815 185.573 46.5815C182.625 46.5815 180.093 47.5525 177.978 49.4946C175.897 51.4367 174.856 54.2979 174.856 58.078C174.856 61.8582 175.897 64.7193 177.978 66.6614C180.093 68.6035 182.625 69.5746 185.573 69.5746ZM214.276 45.0729C216.981 45.0729 219.149 45.9052 220.779 47.5699C222.443 49.2345 223.275 51.6101 223.275 54.6967V70.563H221.715V66.1412C220.813 67.7019 219.53 68.9157 217.865 69.7827C216.235 70.6497 214.415 71.0832 212.403 71.0832C210.045 71.0832 208.033 70.511 206.369 69.3665C204.704 68.2221 203.872 66.5921 203.872 64.4766C203.872 62.4998 204.652 60.9392 206.213 59.7947C207.773 58.6156 209.837 58.026 212.403 58.026H221.715V54.6447C221.715 52.009 221.021 50.0148 219.634 48.6623C218.282 47.2751 216.461 46.5815 214.172 46.5815C211.12 46.5815 208.502 48.0381 206.317 50.9512L205.172 50.0148C207.669 46.7202 210.704 45.0729 214.276 45.0729ZM212.455 69.5746C214.987 69.5746 217.154 68.7943 218.958 67.2337C220.796 65.6731 221.715 63.7483 221.715 61.4594V59.4826H212.455C210.236 59.4826 208.519 59.9161 207.305 60.7831C206.126 61.6501 205.536 62.8466 205.536 64.3725C205.536 66.0719 206.213 67.3724 207.565 68.2741C208.952 69.1411 210.582 69.5746 212.455 69.5746ZM234.701 31.5475V70.563H233.14V31.5475H234.701ZM252.936 45.0729C255.641 45.0729 257.808 45.9052 259.438 47.5699C261.103 49.2345 261.935 51.6101 261.935 54.6967V70.563H260.375V66.1412C259.473 67.7019 258.19 68.9157 256.525 69.7827C254.895 70.6497 253.075 71.0832 251.063 71.0832C248.705 71.0832 246.693 70.511 245.029 69.3665C243.364 68.2221 242.532 66.5921 242.532 64.4766C242.532 62.4998 243.312 60.9392 244.873 59.7947C246.433 58.6156 248.497 58.026 251.063 58.026H260.375V54.6447C260.375 52.009 259.681 50.0148 258.294 48.6623C256.941 47.2751 255.121 46.5815 252.832 46.5815C249.78 46.5815 247.161 48.0381 244.977 50.9512L243.832 50.0148C246.329 46.7202 249.364 45.0729 252.936 45.0729ZM251.115 69.5746C253.647 69.5746 255.814 68.7943 257.618 67.2337C259.456 65.6731 260.375 63.7483 260.375 61.4594V59.4826H251.115C248.896 59.4826 247.179 59.9161 245.965 60.7831C244.786 61.6501 244.196 62.8466 244.196 64.3725C244.196 66.0719 244.873 67.3724 246.225 68.2741C247.612 69.1411 249.242 69.5746 251.115 69.5746ZM281.528 45.0729C284.337 45.0729 286.539 45.9746 288.134 47.778C289.764 49.5467 290.579 51.8529 290.579 54.6967V70.563H289.019V54.6967C289.019 52.2691 288.342 50.3096 286.99 48.8184C285.637 47.3271 283.799 46.5815 281.476 46.5815C279.117 46.5815 277.175 47.3445 275.649 48.8704C274.123 50.3963 273.36 52.3384 273.36 54.6967V70.563H271.8V45.5931H273.36V49.5987C275.025 46.5815 277.747 45.0729 281.528 45.0729ZM311.22 45.0729C315.312 45.0729 318.642 46.7202 321.208 50.0148L320.064 50.9512C317.809 48.0381 314.861 46.5815 311.22 46.5815C308.064 46.5815 305.411 47.6913 303.261 49.9108C301.145 52.1304 300.088 54.8528 300.088 58.078C300.088 61.3033 301.145 64.0257 303.261 66.2453C305.411 68.4648 308.047 69.5746 311.168 69.5746C314.844 69.5746 317.809 68.118 320.064 65.2049L321.208 66.1412C318.642 69.4359 315.295 71.0832 311.168 71.0832C307.631 71.0832 304.613 69.8174 302.116 67.2857C299.654 64.754 298.423 61.6848 298.423 58.078C298.423 54.4713 299.654 51.4021 302.116 48.8704C304.613 46.3387 307.648 45.0729 311.22 45.0729ZM350.234 56.1013L350.078 58.2341H328.333C328.368 61.4594 329.443 64.1645 331.558 66.3493C333.674 68.4995 336.292 69.5746 339.414 69.5746C343.09 69.5746 346.055 68.118 348.309 65.2049L349.454 66.1412C346.887 69.4359 343.541 71.0832 339.414 71.0832C335.876 71.0832 332.859 69.8347 330.362 67.3377C327.9 64.806 326.668 61.7195 326.668 58.078C326.668 54.4713 327.865 51.4021 330.258 48.8704C332.686 46.3387 335.651 45.0729 339.153 45.0729C342.24 45.0729 344.858 46.0786 347.009 48.0901C349.159 50.1015 350.234 52.7719 350.234 56.1013ZM339.049 46.5815C336.24 46.5815 333.83 47.5525 331.819 49.4946C329.807 51.4367 328.663 53.8644 328.385 56.7775H348.569C348.777 53.7256 347.928 51.2633 346.02 49.3906C344.147 47.5179 341.824 46.5815 339.049 46.5815Z" fill="white"/>
<path d="M0.449866 101.759C0.878636 104.054 1.3758 106.088 2.32888 108.025C5.51326 114.492 16.9528 118.736 23.5544 110.605C26.4679 107.017 28.6646 103.01 30.9901 99.0686C35.1574 92.0076 40.1491 85.5107 44.7938 78.7767C49.3499 72.1724 54.0011 65.5992 56.6791 57.9436C61.3613 44.5567 61.1155 31.4538 53.7031 19.0125C49.5358 12.0196 43.3343 7.85684 35.0482 7.91851C25.7464 7.9887 17.7648 11.5832 11.7829 18.7918C4.34513 27.7545 3.5136 38.0374 6.55043 48.908C6.71862 49.5097 7.08123 50.0798 6.86057 51.1001C5.06565 48.1261 3.83316 45.2536 3.03527 42.1973C-1.44596 25.0204 7.60352 9.17051 23.4927 2.71384C31.5882 -0.576172 39.8183 -1.14802 47.9829 2.52143C55.2776 5.80022 60.3167 11.4467 63.7599 18.5003C71.1939 33.7288 70.6828 49.0715 63.8927 64.3458C60.0898 72.901 54.3209 80.2022 48.524 87.4494C43.2074 94.0967 37.9467 100.778 33.1001 107.783C30.5764 111.43 27.7293 114.818 23.8414 117.131C18.4098 120.364 12.9596 119.905 7.68873 116.858C2.49819 113.857 -0.135882 109.262 0.00539747 103.19C0.0148161 102.774 -0.0515627 102.314 0.45009 101.759" fill="white"/>
<path d="M18.3231 22.0928C17.1458 23.1562 16.0423 24.3548 15.0556 25.7201C13.2261 28.2485 12.032 33.5184 12.1881 33.1625C13.6979 29.7315 15.6687 26.8528 18.1579 24.6315L18.3231 22.0928Z" fill="white"/>
<path d="M24.0163 18.3926C22.3699 19.1129 20.7862 20.052 19.3165 21.2303L19.1483 23.8054C20.3433 22.8738 21.6543 22.0907 23.0765 21.4507L24.0163 18.3926Z" fill="white"/>
<path d="M29.2362 19.7645L30.9658 16.7681C28.9924 16.8492 27.0275 17.239 25.1353 17.9351L24.1961 20.9896C25.6378 20.4449 27.1861 20.0395 28.8615 19.802C28.9866 19.7843 29.1108 19.7796 29.2362 19.7645Z" fill="white"/>
<path d="M35.5181 20.3393L37.6093 17.723C35.7946 17.1081 33.925 16.7876 32.0534 16.7549L30.3697 19.6711C32.1339 19.5973 33.8681 19.8404 35.5181 20.3393Z" fill="white"/>
<path d="M43.3423 20.8628C43.218 20.7657 43.1012 20.6648 42.974 20.5695C41.5622 19.5061 40.0662 18.6858 38.5256 18.0718L36.4615 20.6545C38.206 21.3021 39.8262 22.2617 41.2688 23.4568L43.3423 20.8628Z" fill="white"/>
<path d="M45.7245 29.13L48.4519 26.4026C47.3091 24.5965 45.8505 22.9397 44.0733 21.4448L41.9766 24.0686C43.4324 25.417 44.6732 27.026 45.5944 28.8526C45.6402 28.944 45.6794 29.0376 45.7243 29.13" fill="white"/>
<path d="M51.027 32.823C50.6251 30.8289 49.931 28.9611 48.9508 27.2261L46.145 30.033C46.7823 31.5131 47.2223 33.0277 47.4634 34.5854L51.0272 32.8232L51.027 32.823Z" fill="white"/>
<path d="M47.6384 38.4788C47.6337 38.5555 47.6187 38.6208 47.6104 38.6937L51.2536 39.7495C51.2798 39.5757 51.3209 39.4178 51.3377 39.2355C51.5077 37.3284 51.4451 35.5147 51.1834 33.7861L47.5871 35.5642C47.6806 36.5182 47.703 37.4874 47.6384 38.4788Z" fill="white"/>
<path d="M48.055 44.2286C49.5743 43.6176 50.6086 42.4272 51.0786 40.6733L47.3869 39.6025C47.1365 40.1847 46.6936 40.5406 46.1002 40.7135L48.055 44.2286Z" fill="white"/>
<path d="M44.3591 44.6586C44.601 44.6763 44.843 44.6996 45.0861 44.7063C45.8364 44.724 46.5195 44.655 47.1445 44.513L45.1 40.8371C44.3393 40.8099 43.5816 40.7249 42.8238 40.624L44.3591 44.6586Z" fill="white"/>
<path d="M39.689 44.1064C39.8114 44.1167 39.9309 44.1223 40.0543 44.1353C41.1457 44.2493 42.2333 44.4325 43.3227 44.5623L41.7689 40.4791C41.4821 40.439 41.1944 40.3977 40.9064 40.3614C39.9908 40.2437 39.0947 40.2118 38.2116 40.2242L39.689 44.1064Z" fill="white"/>
<path d="M35.3872 44.2906C36.4338 44.0962 37.5279 44.0132 38.6669 44.0466L37.2232 40.2529C36.129 40.3267 35.0703 40.509 34.0473 40.7696L35.3872 44.2904V44.2906Z" fill="white"/>
<path d="M38.7885 72.2424C33.0299 71.906 28.4589 69.544 25.963 64.1218C23.6615 59.12 24.0905 54.1434 27.2076 49.6705C29.1185 46.9299 31.5944 45.2621 34.4725 44.5145L33.142 41.019C27.4029 42.8196 23.0778 47.4999 21.7948 53.5763C21.4753 55.0918 21.3445 56.6943 21.4277 58.3603C21.9612 68.9786 32.1077 76.1659 42.4476 73.2497C45.6927 72.3341 46.4776 71.9686 47.5765 70.7231C44.7367 71.8798 41.8114 72.4189 38.7885 72.2424Z" fill="white"/>
</svg>
