<svg width="64" height="64" viewBox="0 0 64 64" fill="none" xmlns="http://www.w3.org/2000/svg">
<g clip-path="url(#clip0_475_2872)">
<rect width="64" height="64" fill="white"/>
<ellipse cx="32" cy="32" rx="32" ry="26" fill="#0E5A33"/>
<path d="M15.188 13.5641L15.9381 13.1715L18.1359 17.3704L19.5772 16.6159L19.9467 17.3219L17.7553 18.4689L15.188 13.5641ZM18.5075 11.9178L19.2933 11.6026L21.3543 16.7407L20.5686 17.0559L18.5075 11.9178ZM25.0686 10.263L25.3222 11.2261C24.7792 10.9457 24.2428 10.8753 23.713 11.0148C23.1351 11.167 22.715 11.4836 22.4526 11.9647C22.1942 12.4391 22.1431 12.9732 22.2996 13.5672C22.4504 14.1397 22.7611 14.57 23.2318 14.858C23.701 15.1407 24.2193 15.2073 24.7865 15.0579C25.3162 14.9184 25.7435 14.5856 26.0684 14.0594L26.3242 15.0306C25.9452 15.4165 25.4908 15.6792 24.9611 15.8187C24.2173 16.0146 23.5211 15.9348 22.8724 15.5792C22.1589 15.1949 21.6951 14.5961 21.4809 13.7828C21.2554 12.9266 21.3578 12.153 21.788 11.4617C22.1576 10.8665 22.7411 10.464 23.5384 10.254C24.0895 10.1088 24.5996 10.1118 25.0686 10.263ZM29.6256 9.36797L29.7097 10.1603L27.5142 10.3934L27.6623 11.7883L29.7918 11.5622L29.8759 12.3545L27.7464 12.5806L27.9305 14.3139L30.1259 14.0808L30.21 14.8731L27.1727 15.1956L26.5882 9.69043L29.6256 9.36797ZM31.8794 14.8972L31.0338 14.8554L31.3253 8.95301L35.13 13.3541L35.3191 9.52418L36.1647 9.56594L35.8749 15.4352L32.0701 11.0341L31.8794 14.8972ZM40.9045 11.2617L40.1553 11.5081C40.1292 11.3666 40.0725 11.2355 39.9852 11.1149C39.8509 10.9502 39.6701 10.8434 39.4429 10.7945C39.1994 10.7421 38.9967 10.7636 38.8347 10.8589C38.6781 10.9554 38.58 11.0956 38.5405 11.2796C38.48 11.5609 38.6276 11.8218 38.9833 12.0625L39.4799 12.3985C40.2547 12.9274 40.5653 13.5489 40.4117 14.263C40.3012 14.7769 40.046 15.1607 39.6462 15.4142C39.253 15.6636 38.8021 15.7336 38.2936 15.6242C37.7689 15.5113 37.3832 15.2388 37.1366 14.8065C36.9355 14.452 36.8597 14.0678 36.9091 13.6539L37.7671 13.6517C37.7112 13.9113 37.7375 14.1575 37.8459 14.3903C37.9725 14.6439 38.1845 14.8027 38.482 14.8667C38.7363 14.9214 38.9653 14.8829 39.1691 14.7513C39.3783 14.6208 39.5119 14.4203 39.5701 14.1499C39.6236 13.901 39.5919 13.6933 39.4749 13.5266C39.3634 13.3611 39.2018 13.2047 38.9901 13.0573L38.5179 12.7265C37.8485 12.2599 37.579 11.7236 37.7093 11.1178C37.7931 10.7283 38.0059 10.4231 38.3477 10.2023C38.6949 9.98271 39.112 9.92526 39.5988 10.03C40.037 10.1242 40.3733 10.3239 40.6076 10.629C40.7427 10.8166 40.8417 11.0274 40.9045 11.2617ZM45.6311 11.989L45.3563 12.7369L43.284 11.9754L42.8002 13.292L44.8102 14.0307L44.5353 14.7786L42.5253 14.0399L41.9241 15.676L43.9965 16.4375L43.7216 17.1854L40.8547 16.1319L42.7642 10.9355L45.6311 11.989ZM47.2015 12.7356L48.2051 13.3213C48.5826 13.5416 48.8929 13.7675 49.1358 13.999C49.3815 14.2257 49.5732 14.5009 49.711 14.8248C49.8742 15.2147 49.9371 15.623 49.8995 16.0496C49.8668 16.4789 49.7347 16.8919 49.5032 17.2886C49.0151 18.1249 48.3198 18.5809 47.4173 18.6564C47.0532 18.6874 46.7192 18.6559 46.4154 18.5618C46.1115 18.4677 45.7732 18.3119 45.4004 18.0944L44.4111 17.5171L47.2015 12.7356ZM47.5311 13.8505L45.5439 17.2556L45.8593 17.4397C46.4042 17.7576 46.8926 17.8921 47.3248 17.8432C47.9521 17.7673 48.4345 17.4402 48.772 16.8619C48.9449 16.5656 49.0404 16.2593 49.0584 15.9431C49.0811 15.6296 49.0383 15.3516 48.9301 15.109C48.7525 14.7107 48.3913 14.3525 47.8465 14.0346L47.5311 13.8505Z" fill="white"/>
<path d="M13.469 42.7242L12.6965 43.353C12.7276 42.7426 12.5703 42.225 12.2244 41.8001C11.8472 41.3367 11.3853 41.0848 10.8388 41.0445C10.3 41.005 9.79251 41.1791 9.31618 41.5669C8.85701 41.9407 8.59346 42.4013 8.52552 42.949C8.46187 43.4931 8.61519 43.9926 8.98548 44.4474C9.33131 44.8723 9.81091 45.124 10.4243 45.2026L9.64543 45.8366C9.13743 45.6508 8.71052 45.3455 8.36469 44.9207C7.87913 44.3242 7.66432 43.6571 7.72028 42.9195C7.77563 42.111 8.12944 41.4413 8.78171 40.9103C9.46832 40.3514 10.2152 40.1251 11.0224 40.2315C11.7171 40.3223 12.3247 40.6875 12.8452 41.3269C13.205 41.7689 13.4129 42.2346 13.469 42.7242ZM13.9594 43.6014C14.7235 43.4738 15.4411 43.6495 16.1121 44.1285C16.7831 44.6076 17.1825 45.2291 17.3101 45.9932C17.4376 46.7574 17.2635 47.4727 16.7878 48.1392C16.312 48.8058 15.692 49.2028 14.9279 49.3304C14.1637 49.458 13.4462 49.2823 12.7751 48.8033C12.1041 48.3243 11.7048 47.7027 11.5772 46.9386C11.4496 46.1745 11.6237 45.4592 12.0995 44.7926C12.5753 44.1261 13.1952 43.729 13.9594 43.6014ZM12.377 46.8467C12.4627 47.3838 12.7465 47.8243 13.2284 48.1683C13.7103 48.5123 14.2191 48.6376 14.7549 48.5441C15.2939 48.4462 15.7419 48.1473 16.0987 47.6474C16.4555 47.1475 16.5911 46.629 16.5054 46.0919C16.4229 45.5503 16.1407 45.1075 15.6588 44.7636C15.1769 44.4196 14.6665 44.2965 14.1275 44.3945C13.5917 44.4879 13.1454 44.7846 12.7885 45.2845C12.4317 45.7844 12.2945 46.3051 12.377 46.8467ZM17.6213 51.5811L16.8338 51.2702L19.0039 45.7735L21.1952 51.1627L22.6033 47.596L23.3907 47.9069L21.2329 53.3728L19.0416 47.9835L17.6213 51.5811ZM26.9499 49.6162L25.7108 49.3386L24.6747 53.9632L23.8486 53.7782L24.8846 49.1535L23.6454 48.8759L23.8196 48.0984L27.1241 48.8386L26.9499 49.6162ZM27.6487 48.8897L28.633 48.9716C29.2836 49.0257 29.7599 49.1736 30.0619 49.4153C30.4732 49.7438 30.655 50.1948 30.6073 50.7683C30.5747 51.1598 30.4339 51.484 30.1849 51.7409C29.9413 51.9983 29.6314 52.1529 29.2551 52.2049L30.7794 54.7054L29.762 54.6208L28.37 52.2312L28.2212 52.2188L28.0333 54.4769L27.1896 54.4067L27.6487 48.8897ZM28.4276 49.7374L28.2817 51.4909L28.5464 51.513C28.6181 51.5189 28.69 51.5221 28.7622 51.5226C28.8343 51.523 28.9324 51.5118 29.0565 51.4888C29.1861 51.4662 29.2973 51.4311 29.3901 51.3833C29.4889 51.3304 29.5764 51.2461 29.6527 51.1303C29.7344 51.0149 29.7822 50.8745 29.796 50.7091C29.8432 50.1411 29.4836 49.8253 28.7171 49.7615L28.4276 49.7374ZM35.995 54.4663L35.3345 53.1674L32.9733 53.3099L32.449 54.6803L31.5377 54.7353L33.9353 48.7201L36.9063 54.4113L35.995 54.4663ZM33.2733 52.4936L34.9468 52.3926L34.0136 50.5697L33.2733 52.4936ZM40.9091 48.1789L41.1302 49.15C40.5969 48.8515 40.0632 48.763 39.529 48.8846C38.9463 49.0172 38.5157 49.3195 38.2373 49.7915C37.963 50.2568 37.894 50.789 38.0303 51.3878C38.1617 51.9651 38.4578 52.4056 38.9185 52.7094C39.378 53.0077 39.8937 53.0918 40.4656 52.9616C40.9997 52.84 41.438 52.5218 41.7805 52.0068L42.0034 52.9861C41.6116 53.359 41.1486 53.6063 40.6145 53.7279C39.8645 53.8986 39.1714 53.7953 38.535 53.4181C37.8349 53.0099 37.3915 52.3958 37.2049 51.5757C37.0084 50.7125 37.1367 49.9427 37.59 49.2664C37.9795 48.684 38.5762 48.3013 39.3801 48.1183C39.9359 47.9918 40.4455 48.012 40.9091 48.1789ZM44.4933 47.362L43.3115 47.8268L45.0458 52.2373L44.2579 52.5471L42.5236 48.1366L41.3418 48.6013L41.0502 47.8597L44.2017 46.6205L44.4933 47.362ZM45.2489 46.7849C45.4256 46.0307 45.8643 45.4362 46.5649 45.0016C47.2655 44.567 47.9929 44.438 48.7472 44.6148C49.5015 44.7915 50.0945 45.2278 50.5262 45.9237C50.9579 46.6196 51.0854 47.3447 50.9086 48.099C50.7319 48.8533 50.2932 49.4477 49.5926 49.8824C48.892 50.317 48.1646 50.4459 47.4103 50.2692C46.656 50.0925 46.063 49.6561 45.6313 48.9602C45.1996 48.2643 45.0721 47.5392 45.2489 46.7849ZM47.6337 49.4957C48.1623 49.6236 48.6782 49.5315 49.1813 49.2194C49.6845 48.9073 49.9961 48.486 50.1164 47.9556C50.2338 47.4205 50.1305 46.8919 49.8068 46.37C49.483 45.8481 49.0568 45.5232 48.5282 45.3953C47.9966 45.2627 47.4793 45.3525 46.9762 45.6646C46.473 45.9767 46.1628 46.4003 46.0455 46.9354C45.9252 47.4658 46.027 47.992 46.3507 48.5139C46.6745 49.0359 47.1022 49.3631 47.6337 49.4957ZM49.4786 43.2189L50.1717 42.5153C50.6299 42.0501 51.0485 41.779 51.4274 41.7018C51.9431 41.5962 52.406 41.7453 52.8159 42.1491C53.0958 42.4248 53.2547 42.7406 53.2926 43.0963C53.3344 43.4482 53.2547 43.7853 53.0537 44.1076L55.9504 44.5378L55.234 45.2651L52.5072 44.8043L52.4024 44.9107L54.0166 46.5009L53.4225 47.104L49.4786 43.2189ZM50.6285 43.1633L51.882 44.3982L52.0684 44.2089C52.1189 44.1577 52.1674 44.1045 52.214 44.0494C52.2605 43.9943 52.3147 43.9117 52.3764 43.8017C52.4421 43.6877 52.4863 43.5798 52.509 43.4779C52.5316 43.3681 52.5229 43.2469 52.4828 43.1142C52.4465 42.9775 52.3693 42.8509 52.251 42.7344C51.845 42.3345 51.3721 42.4084 50.8324 42.9564L50.6285 43.1633ZM54.5266 38.1707L54.5063 38.9591C54.3642 38.9361 54.2217 38.9453 54.0788 38.9869C53.8784 39.0579 53.7169 39.1921 53.5944 39.3896C53.4631 39.6012 53.4151 39.7993 53.4503 39.9839C53.4884 40.1639 53.5874 40.3035 53.7472 40.4027C53.9917 40.5544 54.2872 40.5033 54.6336 40.2494L55.1172 39.895C55.8762 39.3436 56.566 39.2604 57.1866 39.6455C57.6332 39.9227 57.9086 40.2922 58.0128 40.754C58.1151 41.2083 58.0292 41.6564 57.7549 42.0983C57.4719 42.5544 57.0854 42.8257 56.5953 42.9124C56.1938 42.9823 55.8065 42.9243 55.4334 42.7384L55.7203 41.9298C55.946 42.0698 56.1866 42.128 56.4423 42.1043C56.7237 42.0706 56.9447 41.9244 57.1051 41.6658C57.2422 41.4448 57.2832 41.2162 57.2278 40.98C57.1755 40.7391 57.0317 40.5457 56.7966 40.3999C56.5804 40.2657 56.3741 40.2256 56.1777 40.2796C55.9843 40.3289 55.7826 40.4284 55.5725 40.578L55.102 40.9112C54.4372 41.3843 53.8416 41.4575 53.315 41.1308C52.9764 40.9207 52.7608 40.6176 52.668 40.2214C52.5782 39.8205 52.6645 39.4085 52.9271 38.9853C53.1634 38.6045 53.4647 38.3551 53.8309 38.2372C54.053 38.1731 54.2849 38.151 54.5266 38.1707Z" fill="white"/>
<path d="M32 19C37.3428 19 42.1367 20.5178 45.5684 22.9199C49.0032 25.3243 51 28.5499 51 32C51 35.4501 49.0032 38.6757 45.5684 41.0801C42.1367 43.4822 37.3428 45 32 45C26.6572 45 21.8633 43.4822 18.4316 41.0801C14.9968 38.6757 13 35.4501 13 32C13 28.5499 14.9968 25.3243 18.4316 22.9199C21.8633 20.5178 26.6572 19 32 19Z" fill="white" stroke="#4E995C" stroke-width="2"/>
<path d="M26 32.3712L30.4903 37.1998L37.6 26.7998" stroke="#0E5A33" stroke-width="2"/>
</g>
<defs>
<clipPath id="clip0_475_2872">
<rect width="64" height="64" fill="white"/>
</clipPath>
</defs>
</svg>
