<svg width="64" height="64" viewBox="0 0 64 64" fill="none" xmlns="http://www.w3.org/2000/svg">
<rect width="64" height="64" fill="white"/>
<path d="M31.8779 6.57715C31.958 6.557 32.042 6.557 32.1221 6.57715L60.1221 13.623C60.3442 13.679 60.5 13.8784 60.5 14.1074L60.5 48.2354C60.5 48.4545 60.3568 48.6481 60.1475 48.7129L32.1475 57.3838C32.0513 57.4135 31.9487 57.4135 31.8525 57.3838L3.85254 48.7129C3.64319 48.6481 3.50001 48.4545 3.5 48.2354L3.5 14.1074C3.50004 13.8784 3.65582 13.679 3.87793 13.623L31.8779 6.57715Z" stroke="#C72632" stroke-width="3"/>
<path d="M5 16.2735C5 15.3547 5.62599 14.5541 6.51766 14.3325L31.5177 8.11987C31.8344 8.04115 32.1656 8.04115 32.4823 8.11987L57.4823 14.3325C58.374 14.5541 59 15.3547 59 16.2735L59 46.2622C59 47.1414 58.4258 47.9176 57.585 48.1747L32.585 55.8211C32.2037 55.9377 31.7963 55.9377 31.415 55.8211L6.41504 48.1747C5.57424 47.9176 5 47.1414 5 46.2622L5 16.2735Z" fill="#143673" stroke="white" stroke-width="0.5"/>
<path d="M14.5542 44V31.5659H12.037L13.2522 29.5261H16.7676V44H14.5542ZM22.3806 44.4991L20.7748 43.3056L24.1817 38.9439C23.9358 39.0018 23.6754 39.0307 23.4005 39.0307C22.0406 39.0307 20.9122 38.5822 20.0153 37.6853C19.1328 36.8028 18.6916 35.7034 18.6916 34.3869C18.6916 32.9547 19.169 31.7467 20.1238 30.763C21.0786 29.7793 22.3227 29.2874 23.8562 29.2874C25.4186 29.2874 26.6627 29.7648 27.5886 30.7196C28.4277 31.5876 28.8472 32.6798 28.8472 33.9963C28.8472 34.9366 28.6157 35.8553 28.1528 36.7522C28.0515 36.9547 27.943 37.15 27.8273 37.3381C27.726 37.5117 27.6031 37.6998 27.4584 37.9023C27.3282 38.1048 27.2269 38.2567 27.1546 38.358C27.0823 38.4448 26.9448 38.6184 26.7423 38.8788C26.5542 39.1247 26.4385 39.2766 26.3951 39.3345L22.3806 44.4991ZM23.7477 37.1428C24.5723 37.1428 25.2667 36.8535 25.8309 36.2748C26.3951 35.6817 26.6772 34.9656 26.6772 34.1265C26.6772 33.2874 26.3951 32.6003 25.8309 32.065C25.2522 31.5153 24.5651 31.2404 23.7694 31.2404C22.9737 31.2404 22.2866 31.5153 21.7079 32.065C21.1437 32.6292 20.8616 33.3381 20.8616 34.1916C20.8616 35.0596 21.1437 35.7757 21.7079 36.3399C22.2721 36.8752 22.952 37.1428 23.7477 37.1428ZM33.846 44.4991L32.2402 43.3056L35.6471 38.9439C35.4012 39.0018 35.1408 39.0307 34.8659 39.0307C33.506 39.0307 32.3776 38.5822 31.4807 37.6853C30.5982 36.8028 30.157 35.7034 30.157 34.3869C30.157 32.9547 30.6344 31.7467 31.5892 30.763C32.544 29.7793 33.7881 29.2874 35.3216 29.2874C36.884 29.2874 38.1281 29.7648 39.054 30.7196C39.8931 31.5876 40.3126 32.6798 40.3126 33.9963C40.3126 34.9366 40.0811 35.8553 39.6182 36.7522C39.5169 36.9547 39.4084 37.15 39.2927 37.3381C39.1914 37.5117 39.0685 37.6998 38.9238 37.9023C38.7936 38.1048 38.6923 38.2567 38.62 38.358C38.5477 38.4448 38.4102 38.6184 38.2077 38.8788C38.0196 39.1247 37.9039 39.2766 37.8605 39.3345L33.846 44.4991ZM35.2131 37.1428C36.0377 37.1428 36.7321 36.8535 37.2963 36.2748C37.8605 35.6817 38.1426 34.9656 38.1426 34.1265C38.1426 33.2874 37.8605 32.6003 37.2963 32.065C36.7176 31.5153 36.0305 31.2404 35.2348 31.2404C34.4391 31.2404 33.752 31.5153 33.1733 32.065C32.6091 32.6292 32.327 33.3381 32.327 34.1916C32.327 35.0596 32.6091 35.7757 33.1733 36.3399C33.7375 36.8752 34.4174 37.1428 35.2131 37.1428ZM45.3114 44.4991L43.7056 43.3056L47.1125 38.9439C46.8666 39.0018 46.6062 39.0307 46.3313 39.0307C44.9714 39.0307 43.843 38.5822 42.9461 37.6853C42.0636 36.8028 41.6224 35.7034 41.6224 34.3869C41.6224 32.9547 42.0998 31.7467 43.0546 30.763C44.0094 29.7793 45.2535 29.2874 46.787 29.2874C48.3494 29.2874 49.5935 29.7648 50.5194 30.7196C51.3585 31.5876 51.778 32.6798 51.778 33.9963C51.778 34.9366 51.5465 35.8553 51.0836 36.7522C50.9823 36.9547 50.8738 37.15 50.7581 37.3381C50.6568 37.5117 50.5339 37.6998 50.3892 37.9023C50.259 38.1048 50.1577 38.2567 50.0854 38.358C50.0131 38.4448 49.8756 38.6184 49.6731 38.8788C49.485 39.1247 49.3693 39.2766 49.3259 39.3345L45.3114 44.4991ZM46.6785 37.1428C47.5031 37.1428 48.1975 36.8535 48.7617 36.2748C49.3259 35.6817 49.608 34.9656 49.608 34.1265C49.608 33.2874 49.3259 32.6003 48.7617 32.065C48.183 31.5153 47.4959 31.2404 46.7002 31.2404C45.9045 31.2404 45.2174 31.5153 44.6387 32.065C44.0745 32.6292 43.7924 33.3381 43.7924 34.1916C43.7924 35.0596 44.0745 35.7757 44.6387 36.3399C45.2029 36.8752 45.8828 37.1428 46.6785 37.1428Z" fill="white"/>
<path d="M24.5822 18.33L23.7622 18.81C23.6956 18.65 23.5956 18.51 23.4622 18.39C23.2622 18.23 23.0222 18.15 22.7422 18.15C22.4422 18.15 22.2089 18.2267 22.0422 18.38C21.8822 18.5333 21.8022 18.7233 21.8022 18.95C21.8022 19.2967 22.0422 19.5667 22.5222 19.76L23.1922 20.03C24.2389 20.4567 24.7622 21.11 24.7622 21.99C24.7622 22.6233 24.5589 23.14 24.1522 23.54C23.7522 23.9333 23.2389 24.13 22.6122 24.13C21.9656 24.13 21.4422 23.9067 21.0422 23.46C20.7156 23.0933 20.5289 22.66 20.4822 22.16L21.4922 21.94C21.4922 22.26 21.5856 22.5433 21.7722 22.79C21.9856 23.0567 22.2756 23.19 22.6422 23.19C22.9556 23.19 23.2156 23.0867 23.4222 22.88C23.6356 22.6733 23.7422 22.4033 23.7422 22.07C23.7422 21.7633 23.6522 21.5267 23.4722 21.36C23.2989 21.1933 23.0689 21.05 22.7822 20.93L22.1422 20.66C21.2356 20.28 20.7822 19.7167 20.7822 18.97C20.7822 18.49 20.9556 18.0767 21.3022 17.73C21.6556 17.3833 22.1322 17.21 22.7322 17.21C23.2722 17.21 23.7189 17.36 24.0722 17.66C24.2789 17.8467 24.4489 18.07 24.5822 18.33ZM25.6385 17.33H26.6585V24H25.6385V17.33ZM28.8757 24H27.8557V16.88L32.6957 21.95V17.33H33.7157V24.41L28.8757 19.34V24ZM39.8566 17.69V18.89C39.3099 18.3967 38.7066 18.15 38.0466 18.15C37.3266 18.15 36.7399 18.39 36.2866 18.87C35.8399 19.3433 35.6166 19.95 35.6166 20.69C35.6166 21.4033 35.8466 22 36.3066 22.48C36.7666 22.9533 37.3499 23.19 38.0566 23.19C38.7166 23.19 39.3166 22.9333 39.8566 22.42V23.63C39.2966 23.9633 38.6866 24.13 38.0266 24.13C37.0999 24.13 36.3133 23.8233 35.6666 23.21C34.9533 22.5433 34.5966 21.7033 34.5966 20.69C34.5966 19.6233 34.9533 18.7533 35.6666 18.08C36.2799 17.5 37.0833 17.21 38.0766 17.21C38.7633 17.21 39.3566 17.37 39.8566 17.69ZM44.3978 17.33V18.29H41.7378V19.98H44.3178V20.94H41.7378V23.04H44.3978V24H40.7178V17.33H44.3978Z" fill="white"/>
</svg>
