<svg width="64" height="64" viewBox="0 0 64 64" fill="none" xmlns="http://www.w3.org/2000/svg" xmlns:xlink="http://www.w3.org/1999/xlink">
<g clip-path="url(#clip0_475_2910)">
<rect width="64" height="64" fill="white"/>
<g clip-path="url(#clip1_475_2910)">
<path d="M57.2137 23.4234C57.8027 22.8344 58.8004 23.0551 59.0401 23.8529C61.9337 33.4847 59.5776 44.3565 51.9681 51.9662C40.9414 62.9929 23.0627 62.9929 12.0359 51.9662C1.00947 40.9394 1.00996 23.0613 12.0366 12.0347C19.6449 4.42654 30.5142 2.06973 40.1446 4.96086C40.9425 5.20039 41.1634 6.19826 40.5743 6.78732L24.6223 22.7393C24.0379 23.3238 23.8031 24.1721 24.0036 24.9739L26.6649 35.6219C26.8756 36.465 27.5344 37.1237 28.3774 37.3345L39.0261 39.9965C39.8278 40.1968 40.6757 39.9613 41.26 39.3771L57.2137 23.4234Z" fill="#5A5C6D"/>
<g style="mix-blend-mode:plus-lighter" opacity="0.7">
<path d="M16.765 20.8896L16.2507 20.4716L17.2609 19.2289L16.3557 18.493L15.3803 19.6929L14.8661 19.2749L15.8415 18.075L14.2024 16.7427L14.6465 16.1963L18.2192 19.1005L16.765 20.8896ZM16.2936 21.5066L15.9005 22.2279C15.6406 22.7047 15.368 23.0173 15.0827 23.1658C14.6945 23.3682 14.2904 23.355 13.8701 23.1259C13.5832 22.9696 13.3839 22.7535 13.2722 22.4777C13.1582 22.206 13.1447 21.9182 13.2317 21.6144L10.8172 21.9336L11.2235 21.1881L13.5091 20.9323L13.5686 20.8232L11.9139 19.9214L12.2509 19.3031L16.2936 21.5066ZM15.3869 21.8143L14.102 21.1139L13.9963 21.3079C13.9676 21.3604 13.941 21.4141 13.9164 21.4688C13.8918 21.5235 13.8674 21.6019 13.8432 21.704C13.8168 21.8102 13.8062 21.9066 13.8114 21.9933C13.8184 22.0862 13.8531 22.1811 13.9156 22.2781C13.9758 22.379 14.0666 22.4626 14.1878 22.5286C14.604 22.7555 14.9652 22.5881 15.2713 22.0264L15.3869 21.8143ZM13.8002 27.1256L13.169 26.9237L13.7286 25.1749L12.6175 24.8193L12.0748 26.5156L11.4436 26.3136L11.9864 24.6174L10.6057 24.1756L10.0461 25.9244L9.41498 25.7225L10.1891 23.3031L14.5743 24.7062L13.8002 27.1256ZM13.2256 30.5035L12.5684 30.4186L12.8034 28.5976L11.6464 28.4482L11.4185 30.2145L10.7612 30.1297L10.9892 28.3634L9.55154 28.1778L9.31649 29.9989L8.65927 29.9141L8.98445 27.3947L13.5508 27.9841L13.2256 30.5035ZM13.1703 33.5345L13.2522 34.2338L8.6793 34.7694L8.5974 34.0701L13.1703 33.5345ZM9.2181 37.3348L9.0059 36.6635L13.6922 35.1822L11.3621 39.4226L14.4029 38.4615L14.6151 39.1329L9.95514 40.6058L12.2853 36.3654L9.2181 37.3348ZM15.5786 42.5568L15.0088 42.232C15.0815 42.1369 15.1307 42.0289 15.1565 41.9078C15.1831 41.733 15.1482 41.5619 15.0516 41.3945C14.9482 41.2151 14.8219 41.102 14.6727 41.0552C14.5258 41.0124 14.3846 41.0301 14.2491 41.1083C14.0418 41.2278 13.9631 41.4645 14.0131 41.8182L14.0827 42.3119C14.1885 43.0849 13.9784 43.6232 13.4522 43.9267C13.0735 44.1451 12.6944 44.2017 12.315 44.0965C11.9418 43.993 11.6472 43.7539 11.431 43.3791C11.208 42.9925 11.1611 42.6025 11.2902 42.2093C11.3968 41.8875 11.5915 41.6264 11.8744 41.4261L12.3543 41.9541C12.1629 42.0645 12.0257 42.218 11.9426 42.4147C11.8567 42.6342 11.877 42.8536 12.0035 43.0729C12.1115 43.2602 12.263 43.3801 12.4578 43.4324C12.655 43.4887 12.8532 43.4593 13.0526 43.3444C13.2359 43.2386 13.3464 43.1032 13.384 42.938C13.4239 42.7769 13.4302 42.59 13.4031 42.3772L13.3438 41.9013C13.2584 41.2281 13.4389 40.7628 13.8853 40.5053C14.1724 40.3397 14.4793 40.3008 14.8061 40.3886C15.1353 40.4803 15.4033 40.7055 15.6103 41.0643C15.7965 41.3872 15.8609 41.706 15.8033 42.0207C15.763 42.2087 15.6881 42.3874 15.5786 42.5568ZM17.6357 45.2629L16.9716 44.4417L13.9068 46.9201L13.4641 46.3726L16.5289 43.8942L15.8648 43.073L16.3801 42.6563L18.151 44.8462L17.6357 45.2629ZM17.8252 50.6226L18.1687 49.4604L16.6608 48.1968L15.5608 48.725L14.9788 48.2373L19.8655 45.9739L18.4072 51.1103L17.8252 50.6226ZM17.3087 47.8751L18.3774 48.7707L18.8556 47.1361L17.3087 47.8751ZM21.7476 47.878L22.3657 48.2153L20.4774 51.6751L21.6651 52.3233L21.3476 52.9049L19.5419 51.9195L21.7476 47.878ZM24.3009 49.2351L24.9601 49.4825L23.5746 53.1726L24.8412 53.6481L24.6083 54.2685L22.6825 53.5454L24.3009 49.2351ZM29.2318 55.2396L28.9396 54.0635L26.9995 53.7373L26.3183 54.7497L25.5695 54.6238L28.6376 50.1978L29.9806 55.3655L29.2318 55.2396ZM27.3953 53.1318L28.7704 53.363L28.3551 51.7113L27.3953 53.1318ZM33.3785 51.4828L32.3225 51.4959L32.3716 55.4372L31.6675 55.4459L31.6184 51.5047L30.5624 51.5179L30.5541 50.8552L33.3703 50.8201L33.3785 51.4828ZM34.1338 50.7794L34.829 50.6677L35.5589 55.2137L34.8637 55.3253L34.1338 50.7794ZM36.5319 50.8833C36.8083 50.3013 37.2695 49.8954 37.9155 49.6654C38.5615 49.4355 39.1755 49.4587 39.7574 49.7352C40.3394 50.0116 40.7446 50.4707 40.973 51.1123C41.2014 51.754 41.1774 52.3658 40.9009 52.9478C40.6245 53.5297 40.1633 53.9357 39.5173 54.1656C38.8713 54.3956 38.2573 54.3723 37.6754 54.0959C37.0934 53.8194 36.6882 53.3604 36.4598 52.7187C36.2314 52.0771 36.2554 51.4653 36.5319 50.8833ZM37.9931 53.5065C38.4003 53.7035 38.8358 53.7194 39.2997 53.5543C39.7636 53.3892 40.0911 53.1017 40.2822 52.6917C40.4718 52.2774 40.481 51.8296 40.3097 51.3484C40.1384 50.8672 39.8492 50.5281 39.442 50.3311C39.0333 50.1297 38.597 50.1116 38.1331 50.2767C37.6692 50.4418 37.3425 50.7316 37.1529 51.1458C36.9617 51.5558 36.9518 52.0014 37.1231 52.4826C37.2944 52.9639 37.5844 53.3052 37.9931 53.5065ZM43.863 52.1967L43.2778 52.5882L40.5449 48.5032L45.2678 49.5543L43.4945 46.9036L44.0797 46.5121L46.7972 50.5742L42.0743 49.5231L43.863 52.1967Z" fill="white"/>
</g>
</g>
<path d="M43.1512 19.5884C43.7658 19.7532 44.246 20.2333 44.4107 20.8479L46.6011 29.0238C46.7656 29.6385 46.5898 30.2947 46.1398 30.7446L40.1557 36.7288C39.7057 37.1788 39.0496 37.3546 38.4349 37.1901L30.2596 34.999C29.6448 34.8343 29.1648 34.3543 29.0001 33.7395L26.809 25.5642C26.6444 24.9495 26.8203 24.2934 27.2703 23.8434L33.2545 17.8593C33.7045 17.4093 34.3606 17.2334 34.9753 17.398L43.1512 19.5884Z" fill="url(#pattern0_475_2910)"/>
<path d="M43.1512 19.5884C43.7658 19.7532 44.246 20.2333 44.4107 20.8479L46.6011 29.0238C46.7656 29.6385 46.5898 30.2947 46.1398 30.7446L40.1557 36.7288C39.7057 37.1788 39.0496 37.3546 38.4349 37.1901L30.2596 34.999C29.6448 34.8343 29.1648 34.3543 29.0001 33.7395L26.809 25.5642C26.6444 24.9495 26.8203 24.2934 27.2703 23.8434L33.2545 17.8593C33.7045 17.4093 34.3606 17.2334 34.9753 17.398L43.1512 19.5884Z" fill="#8D93A2" style="mix-blend-mode:color"/>
<path d="M43.1512 19.5884C43.7658 19.7532 44.246 20.2333 44.4107 20.8479L46.6011 29.0238C46.7656 29.6385 46.5898 30.2947 46.1398 30.7446L40.1557 36.7288C39.7057 37.1788 39.0496 37.3546 38.4349 37.1901L30.2596 34.999C29.6448 34.8343 29.1648 34.3543 29.0001 33.7395L26.809 25.5642C26.6444 24.9495 26.8203 24.2934 27.2703 23.8434L33.2545 17.8593C33.7045 17.4093 34.3606 17.2334 34.9753 17.398L43.1512 19.5884Z" stroke="#8D93A2" stroke-width="1.14286"/>
<circle cx="36.707" cy="27.2939" r="3.04194" transform="rotate(45 36.707 27.2939)" fill="#8D93A2"/>
</g>
<defs>
<clipPath id="clip0_475_2910">
<rect width="64" height="64" fill="white"/>
</clipPath>
<clipPath id="clip1_475_2910">
<rect width="56.4716" height="56.4716" fill="white" transform="translate(32 -7.93091) rotate(45)"/>
</clipPath>
<pattern id="pattern0_475_2910" patternUnits="userSpaceOnUse" patternTransform="matrix(4.09449 4.09449 -4.09449 4.09449 42.3806 17.2953)" preserveAspectRatio="none" viewBox="-1.06055 -1.06055 38 38" width="1" height="1">
<use xlink:href="#pattern0_475_2910_inner" transform="translate(-38 -38)"/>
<use xlink:href="#pattern0_475_2910_inner" transform="translate(0 -38)"/>
<use xlink:href="#pattern0_475_2910_inner" transform="translate(-38 0)"/>
<g id="pattern0_475_2910_inner">
<path d="M0 0L38 38" stroke="#D97B3A" stroke-width="3" stroke-linejoin="round"/>
</g>
</pattern></defs>
</svg>
