<svg width="64" height="64" viewBox="0 0 64 64" fill="none" xmlns="http://www.w3.org/2000/svg">
<rect width="64" height="64" fill="white"/>
<path d="M8.55176 14.0566H55.4463C56.5193 14.0566 57.3896 14.927 57.3896 16V45.5371C57.3896 46.2312 57.0191 46.8727 56.418 47.2197L32.9707 60.7568C32.3696 61.1039 31.6285 61.1039 31.0273 60.7568L7.58008 47.2197C6.97897 46.8727 6.60841 46.2312 6.6084 45.5371V16C6.6084 14.927 7.47875 14.0566 8.55176 14.0566Z" fill="#C72632"/>
<path d="M8.55176 14.0566H55.4463C56.5193 14.0566 57.3896 14.927 57.3896 16V45.5371C57.3896 46.2312 57.0191 46.8727 56.418 47.2197L32.9707 60.7568C32.3696 61.1039 31.6285 61.1039 31.0273 60.7568L7.58008 47.2197C6.97897 46.8727 6.60841 46.2312 6.6084 45.5371V16C6.6084 14.927 7.47875 14.0566 8.55176 14.0566Z" stroke="url(#paint0_linear_475_2890)" stroke-width="0.685714" style="mix-blend-mode:plus-lighter"/>
<mask id="mask0_475_2890" style="mask-type:alpha" maskUnits="userSpaceOnUse" x="6" y="13" width="52" height="49">
<path d="M8.55176 14.2852H55.4463C56.3931 14.2852 57.1611 15.0532 57.1611 16V45.5371C57.1611 46.1495 56.8341 46.7152 56.3037 47.0215L32.8564 60.5596C32.3261 60.8658 31.672 60.8658 31.1416 60.5596L7.69434 47.0215C7.16394 46.7153 6.83693 46.1495 6.83691 45.5371V16C6.83691 15.0532 7.60498 14.2852 8.55176 14.2852Z" fill="#D9D9D9"/>
<path d="M8.55176 14.2852H55.4463C56.3931 14.2852 57.1611 15.0532 57.1611 16V45.5371C57.1611 46.1495 56.8341 46.7152 56.3037 47.0215L32.8564 60.5596C32.3261 60.8658 31.672 60.8658 31.1416 60.5596L7.69434 47.0215C7.16394 46.7153 6.83693 46.1495 6.83691 45.5371V16C6.83691 15.0532 7.60498 14.2852 8.55176 14.2852Z" stroke="url(#paint1_linear_475_2890)" stroke-width="1.14286"/>
</mask>
<g mask="url(#mask0_475_2890)">
<path d="M52.9805 63.79H43.4092V63.7881H11.0146V31.3115L13.6279 32.5195L25.7412 38.1211V31.3115L28.3545 32.5195L43.0801 39.3301L43.4092 39.4824V20.5713H52.9805V63.79ZM18.7461 49.8613H24.6357V43.9717H18.7461V49.8613ZM33.4727 43.9717V49.8613H39.3623V43.9717H33.4727Z" fill="white"/>
<path d="M52.9805 63.79V64.0523H53.2428V63.79H52.9805ZM43.4092 63.79H43.1469V64.0523H43.4092V63.79ZM43.4092 63.7881H43.6715V63.5258H43.4092V63.7881ZM11.0146 63.7881H10.7524V64.0504H11.0146V63.7881ZM11.0146 31.3115L11.1247 31.0734L10.7524 30.9013V31.3115H11.0146ZM13.6279 32.5195L13.738 32.2815L13.738 32.2814L13.6279 32.5195ZM25.7412 38.1211L25.6311 38.3592L26.0035 38.5314V38.1211H25.7412ZM25.7412 31.3115L25.8513 31.0734L25.4789 30.9013V31.3115H25.7412ZM28.3545 32.5195L28.4646 32.2815L28.4645 32.2814L28.3545 32.5195ZM43.0801 39.3301L43.1903 39.0921L43.1902 39.092L43.0801 39.3301ZM43.4092 39.4824L43.299 39.7204L43.6715 39.8929V39.4824H43.4092ZM43.4092 20.5713V20.309H43.1469V20.5713H43.4092ZM52.9805 20.5713H53.2428V20.309H52.9805V20.5713ZM18.7461 49.8613H18.4838V50.1236H18.7461V49.8613ZM24.6357 49.8613V50.1236H24.898V49.8613H24.6357ZM24.6357 43.9717H24.898V43.7094H24.6357V43.9717ZM18.7461 43.9717V43.7094H18.4838V43.9717H18.7461ZM33.4727 43.9717V43.7094H33.2104V43.9717H33.4727ZM33.4727 49.8613H33.2104V50.1236H33.4727V49.8613ZM39.3623 49.8613V50.1236H39.6246V49.8613H39.3623ZM39.3623 43.9717H39.6246V43.7094H39.3623V43.9717ZM52.9805 63.79V63.5277H43.4092V63.79V64.0523H52.9805V63.79ZM43.4092 63.79H43.6715V63.7881H43.4092H43.1469V63.79H43.4092ZM43.4092 63.7881V63.5258H11.0146V63.7881V64.0504H43.4092V63.7881ZM11.0146 63.7881H11.2769V31.3115H11.0146H10.7524V63.7881H11.0146ZM11.0146 31.3115L10.9046 31.5496L13.5179 32.7576L13.6279 32.5195L13.738 32.2814L11.1247 31.0734L11.0146 31.3115ZM13.6279 32.5195L13.5178 32.7576L25.6311 38.3592L25.7412 38.1211L25.8513 37.883L13.738 32.2815L13.6279 32.5195ZM25.7412 38.1211H26.0035V31.3115H25.7412H25.4789V38.1211H25.7412ZM25.7412 31.3115L25.6312 31.5496L28.2444 32.7576L28.3545 32.5195L28.4645 32.2814L25.8513 31.0734L25.7412 31.3115ZM28.3545 32.5195L28.2444 32.7576L42.97 39.5681L43.0801 39.3301L43.1902 39.092L28.4646 32.2815L28.3545 32.5195ZM43.0801 39.3301L42.9699 39.5681L43.299 39.7204L43.4092 39.4824L43.5194 39.2444L43.1903 39.0921L43.0801 39.3301ZM43.4092 39.4824H43.6715V20.5713H43.4092H43.1469V39.4824H43.4092ZM43.4092 20.5713V20.8336H52.9805V20.5713V20.309H43.4092V20.5713ZM52.9805 20.5713H52.7182V63.79H52.9805H53.2428V20.5713H52.9805ZM18.7461 49.8613V50.1236H24.6357V49.8613V49.599H18.7461V49.8613ZM24.6357 49.8613H24.898V43.9717H24.6357H24.3735V49.8613H24.6357ZM24.6357 43.9717V43.7094H18.7461V43.9717V44.234H24.6357V43.9717ZM18.7461 43.9717H18.4838V49.8613H18.7461H19.0084V43.9717H18.7461ZM33.4727 43.9717H33.2104V49.8613H33.4727H33.7349V43.9717H33.4727ZM33.4727 49.8613V50.1236H39.3623V49.8613V49.599H33.4727V49.8613ZM39.3623 49.8613H39.6246V43.9717H39.3623H39.1V49.8613H39.3623ZM39.3623 43.9717V43.7094H33.4727V43.9717V44.234H39.3623V43.9717Z" fill="url(#paint2_linear_475_2890)" style="mix-blend-mode:plus-lighter"/>
</g>
<path d="M56.5898 14.8564V46.1973L31.999 60.3945L7.4082 46.1973V14.8564H56.5898Z" stroke="url(#paint3_linear_475_2890)" stroke-opacity="0.8" stroke-width="2.28571"/>
<path d="M56.5898 14.8564V46.1973L31.999 60.3945L7.4082 46.1973V14.8564H56.5898Z" stroke="#ED5153" stroke-width="2.28571"/>
<path d="M8.31202 5.76889V6.46009H6.64162V7.67689H8.25442V8.36809H6.64162V10.5713H5.90722V5.76889H8.31202ZM12.3572 10.5713L11.8532 9.41209H9.80118L9.27558 10.5713H8.48358L10.874 5.48809L13.1492 10.5713H12.3572ZM10.1036 8.72089H11.558L10.8452 7.09369L10.1036 8.72089ZM17.2791 6.02809V6.89209C16.8855 6.53689 16.4511 6.35929 15.9759 6.35929C15.4575 6.35929 15.0351 6.53209 14.7087 6.87769C14.3871 7.21849 14.2263 7.65529 14.2263 8.18809C14.2263 8.70169 14.3919 9.13129 14.7231 9.47689C15.0543 9.81769 15.4743 9.98809 15.9831 9.98809C16.4583 9.98809 16.8903 9.80329 17.2791 9.43369V10.3049C16.8759 10.5449 16.4367 10.6649 15.9615 10.6649C15.2943 10.6649 14.7279 10.4441 14.2623 10.0025C13.7487 9.52249 13.4919 8.91769 13.4919 8.18809C13.4919 7.42009 13.7487 6.79369 14.2623 6.30889C14.7039 5.89129 15.2823 5.68249 15.9975 5.68249C16.4919 5.68249 16.9191 5.79769 17.2791 6.02809ZM20.6928 6.46009H19.5912V10.5713H18.8568V6.46009H17.7552V5.76889H20.6928V6.46009ZM21.7526 6.39529C22.2278 5.92009 22.823 5.68249 23.5382 5.68249C24.2534 5.68249 24.8486 5.92009 25.3238 6.39529C25.799 6.87049 26.0366 7.46329 26.0366 8.17369C26.0366 8.88409 25.799 9.47689 25.3238 9.95209C24.8486 10.4273 24.2534 10.6649 23.5382 10.6649C22.823 10.6649 22.2278 10.4273 21.7526 9.95209C21.2774 9.47689 21.0398 8.88409 21.0398 8.17369C21.0398 7.46329 21.2774 6.87049 21.7526 6.39529ZM22.271 9.48409C22.6022 9.82009 23.0246 9.98809 23.5382 9.98809C24.0518 9.98809 24.4742 9.82009 24.8054 9.48409C25.1366 9.14329 25.3022 8.70649 25.3022 8.17369C25.3022 7.64089 25.1366 7.20649 24.8054 6.87049C24.4742 6.52969 24.0518 6.35929 23.5382 6.35929C23.0246 6.35929 22.6022 6.52969 22.271 6.87049C21.9398 7.20649 21.7742 7.64089 21.7742 8.17369C21.7742 8.70649 21.9398 9.14329 22.271 9.48409ZM27.0305 5.76889H27.8873C28.4537 5.76889 28.8761 5.86249 29.1545 6.04969C29.5337 6.30409 29.7233 6.68089 29.7233 7.18009C29.7233 7.52089 29.6249 7.81129 29.4281 8.05129C29.2361 8.29129 28.9793 8.44729 28.6577 8.51929L30.1553 10.5713H29.2697L27.8945 8.60569H27.7649V10.5713H27.0305V5.76889ZM27.7649 6.44569V7.97209H27.9953C28.0577 7.97209 28.1201 7.96969 28.1825 7.96489C28.2449 7.96009 28.3289 7.94329 28.4345 7.91449C28.5449 7.88569 28.6385 7.84729 28.7153 7.79929C28.7969 7.74649 28.8665 7.66729 28.9241 7.56169C28.9865 7.45609 29.0177 7.33129 29.0177 7.18729C29.0177 6.69289 28.6841 6.44569 28.0169 6.44569H27.7649ZM31.9494 10.5713V8.49769L30.3726 5.76889H31.2078L32.3166 7.69129L33.4254 5.76889H34.2606L32.6838 8.49769V10.5713H31.9494ZM36.6613 5.76889H37.6693C38.0485 5.76889 38.3797 5.80249 38.6629 5.86969C38.9461 5.93209 39.2101 6.05449 39.4549 6.23689C39.7477 6.45769 39.9733 6.73609 40.1317 7.07209C40.2949 7.40809 40.3765 7.77529 40.3765 8.17369C40.3765 9.01369 40.0549 9.65929 39.4117 10.1105C39.1525 10.2929 38.8885 10.4153 38.6197 10.4777C38.3509 10.5401 38.0293 10.5713 37.6549 10.5713H36.6613V5.76889ZM37.3957 6.46009V9.88009H37.7125C38.2597 9.88009 38.6845 9.76729 38.9869 9.54169C39.4237 9.21049 39.6421 8.75449 39.6421 8.17369C39.6421 7.87609 39.5797 7.60489 39.4549 7.36009C39.3349 7.11529 39.1813 6.92569 38.9941 6.79129C38.6869 6.57049 38.2597 6.46009 37.7125 6.46009H37.3957ZM41.3669 5.76889H42.1013V10.5713H41.3669V5.76889ZM43.3233 5.76889H44.1801C44.7465 5.76889 45.1689 5.86249 45.4473 6.04969C45.8265 6.30409 46.0161 6.68089 46.0161 7.18009C46.0161 7.52089 45.9177 7.81129 45.7209 8.05129C45.5289 8.29129 45.2721 8.44729 44.9505 8.51929L46.4481 10.5713H45.5625L44.1873 8.60569H44.0577V10.5713H43.3233V5.76889ZM44.0577 6.44569V7.97209H44.2881C44.3505 7.97209 44.4129 7.96969 44.4753 7.96489C44.5377 7.96009 44.6217 7.94329 44.7273 7.91449C44.8377 7.88569 44.9313 7.84729 45.0081 7.79929C45.0897 7.74649 45.1593 7.66729 45.2169 7.56169C45.2793 7.45609 45.3105 7.33129 45.3105 7.18729C45.3105 6.69289 44.9769 6.44569 44.3097 6.44569H44.0577ZM49.891 5.76889V6.46009H47.9758V7.67689H49.8334V8.36809H47.9758V9.88009H49.891V10.5713H47.2414V5.76889H49.891ZM54.4702 6.02809V6.89209C54.0766 6.53689 53.6422 6.35929 53.167 6.35929C52.6486 6.35929 52.2262 6.53209 51.8998 6.87769C51.5782 7.21849 51.4174 7.65529 51.4174 8.18809C51.4174 8.70169 51.583 9.13129 51.9142 9.47689C52.2454 9.81769 52.6654 9.98809 53.1742 9.98809C53.6494 9.98809 54.0814 9.80329 54.4702 9.43369V10.3049C54.067 10.5449 53.6278 10.6649 53.1526 10.6649C52.4854 10.6649 51.919 10.4441 51.4534 10.0025C50.9398 9.52249 50.683 8.91769 50.683 8.18809C50.683 7.42009 50.9398 6.79369 51.4534 6.30889C51.895 5.89129 52.4734 5.68249 53.1886 5.68249C53.683 5.68249 54.1102 5.79769 54.4702 6.02809ZM57.8838 6.46009H56.7822V10.5713H56.0478V6.46009H54.9462V5.76889H57.8838V6.46009Z" fill="#D93A45"/>
<defs>
<linearGradient id="paint0_linear_475_2890" x1="32" y1="2.2853" x2="32" y2="61.7139" gradientUnits="userSpaceOnUse">
<stop stop-color="white" stop-opacity="0.2"/>
<stop offset="1" stop-color="white" stop-opacity="0"/>
</linearGradient>
<linearGradient id="paint1_linear_475_2890" x1="32" y1="2.2853" x2="32" y2="61.7138" gradientUnits="userSpaceOnUse">
<stop stop-color="white" stop-opacity="0.1"/>
<stop offset="1" stop-color="white" stop-opacity="0"/>
</linearGradient>
<linearGradient id="paint2_linear_475_2890" x1="31.9976" y1="20.5713" x2="31.9976" y2="63.79" gradientUnits="userSpaceOnUse">
<stop stop-color="white" stop-opacity="0.1"/>
<stop offset="1" stop-color="white" stop-opacity="0"/>
</linearGradient>
<linearGradient id="paint3_linear_475_2890" x1="32" y1="38.8567" x2="32" y2="14.8567" gradientUnits="userSpaceOnUse">
<stop stop-color="#3E3E3E" stop-opacity="0"/>
<stop offset="1" stop-color="#ECECEC"/>
</linearGradient>
</defs>
</svg>
