<svg width="64" height="64" viewBox="0 0 64 64" fill="none" xmlns="http://www.w3.org/2000/svg">
<g clip-path="url(#clip0_475_2833)">
<rect width="64" height="64" fill="white"/>
<path d="M32.0039 2C40.4891 2 46.6256 3.74517 50.6631 5.51465C52.6801 6.39866 54.1696 7.28753 55.1631 7.96289C55.6595 8.30035 56.0324 8.58414 56.2852 8.78809C56.4116 8.89009 56.5082 8.97281 56.5752 9.03125C56.6085 9.06032 56.6345 9.08358 56.6533 9.10059C56.6625 9.10893 56.67 9.11581 56.6758 9.12109C56.6786 9.12372 56.6816 9.1261 56.6836 9.12793L56.6875 9.13184C56.6866 9.13371 56.6566 9.1657 56.0039 9.86133L56.6885 9.13281L57.0039 9.42871V39.1797C57.0039 47.7815 51.525 55.4277 43.3799 58.1934L32.3252 61.9473L32.0039 62.0557L31.6826 61.9473L20.6279 58.1934C12.4828 55.4277 7.00392 47.7815 7.00391 39.1797V9.42871L7.31934 9.13281L8.00391 9.86133C7.35117 9.1657 7.32125 9.13371 7.32031 9.13184L7.32422 9.12793C7.32619 9.1261 7.32918 9.12372 7.33203 9.12109C7.33777 9.11581 7.34528 9.10893 7.35449 9.10059C7.37328 9.08358 7.39929 9.06032 7.43262 9.03125C7.49963 8.97281 7.59623 8.89009 7.72266 8.78809C7.97544 8.58414 8.34833 8.30035 8.84473 7.96289C9.83821 7.28753 11.3277 6.39866 13.3447 5.51465C17.3822 3.74517 23.5187 2 32.0039 2Z" fill="#5B7199" stroke="#A0AFD9" stroke-width="2"/>
<path d="M12.1661 11.0012L12.9275 10.7463L15.1797 13.4256L15.3177 9.69951L17.6302 12.605L17.8561 9.09577L18.6176 8.84078L18.2006 14.4463L15.8997 11.5755L15.7779 15.2576L12.1661 11.0012ZM23.8747 12.7291L23.1407 11.6785L21.1015 12.0911L20.8123 13.3488L20.0253 13.508L21.3786 7.97593L24.6617 12.5698L23.8747 12.7291ZM21.2631 11.3434L22.7084 11.051L21.6728 9.57729L21.2631 11.3434ZM24.907 7.63167L25.771 7.54119C26.3421 7.48137 26.778 7.53115 27.0785 7.69052C27.4877 7.90701 27.7187 8.26694 27.7714 8.77032C27.8074 9.11397 27.7388 9.4172 27.5657 9.67999C27.3975 9.94228 27.155 10.1267 26.8383 10.2333L28.5651 12.1443L27.6721 12.2378L26.0778 10.401L25.9471 10.4147L26.1547 12.3967L25.4142 12.4743L24.907 7.63167ZM25.719 8.23658L25.8802 9.77576L26.1126 9.75143C26.1755 9.74484 26.2382 9.73583 26.3006 9.7244C26.363 9.71297 26.4459 9.68716 26.5494 9.64697C26.6576 9.60627 26.748 9.55766 26.8203 9.50115C26.8971 9.43929 26.9589 9.35208 27.0058 9.23951C27.0576 9.12644 27.0759 8.9973 27.0607 8.85209C27.0084 8.35355 26.6459 8.13951 25.9732 8.20997L25.719 8.23658ZM29.3296 7.23285L30.1981 7.21325C30.7722 7.20029 31.2025 7.28551 31.489 7.46889C31.8792 7.71808 32.08 8.09568 32.0914 8.60169C32.0992 8.94713 32.0061 9.24374 31.8121 9.49151C31.623 9.73918 31.3662 9.90318 31.0419 9.98352L32.6068 12.0292L31.7092 12.0495L30.2703 10.0886L30.1389 10.0915L30.1839 12.0839L29.4394 12.1007L29.3296 7.23285ZM30.0895 7.90207L30.1244 9.44928L30.3579 9.44401C30.4212 9.44258 30.4844 9.43872 30.5475 9.43243C30.6107 9.42614 30.6954 9.40719 30.8018 9.37558C30.9131 9.34386 31.0071 9.30279 31.0838 9.25238C31.1653 9.197 31.234 9.11513 31.29 9.00677C31.3508 8.8983 31.3796 8.77109 31.3763 8.62512C31.365 8.12399 31.0212 7.88105 30.3449 7.89631L30.0895 7.90207ZM36.8452 12.296L36.4166 11.0882L34.3411 10.9445L33.7283 12.0801L32.9272 12.0247L35.701 7.05061L37.6463 12.3515L36.8452 12.296ZM34.6954 10.2665L36.1664 10.3684L35.5594 8.6726L34.6954 10.2665ZM39.1273 12.5991L38.3945 12.467L39.3164 7.35185L42.1371 11.6209L42.7353 8.30178L43.4681 8.43385L42.5514 13.5203L39.7307 9.25124L39.1273 12.5991ZM47.3781 10.1585L46.3022 9.85866L45.1832 13.874L44.4659 13.6741L45.5849 9.65877L44.509 9.35894L44.6971 8.68386L47.5662 9.48342L47.3781 10.1585ZM48.1195 14.823L48.8416 12.8485L48.2906 9.70101L49.0859 9.99189L49.4721 12.2086L51.1975 10.7642L51.9927 11.0551L49.5409 13.1043L48.8187 15.0788L48.1195 14.823Z" fill="white"/>
<path d="M6.5 22C6.5 22 17.6668 16 31.5 16C45.3332 16 56.5 22 56.5 22" stroke="#A0AFD9" stroke-width="2"/>
<path d="M30.6901 39.368V42H18.1461L24.6141 34.16C25.5847 32.984 26.3314 32.0133 26.8541 31.248C27.5074 30.2773 27.8341 29.3813 27.8341 28.56C27.8341 27.72 27.5634 27.0107 27.0221 26.432C26.4807 25.8347 25.7154 25.536 24.7261 25.536C23.7367 25.536 22.9527 25.8627 22.3741 26.516C21.7954 27.1693 21.4781 27.972 21.4221 28.924H18.6781C18.7527 27.2813 19.2754 25.9187 20.2461 24.836C21.3287 23.6227 22.7847 23.016 24.6141 23.016C26.4994 23.016 27.9741 23.5667 29.0381 24.668C30.1021 25.7693 30.6341 27.0947 30.6341 28.644C30.6341 29.932 30.1861 31.2387 29.2901 32.564C28.8047 33.292 27.9181 34.412 26.6301 35.924L23.7181 39.368H30.6901ZM45.2479 23.324V25.956H39.4799L38.5559 29.064C38.9292 29.0267 39.2185 29.008 39.4239 29.008C41.1785 29.008 42.6159 29.5587 43.7359 30.66C44.9492 31.836 45.5559 33.432 45.5559 35.448C45.5559 37.4827 44.9212 39.1347 43.6519 40.404C42.3639 41.6733 40.6372 42.308 38.4719 42.308C37.0532 42.308 35.8585 42.028 34.8879 41.468C33.9919 40.9267 33.2545 40.208 32.6759 39.312L34.8319 37.52C35.0932 38.1547 35.5692 38.696 36.2599 39.144C36.8945 39.5733 37.7065 39.788 38.6959 39.788C39.8719 39.788 40.8239 39.4427 41.5519 38.752C42.3545 37.9493 42.7559 36.8947 42.7559 35.588C42.7559 34.2813 42.3825 33.2733 41.6359 32.564C40.9079 31.8733 39.8905 31.528 38.5839 31.528C37.8372 31.528 37.1092 31.6587 36.3999 31.92C35.7652 32.1627 35.2145 32.4427 34.7479 32.76L37.5199 23.324H45.2479Z" fill="white"/>
<path d="M23.7835 54V51.8976L22.1848 49.1309H23.0316L24.1558 51.08L25.28 49.1309H26.1268L24.5281 51.8976V54H23.7835ZM29.5434 49.1309V49.8317H27.6016V51.0654H29.485V51.7662H27.6016V53.2992H29.5434V54H26.857V49.1309H29.5434ZM34.0256 54L33.5146 52.8247H31.4341L30.9012 54H30.0982L32.5218 48.8462L34.8286 54H34.0256ZM31.7407 52.1239H33.2153L32.4926 50.4741L31.7407 52.1239ZM35.5897 49.1309H36.4584C37.0326 49.1309 37.4609 49.2258 37.7432 49.4156C38.1276 49.6735 38.3199 50.0556 38.3199 50.5617C38.3199 50.9072 38.2201 51.2017 38.0206 51.445C37.8259 51.6883 37.5655 51.8465 37.2395 51.9195L38.7579 54H37.86L36.4657 52.0071H36.3343V54H35.5897V49.1309ZM36.3343 49.8171V51.3647H36.5679C36.6311 51.3647 36.6944 51.3623 36.7577 51.3574C36.8209 51.3525 36.9061 51.3355 37.0132 51.3063C37.1251 51.2771 37.22 51.2382 37.2979 51.1895C37.3806 51.136 37.4512 51.0557 37.5096 50.9486C37.5728 50.8415 37.6045 50.715 37.6045 50.569C37.6045 50.0677 37.2662 49.8171 36.5898 49.8171H36.3343ZM42.3362 49.8609L41.7376 50.2113C41.6889 50.0945 41.6159 49.9923 41.5186 49.9047C41.3726 49.7879 41.1974 49.7295 40.993 49.7295C40.774 49.7295 40.6036 49.7855 40.482 49.8974C40.3652 50.0093 40.3068 50.148 40.3068 50.3135C40.3068 50.5666 40.482 50.7637 40.8324 50.9048L41.3215 51.1019C42.0855 51.4134 42.4676 51.8903 42.4676 52.5327C42.4676 52.995 42.3191 53.3722 42.0223 53.6642C41.7303 53.9513 41.3555 54.0949 40.8981 54.0949C40.426 54.0949 40.044 53.9319 39.752 53.6058C39.5135 53.3381 39.3772 53.0218 39.3432 52.6568L40.0805 52.4962C40.0805 52.7298 40.1486 52.9366 40.2849 53.1167C40.4406 53.3114 40.6523 53.4087 40.92 53.4087C41.1487 53.4087 41.3385 53.3333 41.4894 53.1824C41.6451 53.0315 41.723 52.8344 41.723 52.5911C41.723 52.3672 41.6573 52.1945 41.5259 52.0728C41.3993 51.9511 41.2314 51.8465 41.0222 51.7589L40.555 51.5618C39.8931 51.2844 39.5622 50.8732 39.5622 50.3281C39.5622 49.9777 39.6887 49.676 39.9418 49.4229C40.1997 49.1698 40.5477 49.0433 40.9857 49.0433C41.3799 49.0433 41.7059 49.1528 41.9639 49.3718C42.1147 49.5081 42.2388 49.6711 42.3362 49.8609Z" fill="white"/>
</g>
<defs>
<clipPath id="clip0_475_2833">
<rect width="64" height="64" fill="white"/>
</clipPath>
</defs>
</svg>
