<svg width="64" height="64" viewBox="0 0 64 64" fill="none" xmlns="http://www.w3.org/2000/svg">
<rect width="64" height="64" fill="white"/>
<rect x="4.89342" y="4.89244" width="54.2143" height="54.2143" rx="5.87637" fill="white"/>
<rect x="4.89342" y="4.89244" width="54.2143" height="54.2143" rx="5.87637" stroke="#015A75" stroke-width="1.64286"/>
<path fill-rule="evenodd" clip-rule="evenodd" d="M23.8582 50.258C25.0038 50.7655 25.5622 51.0991 25.7797 52.5203C26.1495 55.0002 23.8654 55.9429 21.7118 55.9429H16.665V45.1242H21.7553C23.5826 45.1242 25.2504 45.958 25.2504 47.9956C25.2504 49.0108 24.721 49.7504 23.8582 50.258ZM33.9662 50.258C35.1119 50.7655 35.6702 51.0991 35.8878 52.5203C36.2576 55.0002 33.9735 55.9429 31.8199 55.9429H26.7731V45.1242H31.8634C33.6907 45.1242 35.3584 45.958 35.3584 47.9956C35.3584 49.0108 34.8291 49.7504 33.9662 50.258ZM45.9958 52.5276C45.7783 51.1063 45.2127 50.7728 44.0743 50.2652C44.9372 49.7576 45.4737 49.018 45.4737 47.9956C45.4737 45.958 43.806 45.1242 41.9787 45.1242H36.8884V55.9501H41.9352C44.0815 55.9501 46.3729 55.0075 45.9958 52.5276ZM47.4025 53.3542V53.3324C47.4025 51.962 48.5265 50.8381 49.8969 50.8381C51.2674 50.8381 52.3913 51.962 52.3913 53.3252V53.347C52.3913 54.7174 51.2674 55.8413 49.8969 55.8413C48.5337 55.8486 47.4098 54.7247 47.4025 53.3542ZM52.1665 53.347V53.3252C52.1593 52.0853 51.1369 51.0628 49.8969 51.0628C48.6497 51.0628 47.6273 52.0853 47.6273 53.3324V53.3542C47.6346 54.5941 48.657 55.6166 49.8969 55.6166C51.1441 55.6166 52.1665 54.5941 52.1665 53.347ZM48.918 51.991H50.0637C50.3393 51.9765 50.6148 52.078 50.8251 52.2593C50.9628 52.3898 51.0354 52.5711 51.0354 52.7524V52.7669C51.0354 53.1802 50.7598 53.4267 50.3755 53.521L51.1659 54.5506H50.6946L49.9549 53.5862H49.3023V54.5506H48.9253L48.918 51.991ZM21.9221 53.898H18.9636V51.4326H21.9221C24.0902 51.4326 23.9597 53.898 21.9221 53.898ZM32.0302 53.898H29.079V51.4326H32.0302C34.1983 51.4326 34.0677 53.898 32.0302 53.898ZM39.187 51.4326V53.898H42.1382C44.1758 53.898 44.3063 51.4326 42.1382 51.4326H39.187ZM50.0275 53.2454C50.3828 53.2454 50.6366 53.0787 50.6366 52.7886V52.7741C50.6366 52.5058 50.419 52.3318 50.0492 52.3318H49.2951V53.2454H50.0275ZM18.9636 47.1907H21.6176C23.2708 47.1907 23.3288 49.4966 21.7191 49.4966H18.9636V47.1907ZM39.1943 47.1907H41.8264C43.4797 47.1907 43.5377 49.4966 41.9279 49.4966H39.1798L39.1943 47.1907ZM29.0862 47.1907H31.7329C33.3861 47.1907 33.4441 49.4966 31.8344 49.4966H29.079L29.0862 47.1907ZM21.5523 40.2804H26.4758L27.3532 43.2679H35.4019L36.2793 40.2804H41.2028L40.5575 38.0833H22.1976L21.5523 40.2804ZM27.5127 22.5804L25.1271 25.8724C23.9307 27.5184 24.3005 30.4406 25.932 31.6153L30.3552 34.8058C31.1165 35.3569 31.1745 35.9007 30.812 36.4735L31.4573 36.9521L33.6979 33.8486C35.0829 31.9271 34.9596 29.3239 32.9076 27.8229L28.4409 24.5672C27.9115 24.1756 27.8535 23.6318 28.1436 23.0299L27.5127 22.5804ZM31.3413 8.04907L27.6287 13.1901C25.8885 15.5975 26.5193 19.7089 28.8977 21.4637L35.0031 25.9449C36.2431 26.8513 36.4026 29.1716 35.5035 30.3536L36.0183 30.7451L40.2312 24.821C42.1237 22.1598 42.015 18.2224 39.042 16.0688L32.5087 11.3193C31.5951 10.6595 31.1383 9.52831 31.8996 8.44789L31.3413 8.04907Z" fill="#015A75"/>
</svg>
