<svg width="64" height="64" viewBox="0 0 64 64" fill="none" xmlns="http://www.w3.org/2000/svg">
<g clip-path="url(#clip0_475_2824)">
<rect width="64" height="64" fill="white"/>
<path d="M29.8571 2.11912C31.0444 0.944955 32.9556 0.944956 34.1429 2.11913L35.8884 3.84526C36.7561 4.70329 38.0519 4.96104 39.1819 4.50037L41.4551 3.57361C43.0014 2.9432 44.7671 3.67456 45.4147 5.21373L46.3668 7.47645C46.8401 8.60121 47.9386 9.33523 49.1589 9.34205L51.6137 9.35575C53.2835 9.36508 54.6349 10.7165 54.6442 12.3863L54.658 14.8411C54.6648 16.0614 55.3988 17.1599 56.5235 17.6332L58.7863 18.5853C60.3254 19.2329 61.0568 20.9986 60.4264 22.5449L59.4996 24.8181C59.039 25.9481 59.2967 27.2439 60.1547 28.1116L61.8809 29.8571C63.055 31.0444 63.055 32.9556 61.8809 34.1429L60.1547 35.8884C59.2967 36.7561 59.039 38.0519 59.4996 39.1819L60.4264 41.4551C61.0568 43.0014 60.3254 44.7671 58.7863 45.4147L56.5235 46.3668C55.3988 46.8401 54.6648 47.9386 54.658 49.1589L54.6442 51.6137C54.6349 53.2835 53.2835 54.6349 51.6137 54.6442L49.1589 54.658C47.9386 54.6648 46.8401 55.3988 46.3668 56.5235L45.4147 58.7863C44.7671 60.3254 43.0014 61.0568 41.4551 60.4264L39.1819 59.4996C38.0519 59.039 36.7561 59.2967 35.8884 60.1547L34.1429 61.8809C32.9556 63.055 31.0444 63.055 29.8571 61.8809L28.1116 60.1547C27.2439 59.2967 25.9481 59.039 24.8181 59.4996L22.5449 60.4264C20.9986 61.0568 19.2329 60.3254 18.5853 58.7863L17.6332 56.5235C17.1599 55.3988 16.0614 54.6648 14.8411 54.658L12.3863 54.6442C10.7165 54.6349 9.36508 53.2835 9.35575 51.6137L9.34205 49.1589C9.33523 47.9386 8.60121 46.8401 7.47645 46.3668L5.21373 45.4147C3.67456 44.7671 2.9432 43.0014 3.57361 41.4551L4.50037 39.1819C4.96104 38.0519 4.70329 36.7561 3.84526 35.8884L2.11912 34.1429C0.944955 32.9556 0.944956 31.0444 2.11913 29.8571L3.84526 28.1116C4.70329 27.2439 4.96104 25.9481 4.50037 24.8181L3.57361 22.5449C2.9432 20.9986 3.67456 19.2329 5.21373 18.5853L7.47645 17.6332C8.60121 17.1599 9.33523 16.0614 9.34205 14.8411L9.35575 12.3863C9.36508 10.7165 10.7165 9.36508 12.3863 9.35575L14.8411 9.34205C16.0614 9.33523 17.1599 8.60121 17.6332 7.47645L18.5853 5.21373C19.2329 3.67456 20.9986 2.9432 22.5449 3.57361L24.8181 4.50037C25.9481 4.96104 27.2439 4.70329 28.1116 3.84526L29.8571 2.11912Z" fill="#06BF00"/>
<path d="M29.8571 2.11912C31.0444 0.944955 32.9556 0.944956 34.1429 2.11913L35.8884 3.84526C36.7561 4.70329 38.0519 4.96104 39.1819 4.50037L41.4551 3.57361C43.0014 2.9432 44.7671 3.67456 45.4147 5.21373L46.3668 7.47645C46.8401 8.60121 47.9386 9.33523 49.1589 9.34205L51.6137 9.35575C53.2835 9.36508 54.6349 10.7165 54.6442 12.3863L54.658 14.8411C54.6648 16.0614 55.3988 17.1599 56.5235 17.6332L58.7863 18.5853C60.3254 19.2329 61.0568 20.9986 60.4264 22.5449L59.4996 24.8181C59.039 25.9481 59.2967 27.2439 60.1547 28.1116L61.8809 29.8571C63.055 31.0444 63.055 32.9556 61.8809 34.1429L60.1547 35.8884C59.2967 36.7561 59.039 38.0519 59.4996 39.1819L60.4264 41.4551C61.0568 43.0014 60.3254 44.7671 58.7863 45.4147L56.5235 46.3668C55.3988 46.8401 54.6648 47.9386 54.658 49.1589L54.6442 51.6137C54.6349 53.2835 53.2835 54.6349 51.6137 54.6442L49.1589 54.658C47.9386 54.6648 46.8401 55.3988 46.3668 56.5235L45.4147 58.7863C44.7671 60.3254 43.0014 61.0568 41.4551 60.4264L39.1819 59.4996C38.0519 59.039 36.7561 59.2967 35.8884 60.1547L34.1429 61.8809C32.9556 63.055 31.0444 63.055 29.8571 61.8809L28.1116 60.1547C27.2439 59.2967 25.9481 59.039 24.8181 59.4996L22.5449 60.4264C20.9986 61.0568 19.2329 60.3254 18.5853 58.7863L17.6332 56.5235C17.1599 55.3988 16.0614 54.6648 14.8411 54.658L12.3863 54.6442C10.7165 54.6349 9.36508 53.2835 9.35575 51.6137L9.34205 49.1589C9.33523 47.9386 8.60121 46.8401 7.47645 46.3668L5.21373 45.4147C3.67456 44.7671 2.9432 43.0014 3.57361 41.4551L4.50037 39.1819C4.96104 38.0519 4.70329 36.7561 3.84526 35.8884L2.11912 34.1429C0.944955 32.9556 0.944956 31.0444 2.11913 29.8571L3.84526 28.1116C4.70329 27.2439 4.96104 25.9481 4.50037 24.8181L3.57361 22.5449C2.9432 20.9986 3.67456 19.2329 5.21373 18.5853L7.47645 17.6332C8.60121 17.1599 9.33523 16.0614 9.34205 14.8411L9.35575 12.3863C9.36508 10.7165 10.7165 9.36508 12.3863 9.35575L14.8411 9.34205C16.0614 9.33523 17.1599 8.60121 17.6332 7.47645L18.5853 5.21373C19.2329 3.67456 20.9986 2.9432 22.5449 3.57361L24.8181 4.50037C25.9481 4.96104 27.2439 4.70329 28.1116 3.84526L29.8571 2.11912Z" fill="#3B6B44"/>
<circle cx="31.9979" cy="32.0008" r="23.2381" fill="#4E995C"/>
<path d="M24.1461 50.3875L24.7414 49.1221L22.9188 49.8101L22.2814 49.5102L24.3891 48.7472L23.7646 46.3328L24.4116 46.6372L24.8813 48.5779L25.0212 48.5275L25.6389 47.2146L26.1241 47.4429L24.6313 50.6158L24.1461 50.3875ZM19.6706 47.7501L19.9641 47.3396L21.1017 48.1529L21.6184 47.4302L20.5151 46.6413L20.8086 46.2308L21.912 47.0196L22.5541 46.1216L21.4165 45.3082L21.7101 44.8977L23.2838 46.0229L21.2444 48.8753L19.6706 47.7501ZM17.2642 45.5107L17.6197 45.1524L18.6124 46.1373L19.2381 45.5066L18.2753 44.5513L18.6307 44.193L19.5936 45.1483L20.3711 44.3646L19.3784 43.3797L19.7339 43.0214L21.1073 44.384L18.6376 46.8732L17.2642 45.5107ZM18.9415 41.9601L19.2371 42.4076L16.1138 44.4705L16.9355 40.8784L14.9088 42.217L14.6133 41.7695L17.7191 39.7182L16.8974 43.3103L18.9415 41.9601ZM14.9979 40.1108L13.5596 40.1564L13.5374 39.6609L14.9884 39.7361L14.9979 40.1108ZM13.088 36.4524L13.4483 36.7984C13.3769 36.855 13.3205 36.9257 13.2789 37.0103C13.2266 37.1344 13.2206 37.2673 13.2607 37.4089C13.3037 37.5606 13.3759 37.6677 13.4774 37.73C13.5779 37.7889 13.6854 37.8022 13.8001 37.7697C13.9754 37.72 14.0776 37.5599 14.1066 37.2894L14.1471 36.9118C14.2129 36.3213 14.4683 35.9629 14.9134 35.8368C15.2337 35.746 15.5242 35.7748 15.7848 35.9231C16.0411 36.0691 16.2142 36.3005 16.304 36.6175C16.3967 36.9446 16.3587 37.2413 16.1901 37.5076C16.0515 37.7254 15.8591 37.8819 15.6129 37.9772L15.3568 37.4979C15.5187 37.452 15.6486 37.3642 15.7466 37.2344C15.8509 37.0883 15.8768 36.9225 15.8242 36.737C15.7793 36.5786 15.6898 36.4619 15.5556 36.387C15.4205 36.3087 15.2687 36.2934 15.1001 36.3412C14.945 36.3852 14.8382 36.4646 14.7797 36.5795C14.7202 36.6911 14.6807 36.828 14.6611 36.9902L14.6162 37.3526C14.554 37.8657 14.3341 38.1757 13.9564 38.2827C13.7136 38.3515 13.4797 38.3231 13.2547 38.1974C13.0287 38.0684 12.8727 37.8522 12.7867 37.5487C12.7093 37.2756 12.7211 37.0281 12.8222 36.8064C12.887 36.6751 12.9756 36.5571 13.088 36.4524ZM12.1149 33.5727L12.1002 33.0419C12.0936 32.8037 12.1076 32.6105 12.1421 32.4623C12.1765 32.314 12.2448 32.1824 12.3468 32.0674C12.5168 31.8769 12.7455 31.7777 13.0328 31.7697C13.1974 31.7652 13.3368 31.7964 13.4508 31.8634C13.5612 31.9234 13.6442 32.0088 13.6998 32.1195C13.7403 31.936 13.8203 31.7831 13.9396 31.6606C14.0965 31.5019 14.3133 31.4188 14.5901 31.4112C14.8458 31.4041 15.0582 31.4754 15.2271 31.625C15.4608 31.8359 15.5837 32.1603 15.5958 32.5983L15.6201 33.4759L12.1149 33.5727ZM12.6046 33.0227L13.6083 32.995L13.6038 32.8321C13.5984 32.6359 13.5488 32.4918 13.4551 32.3997C13.365 32.311 13.2306 32.2692 13.052 32.2741C12.9083 32.2781 12.7974 32.3232 12.7191 32.4095C12.634 32.503 12.5942 32.6461 12.5995 32.8388L12.6046 33.0227ZM14.0497 32.9828L15.1008 32.9538L15.0918 32.628C15.0851 32.3862 15.0347 32.2106 14.9405 32.101C14.8462 31.9879 14.715 31.9336 14.5468 31.9383C14.3962 31.9425 14.2748 31.9931 14.1829 32.0903C14.0808 32.2019 14.0333 32.3872 14.0404 32.6465L14.0497 32.9828ZM12.1692 30.0179L12.2607 29.4895L14.3431 29.8501C14.6124 29.8967 14.8173 29.8949 14.9576 29.8445C15.0645 29.8025 15.164 29.7308 15.2563 29.6294C15.3451 29.5274 15.4017 29.4056 15.4262 29.264C15.4508 29.1224 15.4384 28.9887 15.389 28.8628C15.3362 28.7362 15.2666 28.6353 15.18 28.5598C15.0648 28.4652 14.8725 28.3945 14.6032 28.3479L12.5208 27.9873L12.6123 27.4589L14.8345 27.8437C15.1971 27.9065 15.4773 28.0653 15.6751 28.3201C15.9014 28.6153 15.9807 28.9581 15.9132 29.3483C15.8456 29.7386 15.6556 30.0347 15.3432 30.2367C15.0713 30.4101 14.754 30.4655 14.3914 30.4027L12.1692 30.0179ZM12.9566 26.0505L13.1243 25.5412L16.455 26.6375L16.2873 27.1468L12.9566 26.0505ZM13.6123 24.2873L13.8374 23.8006L16.562 25.0606L16.9945 24.1254L17.4526 24.3372L16.795 25.7592L13.6123 24.2873ZM14.8764 21.8394L15.2928 21.2325C15.4494 21.0042 15.6065 20.8187 15.7639 20.676C15.9185 20.5312 16.1012 20.4228 16.3122 20.3508C16.566 20.2657 16.8269 20.2449 17.0946 20.2883C17.3643 20.3288 17.6191 20.4314 17.859 20.596C18.3647 20.9429 18.6206 21.4033 18.6265 21.9769C18.6293 22.2083 18.5939 22.4178 18.5205 22.6054C18.447 22.793 18.3329 22.9995 18.1783 23.225L17.7678 23.8232L14.8764 21.8394ZM15.5959 21.6828L17.655 23.0955L17.7859 22.9048C18.0119 22.5753 18.1195 22.273 18.1086 21.9977C18.0896 21.5979 17.9053 21.278 17.5556 21.0381C17.3764 20.9152 17.1874 20.8407 16.9884 20.8148C16.7915 20.7859 16.6139 20.8 16.4556 20.8572C16.1958 20.951 15.9528 21.1626 15.7268 21.4921L15.5959 21.6828ZM17.2306 18.5936L17.5977 18.2028L20.1534 20.6037L19.7862 20.9945L17.2306 18.5936ZM21.2709 19.6411L20.8451 19.9671L18.5696 16.9952L22.2102 17.5646L20.7336 15.6361L21.1594 15.3101L23.4222 18.2654L19.7815 17.696L21.2709 19.6411ZM25.2299 15.6793L25.0354 15.225L26.3644 14.6559L26.3747 14.6801C26.6148 15.2407 26.6416 15.7439 26.4551 16.1898C26.2888 16.585 25.9818 16.8786 25.5339 17.0703C25.0861 17.2621 24.6577 17.2721 24.2486 17.1003C23.7889 16.9083 23.4556 16.5706 23.2487 16.0874C23.1452 15.8457 23.0921 15.6016 23.0894 15.3549C23.0853 15.105 23.1229 14.8812 23.2021 14.6833C23.285 14.4762 23.4125 14.2844 23.5847 14.1077C23.7587 13.9264 23.9665 13.7841 24.2082 13.6806C24.5271 13.544 24.8364 13.4916 25.136 13.5235C25.4121 13.5539 25.655 13.6405 25.8649 13.7832L25.5914 14.2263C25.4064 14.1149 25.2219 14.049 25.0378 14.0287C24.8399 14.0029 24.6298 14.0376 24.4075 14.1328C24.0628 14.2804 23.8269 14.513 23.6998 14.8305C23.639 14.9823 23.6125 15.1519 23.6202 15.3392C23.628 15.5265 23.6692 15.7071 23.7437 15.8811C23.8913 16.2258 24.1273 16.4698 24.4517 16.613C24.7471 16.742 25.0623 16.7347 25.3974 16.5912C25.6841 16.4684 25.8835 16.2706 25.9954 15.9977C26.087 15.7755 26.0993 15.5548 26.0321 15.3358L25.2299 15.6793ZM28.5052 12.3728L29.0825 12.3385L30.1453 14.6242L30.9408 12.0595L32.003 14.5137L32.819 12.1164L33.3962 12.082L32.0539 15.901L30.9932 13.4731L30.2172 16.0102L28.5052 12.3728ZM36.2562 16.142L36.0588 15.2404L34.5888 14.9506L34.0486 15.7068L33.4812 15.595L35.9115 12.2911L36.8235 16.2539L36.2562 16.142ZM34.9031 14.4982L35.945 14.7036L35.6641 13.4372L34.9031 14.4982ZM38.6542 13.1893L39.2333 13.4258C39.6162 13.5822 39.8759 13.762 40.0124 13.9654C40.1985 14.2421 40.2227 14.5491 40.0849 14.8866C39.9908 15.1169 39.8442 15.2861 39.6449 15.394C39.4489 15.5032 39.2322 15.5378 38.9949 15.4977L39.4409 17.2982L38.8422 17.0537L38.4552 15.3454L38.3676 15.3097L37.825 16.6384L37.3286 16.4357L38.6542 13.1893ZM38.9638 13.8496L38.5425 14.8814L38.6982 14.945C38.7404 14.9622 38.7832 14.9778 38.8267 14.9918C38.8702 15.0057 38.9317 15.0176 39.011 15.0273C39.0936 15.0383 39.1674 15.0381 39.2326 15.0269C39.3023 15.0137 39.3713 14.9794 39.4393 14.9239C39.5107 14.8698 39.5662 14.794 39.6059 14.6967C39.7424 14.3625 39.5851 14.1033 39.1341 13.9191L38.9638 13.8496ZM41.8512 14.6294L42.3811 14.962C42.7314 15.1819 42.9563 15.4038 43.0557 15.6276C43.1915 15.9321 43.1625 16.2388 42.9687 16.5475C42.8364 16.7582 42.6628 16.8996 42.4479 16.9716C42.236 17.0455 42.0167 17.0423 41.7898 16.962L41.9194 18.8123L41.3717 18.4686L41.2843 16.7191L41.2042 16.6688L40.4411 17.8844L39.987 17.5993L41.8512 14.6294ZM42.0427 15.3331L41.4501 16.277L41.5926 16.3665C41.6312 16.3907 41.6707 16.4134 41.7112 16.4347C41.7516 16.4559 41.8101 16.4781 41.8866 16.5013C41.966 16.5264 42.0388 16.539 42.1049 16.5391C42.1759 16.5381 42.2497 16.5162 42.3263 16.4732C42.4059 16.4321 42.4736 16.3671 42.5295 16.278C42.7215 15.9723 42.6111 15.6899 42.1985 15.4309L42.0427 15.3331ZM44.1512 20.894L44.4713 20.0283L43.3897 18.9915L42.5269 19.3369L42.1095 18.9367L45.9379 17.4652L44.5686 21.2941L44.1512 20.894ZM43.8983 18.7799L44.6649 19.5148L45.1114 18.297L43.8983 18.7799ZM45.1801 22.1766L44.8858 21.7284L48.0146 19.6739L47.1832 23.2638L49.2135 21.9306L49.5078 22.3789L46.3965 24.4219L47.2279 20.832L45.1801 22.1766ZM50.4632 25.6573L50.164 24.9107L47.3776 26.0273L47.1782 25.5295L49.9646 24.4129L49.6654 23.6663L50.1339 23.4786L50.9317 25.4696L50.4632 25.6573ZM48.0295 28.1432L49.5063 27.8093L51.1957 26.2468L51.3302 26.8416L50.1397 27.9409L51.6874 28.421L51.8219 29.0158L49.6245 28.3323L48.1478 28.6663L48.0295 28.1432ZM52.0642 31.6047L52.0684 32.1409L48.562 32.1685L48.5578 31.6322L52.0642 31.6047ZM48.4074 33.6362L48.4963 33.1074L52.1876 33.7284L49.137 35.7954L51.5321 36.1984L51.4432 36.7272L47.7727 36.1097L50.8233 34.0427L48.4074 33.6362ZM49.8451 40.6938L49.2602 40.4575C49.6083 40.2882 49.8474 40.0427 49.9774 39.721C50.1192 39.37 50.1177 39.0368 49.973 38.7213C49.8303 38.4103 49.5785 38.182 49.2178 38.0363C48.8701 37.8958 48.534 37.8904 48.2094 38.0201C47.8881 38.1511 47.6579 38.3888 47.5187 38.7333C47.3887 39.055 47.3957 39.398 47.5396 39.7623L46.9498 39.524C46.8976 39.1854 46.9365 38.8553 47.0664 38.5335C47.2489 38.0819 47.5533 37.7588 47.9796 37.5644C48.4451 37.348 48.9248 37.3395 49.4187 37.5391C49.9386 37.7492 50.2925 38.0943 50.4802 38.5747C50.6421 38.9878 50.6253 39.4365 50.4296 39.9207C50.2944 40.2554 50.0996 40.5131 49.8451 40.6938ZM49.4133 41.9553L49.1333 42.4126L46.5732 40.8452L46.0352 41.724L45.6047 41.4605L46.4227 40.1244L49.4133 41.9553ZM47.861 44.2517L47.5065 44.654L45.921 43.2566C45.716 43.0758 45.5404 42.9702 45.3945 42.9396C45.2815 42.9194 45.1591 42.9284 45.0274 42.9665C44.8984 43.0069 44.7863 43.081 44.6913 43.1888C44.5963 43.2966 44.5369 43.4171 44.513 43.5502C44.4917 43.6856 44.4982 43.8081 44.5324 43.9177C44.581 44.0587 44.7079 44.2195 44.913 44.4003L46.4984 45.7977L46.1438 46.2L44.4519 44.7087C44.1758 44.4654 44.0202 44.1834 43.9851 43.8628C43.9469 43.4928 44.0587 43.1592 44.3206 42.8621C44.5825 42.565 44.8994 42.4121 45.2713 42.4036C45.5938 42.3982 45.893 42.5171 46.1691 42.7604L47.861 44.2517ZM44.8994 47.3502L44.3052 47.7845C44.0816 47.9479 43.8719 48.0708 43.676 48.1532C43.4822 48.2384 43.2738 48.28 43.0509 48.278C42.7832 48.274 42.5303 48.207 42.2921 48.0772C42.0512 47.9495 41.8448 47.7682 41.6732 47.5333C41.3113 47.0381 41.2227 46.519 41.4074 45.9759C41.4817 45.7567 41.5845 45.5708 41.7161 45.4182C41.8477 45.2656 42.0238 45.1087 42.2445 44.9473L42.8302 44.5193L44.8994 47.3502ZM44.1686 47.2592L42.6951 45.2431L42.5084 45.3796C42.1858 45.6154 41.984 45.8649 41.9029 46.1282C41.7881 46.5116 41.8559 46.8745 42.1061 47.2169C42.2343 47.3923 42.388 47.5253 42.567 47.6159C42.7432 47.7085 42.9154 47.754 43.0837 47.7526C43.3599 47.7504 43.6593 47.6314 43.9819 47.3957L44.1686 47.2592ZM39.738 50.5036L39.5212 50.0479L40.7841 49.4473L40.4025 48.645L39.1776 49.2275L38.9609 48.7717L40.1858 48.1892L39.7116 47.1922L38.4488 47.7928L38.232 47.337L39.9791 46.5061L41.4851 49.6728L39.738 50.5036ZM38.3849 50.9954L37.6735 51.184C37.4059 51.2549 37.1658 51.2932 36.9534 51.2987C36.7418 51.3077 36.5326 51.2707 36.3257 51.1877C36.0777 51.0867 35.8664 50.9324 35.6918 50.7249C35.5137 50.5183 35.3874 50.2744 35.3129 49.9932C35.1557 49.4003 35.2619 48.8845 35.6315 48.4457C35.7803 48.2685 35.9437 48.1327 36.1218 48.0384C36.2998 47.9441 36.521 47.8619 36.7852 47.7918L37.4865 47.606L38.3849 50.9954ZM37.7373 50.645L37.0975 48.2312L36.8739 48.2905C36.4877 48.3928 36.2089 48.5519 36.0377 48.7677C35.7914 49.0832 35.7226 49.4459 35.8312 49.8558C35.8869 50.0658 35.9817 50.2456 36.1156 50.395C36.246 50.5453 36.3899 50.6504 36.5472 50.7103C36.8053 50.8086 37.1275 50.8066 37.5137 50.7042L37.7373 50.645Z" fill="white"/>
<circle cx="12.8" cy="12.8" r="12.8" transform="matrix(1 0 0 -1 19.1992 44.7998)" fill="#3B6B44"/>
<path d="M26 32.3712L30.4903 37.1998L37.6 26.7998" stroke="white" stroke-width="2"/>
</g>
<defs>
<clipPath id="clip0_475_2824">
<rect width="64" height="64" fill="white"/>
</clipPath>
</defs>
</svg>
