<svg width="64" height="64" viewBox="0 0 64 64" fill="none" xmlns="http://www.w3.org/2000/svg">
<rect width="64" height="64" fill="white"/>
<path d="M11 61.25H53C54.7949 61.25 56.25 59.7949 56.25 58V27C56.25 13.6071 45.3929 2.75 32 2.75C18.6071 2.75 7.75 13.6071 7.75 27V58C7.75 59.7949 9.20507 61.25 11 61.25Z" fill="#143673" stroke="#3763B2" stroke-width="1.5"/>
<path d="M40.7511 28.1944C40.7511 27.475 40.6915 26.95 40.5626 26.4055H32.1797V29.6527H37.1003C37.0011 30.4597 36.4654 31.675 35.2749 32.4916L35.2582 32.6003L37.9087 34.6126L38.0924 34.6305C39.7788 33.1041 40.7511 30.8583 40.7511 28.1944Z" fill="white"/>
<path d="M32.1793 36.75C34.59 36.75 36.6138 35.9722 38.092 34.6305L35.2745 32.4916C34.5206 33.0068 33.5086 33.3666 32.1793 33.3666C29.8182 33.3666 27.8143 31.8402 27.0999 29.7305L26.9952 29.7392L24.2392 31.8295L24.2031 31.9277C25.6714 34.786 28.6872 36.75 32.1793 36.75Z" fill="white"/>
<path d="M27.1001 29.7305C26.9117 29.186 26.8026 28.6027 26.8026 27.9999C26.8026 27.3971 26.9117 26.8138 27.0902 26.2694L27.0852 26.1534L24.2946 24.0295L24.2033 24.0721C23.5982 25.2582 23.251 26.5902 23.251 27.9999C23.251 29.4096 23.5982 30.7415 24.2033 31.9277L27.1001 29.7305Z" fill="white"/>
<path d="M32.1794 22.6333C33.8559 22.6333 34.9868 23.343 35.6317 23.9361L38.1516 21.525C36.604 20.1153 34.59 19.25 32.1794 19.25C28.6873 19.25 25.6714 21.2139 24.2031 24.0722L27.09 26.2694C27.8143 24.1597 29.8183 22.6333 32.1794 22.6333Z" fill="white"/>
<path d="M20.3469 52.6328H21.6281V54.2891H20.3469V56H18.5266V54.2891H12.6047L20.3469 43.0391V52.6328ZM18.5266 52.6328V48.5938L15.7453 52.6328H18.5266ZM22.9141 55.125C22.9141 54.8333 23.0208 54.5807 23.2344 54.3672C23.4479 54.1536 23.7031 54.0469 24 54.0469C24.2969 54.0469 24.5521 54.1536 24.7656 54.3672C24.9792 54.5807 25.0859 54.8359 25.0859 55.1328C25.0859 55.4349 24.9792 55.6927 24.7656 55.9062C24.5573 56.1146 24.3021 56.2188 24 56.2188C23.6927 56.2188 23.4349 56.1146 23.2266 55.9062C23.0182 55.6979 22.9141 55.4375 22.9141 55.125ZM28.45 49.7266C27.5646 49.1016 27.1219 48.25 27.1219 47.1719C27.1219 46.1927 27.4578 45.375 28.1297 44.7188C28.8068 44.0625 29.6479 43.7344 30.6531 43.7344C31.6531 43.7344 32.4865 44.0625 33.1531 44.7188C33.8198 45.3698 34.1531 46.1901 34.1531 47.1797C34.1531 48.2161 33.713 49.0625 32.8328 49.7188C33.3172 49.9792 33.6974 50.3594 33.9734 50.8594C34.2547 51.3594 34.3953 51.9219 34.3953 52.5469C34.3953 53.6146 34.0464 54.4896 33.3484 55.1719C32.6505 55.8542 31.7573 56.1953 30.6687 56.1953C29.5542 56.1953 28.6349 55.8516 27.9109 55.1641C27.1818 54.4766 26.8172 53.612 26.8172 52.5703C26.8172 51.2161 27.3615 50.2682 28.45 49.7266ZM28.8328 47.1641C28.8328 47.6797 29.0073 48.112 29.3562 48.4609C29.7104 48.8151 30.1375 48.9922 30.6375 48.9922C31.1323 48.9922 31.5568 48.8151 31.9109 48.4609C32.2651 48.1068 32.4422 47.6823 32.4422 47.1875C32.4422 46.6927 32.2651 46.2682 31.9109 45.9141C31.5568 45.5599 31.1323 45.3828 30.6375 45.3828C30.1427 45.3828 29.7182 45.5599 29.3641 45.9141C29.0099 46.2682 28.8328 46.6849 28.8328 47.1641ZM28.6062 52.5078C28.6062 53.0651 28.799 53.5443 29.1844 53.9453C29.575 54.3411 30.049 54.5391 30.6062 54.5391C31.1583 54.5391 31.6297 54.3438 32.0203 53.9531C32.4109 53.5573 32.6062 53.0833 32.6062 52.5312C32.6062 51.974 32.4109 51.5 32.0203 51.1094C31.6297 50.7188 31.1583 50.5234 30.6062 50.5234C30.0594 50.5234 29.588 50.7188 29.1922 51.1094C28.8016 51.5 28.6062 51.9661 28.6062 52.5078Z" fill="#FFE47D"/>
<path fill-rule="evenodd" clip-rule="evenodd" d="M45.003 43L46.9591 48.0468L45.003 50.739L52.3633 48.3475L48.1679 51.7673L45.003 50.739L49.5519 57L45.003 54.0668V50.739L40.4542 57L41.8381 51.7673L45.003 50.739L37.6428 48.3475L43.047 48.0468L45.003 50.739V43Z" fill="#FFE47D"/>
<path d="M43.047 48.0468L45.003 43V50.739L43.047 48.0468Z" fill="#FFE47D"/>
<path d="M41.8381 51.7673L37.6428 48.3475L45.003 50.739L41.8381 51.7673Z" fill="#FFE47D"/>
<path d="M45.003 54.0668L40.4542 57L45.003 50.739V54.0668Z" fill="#FFE47D"/>
<path d="M48.1679 51.7673L49.5519 57L45.003 50.739L48.1679 51.7673Z" fill="#FFE47D"/>
<path d="M46.9591 48.0468L52.3633 48.3475L45.003 50.739L46.9591 48.0468Z" fill="#FFE47D"/>
<path fill-rule="evenodd" clip-rule="evenodd" d="M45.003 43L46.9591 48.0468L45.003 50.739L52.3633 48.3475L48.1679 51.7673L45.003 50.739L49.5519 57L45.003 54.0668V50.739L40.4542 57L41.8381 51.7673L45.003 50.739L37.6428 48.3475L43.047 48.0468L45.003 50.739V43Z" fill="#EBA839"/>
<path d="M14.8163 26.2166L14.1683 26.1889L14.2494 24.2931L14.2839 24.2946C15.0836 24.3288 15.6943 24.5828 16.116 25.0567C16.4893 25.4778 16.6623 26.0078 16.635 26.6466C16.6077 27.2855 16.3762 27.7981 15.9407 28.1847C15.4525 28.6196 14.8637 28.8223 14.1743 28.7928C13.8296 28.7781 13.5106 28.7023 13.2171 28.5654C12.9191 28.4283 12.6755 28.2568 12.4864 28.0507C12.2884 27.835 12.1338 27.5752 12.0225 27.2711C11.9068 26.9623 11.8563 26.6356 11.871 26.2909C11.8905 25.8359 12.0041 25.4402 12.2119 25.1038C12.4047 24.7943 12.6451 24.556 12.9331 24.3887L13.3022 24.9639C13.0653 25.1195 12.8826 25.3005 12.7541 25.5068C12.6112 25.7263 12.5329 25.9946 12.5193 26.3117C12.4983 26.8034 12.6396 27.2147 12.9431 27.5453C13.0883 27.7035 13.2739 27.8311 13.4999 27.9283C13.726 28.0254 13.9631 28.0793 14.2113 28.09C14.703 28.111 15.1257 27.9702 15.4794 27.6677C15.7997 27.3913 15.9701 27.0142 15.9905 26.5362C16.008 26.1272 15.8871 25.779 15.6277 25.4916C15.4168 25.257 15.1626 25.1172 14.8653 25.0723L14.8163 26.2166ZM13.182 21.7294C12.9281 21.1375 12.9283 20.5234 13.1827 19.8869C13.437 19.2504 13.8601 18.8052 14.452 18.5513C15.0439 18.2975 15.6559 18.2968 16.2881 18.5494C16.9203 18.8021 17.3633 19.2243 17.6172 19.8162C17.8711 20.4081 17.8709 21.0222 17.6166 21.6587C17.3622 22.2952 16.9391 22.7404 16.3473 22.9943C15.7554 23.2481 15.1433 23.2488 14.5112 22.9962C13.879 22.7435 13.4359 22.3213 13.182 21.7294ZM16.1151 22.3665C16.5319 22.1912 16.8316 21.8751 17.0143 21.418C17.1969 20.961 17.1976 20.5253 17.0164 20.1111C16.8309 19.6952 16.5011 19.3925 16.0269 19.203C15.5528 19.0135 15.1073 19.0064 14.6905 19.1817C14.2695 19.3552 13.9676 19.6705 13.785 20.1276C13.6023 20.5846 13.6038 21.0211 13.7893 21.4371C13.9705 21.8513 14.2982 22.1531 14.7723 22.3426C15.2465 22.5321 15.6941 22.54 16.1151 22.3665ZM16.0379 15.7464C15.9943 15.1039 16.1978 14.5244 16.6486 14.0081C17.0993 13.4917 17.6459 13.2118 18.2885 13.1682C18.931 13.1246 19.5088 13.3266 20.0216 13.7743C20.5345 14.222 20.8128 14.7672 20.8564 15.4097C20.9 16.0523 20.6964 16.6317 20.2457 17.1481C19.7949 17.6644 19.2483 17.9444 18.6057 17.988C17.9632 18.0316 17.3855 17.8295 16.8726 17.3818C16.3597 16.9341 16.0815 16.389 16.0379 15.7464ZM18.5946 17.3188C19.0459 17.2914 19.4334 17.0923 19.757 16.7215C20.0807 16.3507 20.2256 15.9399 20.1918 15.489C20.1545 15.0352 19.9435 14.6403 19.5588 14.3045C19.1742 13.9688 18.7562 13.8146 18.3049 13.8419C17.8501 13.8662 17.4609 14.0638 17.1372 14.4346C16.8135 14.8054 16.6703 15.2178 16.7076 15.6716C16.7415 16.1225 16.9507 16.5158 17.3354 16.8516C17.7201 17.1874 18.1398 17.3431 18.5946 17.3188ZM23.4923 12.0584L23.1712 11.4948L24.82 10.5556L24.8371 10.5856C25.2332 11.281 25.3428 11.9333 25.1656 12.5424C25.0074 13.0826 24.6505 13.5108 24.095 13.8273C23.5394 14.1438 22.9821 14.2204 22.4232 14.057C21.7953 13.8747 21.3105 13.4838 20.969 12.8843C20.7982 12.5845 20.6928 12.274 20.6527 11.9527C20.6104 11.6274 20.6262 11.3299 20.7001 11.0601C20.7775 10.7778 20.9154 10.5087 21.1137 10.2527C21.3138 9.99056 21.5637 9.77408 21.8635 9.60332C22.2592 9.37791 22.6547 9.26376 23.0501 9.26087C23.4147 9.25965 23.7444 9.33655 24.0392 9.49157L23.7482 10.1099C23.4905 9.99207 23.2401 9.93353 22.997 9.93434C22.7351 9.93 22.4663 10.0064 22.1905 10.1635C21.7628 10.4071 21.4897 10.7454 21.371 11.1783C21.3142 11.3853 21.3048 11.6104 21.3427 11.8535C21.3806 12.0966 21.461 12.3261 21.5839 12.5419C21.8276 12.9696 22.1715 13.2528 22.6158 13.3914C23.0202 13.5158 23.4302 13.4596 23.8459 13.2228C24.2016 13.0201 24.4322 12.7326 24.5377 12.3602C24.6243 12.0567 24.6075 11.7672 24.4875 11.4914L23.4923 12.0584ZM25.6693 7.7793L26.3494 7.59794L27.3646 11.4048L28.6714 11.0563L28.8421 11.6963L26.8553 12.2262L25.6693 7.7793ZM31.9806 6.81246L32.0146 7.47398L30.1817 7.56834L30.2416 8.7329L32.0194 8.64138L32.0535 9.3029L30.2757 9.39442L30.3502 10.8415L32.1831 10.7471L32.2172 11.4087L29.6813 11.5392L29.4447 6.943L31.9806 6.81246ZM36.6524 7.31588L37.4332 7.56994C37.9494 7.73788 38.3065 7.94843 38.5047 8.20158C38.7749 8.54586 38.8359 8.94546 38.6879 9.40038C38.5868 9.71095 38.4111 9.94642 38.1606 10.1068C37.9144 10.2686 37.6341 10.3346 37.3197 10.3048L38.076 12.6189L37.269 12.3563L36.5986 10.1573L36.4805 10.1188L35.8976 11.9101L35.2284 11.6923L36.6524 7.31588ZM37.121 8.15042L36.6684 9.54143L36.8783 9.60975C36.9352 9.62825 36.9928 9.64457 37.0511 9.6587C37.1093 9.67283 37.1909 9.68242 37.2956 9.68749C37.4048 9.69398 37.5015 9.68674 37.5857 9.66577C37.6757 9.64185 37.7626 9.59031 37.8464 9.51116C37.9346 9.43343 38.0001 9.32895 38.0427 9.19772C38.1893 8.74717 37.9586 8.42298 37.3506 8.22514L37.121 8.15042ZM41.4672 14.6404L41.6611 13.4447L40.0065 12.382L38.9824 13.0445L38.3437 12.6343L42.9038 9.77353L42.1058 15.0506L41.4672 14.6404ZM40.6083 11.9812L41.7811 12.7345L42.0491 11.0533L40.6083 11.9812ZM46.8815 14.3062L46.1544 13.5409L43.2981 16.2547L42.8134 15.7445L45.6696 13.0307L44.9424 12.2654L45.4226 11.8091L47.3618 13.85L46.8815 14.3062ZM48.4273 15.1522L48.82 15.7363L45.0009 18.3044L44.6081 17.7204L48.4273 15.1522ZM45.8909 20.034L45.6425 19.3755L50.2392 17.6419L48.1445 22.0011L51.1272 20.8762L51.3756 21.5347L46.8047 23.2586L48.8994 18.8994L45.8909 20.034ZM49.2487 26.4412L49.8964 26.4076L49.9948 28.3025L49.9604 28.3043C49.161 28.3458 48.5291 28.1506 48.0645 27.7187C47.653 27.3348 47.4307 26.8235 47.3975 26.185C47.3644 25.5464 47.5463 25.0142 47.9433 24.5882C48.3883 24.1091 48.9553 23.8516 49.6444 23.8158C49.9889 23.798 50.3137 23.8433 50.6187 23.9518C50.9284 24.0601 51.1871 24.2079 51.3949 24.3951C51.6123 24.5911 51.7908 24.8352 51.9304 25.1274C52.0747 25.4239 52.1559 25.7444 52.1738 26.0889C52.1974 26.5437 52.1217 26.9484 51.9466 27.3029C51.7839 27.6292 51.5671 27.8892 51.2962 28.0829L50.8744 27.5452C51.0955 27.3679 51.2603 27.1705 51.3688 26.9529C51.4903 26.7209 51.5429 26.4464 51.5264 26.1295C51.5009 25.6379 51.3214 25.2419 50.988 24.9414C50.8285 24.7977 50.6316 24.6881 50.3974 24.6128C50.1632 24.5374 49.922 24.5062 49.674 24.5191C49.1824 24.5446 48.7749 24.7247 48.4515 25.0593C48.1587 25.3647 48.0247 25.7563 48.0495 26.234C48.0708 26.6429 48.2241 26.9781 48.5094 27.2396C48.7416 27.4533 49.0078 27.5684 49.3081 27.5851L49.2487 26.4412Z" fill="white"/>
</svg>
