<svg width="64" height="64" viewBox="0 0 64 64" fill="none" xmlns="http://www.w3.org/2000/svg">
<rect width="64" height="64" fill="white"/>
<g clip-path="url(#clip0_475_2855)">
<rect x="6" y="6" width="52" height="52" rx="7" fill="#0E5A33" stroke="#24AA6E" stroke-width="2"/>
<path d="M33.5 64C29.2821 63.985 25.6387 63.0169 22.5698 61.0957C19.5009 59.1745 17.1349 56.4053 15.472 52.788C13.809 49.1707 12.9851 44.833 13.0002 39.7749C13.0153 34.7017 13.8468 30.394 15.4946 26.8518C17.1576 23.3096 19.516 20.6154 22.5698 18.7692C25.6387 16.9231 29.2821 16 33.5 16C37.7179 16 41.3613 16.9306 44.4302 18.7917C47.4991 20.6379 49.8651 23.3321 51.528 26.8743C53.191 30.4165 54.0149 34.7167 53.9998 39.7749C53.9998 44.863 53.1683 49.2158 51.5054 52.833C49.8424 56.4503 47.4764 59.2195 44.4075 61.1407C41.3537 63.0469 37.7179 64 33.5 64ZM33.5 53.8236C35.677 53.8236 37.4609 52.6979 38.8517 50.4465C40.2577 48.1801 40.9531 44.6229 40.938 39.7749C40.938 36.6079 40.6205 34.0188 39.9856 32.0075C39.3506 29.9962 38.4738 28.5103 37.3551 27.5497C36.2363 26.5741 34.9513 26.0863 33.5 26.0863C31.323 26.0863 29.5467 27.182 28.171 29.3734C26.7952 31.5647 26.0923 35.0319 26.062 39.7749C26.0469 43.0019 26.3568 45.6585 26.9918 47.7448C27.6267 49.8161 28.5036 51.3471 29.6223 52.3377C30.7561 53.3283 32.0487 53.8236 33.5 53.8236Z" fill="white"/>
<rect x="6" y="6" width="52" height="52" rx="7" stroke="#24AA6E" stroke-width="2"/>
<g style="mix-blend-mode:plus-lighter" opacity="0.6">
<path d="M17.1067 19.6789L15.7247 19.2172L14.1427 20.9759L14.7311 22.3201L14.1205 22.9989L11.6066 17.0314L17.7173 19.0001L17.1067 19.6789ZM13.7834 20.1839L14.9047 18.9374L12.9605 18.2938L13.7834 20.1839ZM15.0325 14.0427L16.0049 13.3058C16.4106 12.9983 16.7927 12.8338 17.1512 12.8121C17.4178 12.7975 17.671 12.8521 17.9106 12.976C18.1513 13.0921 18.3519 13.256 18.5123 13.4677C18.8131 13.8646 18.9137 14.2951 18.8142 14.7593C18.719 15.1925 18.4464 15.5795 17.9966 15.9204L17.6923 16.151L19.0508 17.9437L18.3761 18.455L15.0325 14.0427ZM16.1784 14.1532L17.2211 15.5292L17.5254 15.2986C17.8076 15.0847 17.9748 14.8609 18.0267 14.6271C18.0753 14.3889 18.0194 14.164 17.859 13.9523C17.8022 13.8773 17.7377 13.8151 17.6655 13.7657C17.5978 13.7129 17.5068 13.6707 17.3927 13.6392C17.2796 13.5999 17.1446 13.605 16.9877 13.6545C16.8275 13.6996 16.6569 13.7906 16.4761 13.9276L16.1784 14.1532ZM19.2767 11.0998L20.1606 10.6589C20.7448 10.3675 21.2287 10.2467 21.6122 10.2965C22.1343 10.3638 22.5238 10.6549 22.7807 11.1699C22.956 11.5214 23.004 11.8716 22.9244 12.2205C22.8499 12.5669 22.6653 12.8599 22.3706 13.0997L24.9713 14.4458L24.0578 14.9015L21.6277 13.5815L21.494 13.6482L22.5055 15.6759L21.7479 16.0538L19.2767 11.0998ZM20.3826 11.4201L21.168 12.9946L21.4057 12.8761C21.47 12.844 21.5332 12.8094 21.5951 12.7723C21.657 12.7353 21.735 12.6747 21.8291 12.5907C21.9282 12.5041 22.005 12.4164 22.0595 12.3273C22.1165 12.2309 22.1475 12.1134 22.1526 11.9748C22.1626 11.8337 22.1306 11.6889 22.0565 11.5404C21.8021 11.0304 21.3308 10.9471 20.6425 11.2904L20.3826 11.4201Z" fill="url(#paint0_linear_475_2855)"/>
</g>
</g>
<path d="M58 27L27 58H51C54.866 58 58 54.866 58 51V27Z" fill="#24AA6E" stroke="#24AA6E" stroke-width="2"/>
<path d="M46.3341 49.0343C45.6636 49.0343 45.1341 48.8324 44.7455 48.4286C44.4255 48.0857 44.2655 47.6743 44.2655 47.1943C44.2655 46.6686 44.4217 46.2381 44.7341 45.9029C45.0922 45.499 45.6255 45.2971 46.3341 45.2971C47.0274 45.2971 47.5684 45.499 47.957 45.9029C48.277 46.2381 48.437 46.6571 48.437 47.16C48.437 47.6629 48.2732 48.0857 47.9455 48.4286C47.557 48.8324 47.0198 49.0343 46.3341 49.0343ZM46.2998 53L50.7112 45.3771H51.7055L47.2827 53H46.2998ZM46.357 46.3029C46.0979 46.3029 45.8884 46.3905 45.7284 46.5657C45.576 46.7333 45.4998 46.9314 45.4998 47.16C45.4998 47.419 45.5989 47.6362 45.797 47.8114C45.9493 47.9486 46.136 48.0171 46.357 48.0171C46.5855 48.0171 46.7874 47.9371 46.9627 47.7771C47.1303 47.6095 47.2141 47.4038 47.2141 47.16C47.2141 46.9086 47.1227 46.6952 46.9398 46.52C46.7874 46.3752 46.5932 46.3029 46.357 46.3029ZM51.6598 50.36C51.4008 50.36 51.1912 50.4476 51.0312 50.6229C50.8789 50.7905 50.8027 50.9886 50.8027 51.2171C50.8027 51.4762 50.9017 51.6933 51.0998 51.8686C51.2522 52.0057 51.4389 52.0743 51.6598 52.0743C51.8884 52.0743 52.0903 51.9943 52.2655 51.8343C52.4332 51.6667 52.517 51.461 52.517 51.2171C52.517 50.9581 52.4255 50.7448 52.2427 50.5771C52.0903 50.4324 51.896 50.36 51.6598 50.36ZM51.637 53.0914C50.9665 53.0914 50.437 52.8895 50.0484 52.4857C49.7284 52.1429 49.5684 51.7314 49.5684 51.2514C49.5684 50.7257 49.7246 50.2952 50.037 49.96C50.3951 49.5562 50.9284 49.3543 51.637 49.3543C52.3303 49.3543 52.8713 49.5562 53.2598 49.96C53.5798 50.2952 53.7398 50.7143 53.7398 51.2171C53.7398 51.72 53.576 52.1429 53.2484 52.4857C52.8598 52.8895 52.3227 53.0914 51.637 53.0914Z" fill="#0E5A33"/>
<defs>
<linearGradient id="paint0_linear_475_2855" x1="32.5" y1="13" x2="32.5" y2="72" gradientUnits="userSpaceOnUse">
<stop stop-color="white"/>
<stop offset="1" stop-color="white" stop-opacity="0.5"/>
</linearGradient>
<clipPath id="clip0_475_2855">
<rect x="5" y="5" width="54" height="54" rx="6" fill="white"/>
</clipPath>
</defs>
</svg>
