<svg width="64" height="64" viewBox="0 0 64 64" fill="none" xmlns="http://www.w3.org/2000/svg">
<rect width="64" height="64" fill="white"/>
<circle cx="31.9992" cy="31.9999" r="28.5714" fill="#E6BE0A"/>
<path d="M31.9977 58.2853C46.5149 58.2853 58.2835 46.5168 58.2835 31.9996C58.2835 17.4824 46.5149 5.71387 31.9977 5.71387C19.2997 5.71387 8.70459 14.7178 6.24865 26.6894C6.108 27.375 6.6451 27.9996 7.34501 27.9996H26.8549C27.4861 27.9996 27.9977 27.4879 27.9977 26.8567V20.1037C27.9977 19.1433 29.1104 18.6112 29.858 19.2141L44.6089 31.11C45.1761 31.5674 45.1761 32.4318 44.6089 32.8892L29.858 44.7851C29.1105 45.3879 27.9977 44.8558 27.9977 43.8955V36.571C27.9977 35.9398 27.4861 35.4282 26.8549 35.4282H7.23498C6.54518 35.4282 6.01075 36.0356 6.13368 36.7143C8.35526 48.9816 19.09 58.2853 31.9977 58.2853Z" fill="#8E6D00"/>
<path d="M18.7421 46.1332L18.3506 46.5174L17.4221 45.5711L16.7328 46.2474L17.6292 47.1611L17.2377 47.5453L16.3412 46.6316L15.0931 47.8562L14.6849 47.4402L17.4055 44.7708L18.7421 46.1332ZM19.4921 46.7956L20.0382 47.2007C20.3993 47.4685 20.6243 47.7279 20.7132 47.9788C20.8347 48.3203 20.7774 48.6501 20.5414 48.9683C20.3802 49.1856 20.1802 49.3241 19.9413 49.3841C19.7054 49.4463 19.468 49.4243 19.2289 49.3182L19.2134 51.3343L18.6489 50.9156L18.7016 49.0124L18.619 48.9511L17.6896 50.2041L17.2215 49.8569L19.4921 46.7956ZM19.6402 47.5742L18.9185 48.5472L19.0654 48.6562C19.1052 48.6857 19.1461 48.7137 19.1881 48.7401C19.2302 48.7665 19.2917 48.7955 19.3726 48.8271C19.4566 48.861 19.5344 48.8807 19.6061 48.8864C19.683 48.8914 19.7649 48.8738 19.8515 48.8337C19.9412 48.7959 20.0201 48.7311 20.0882 48.6393C20.3219 48.3241 20.2262 48.0088 19.8008 47.6934L19.6402 47.5742ZM24.1262 49.7063L23.8766 50.1948L22.523 49.5034L22.0837 50.3634L23.3966 51.034L23.1471 51.5226L21.8342 50.8519L21.2883 51.9206L22.642 52.612L22.3924 53.1005L20.5197 52.144L22.2534 48.7497L24.1262 49.7063ZM27.1354 50.7568L26.9721 51.2805L25.521 50.8282L25.2336 51.7501L26.6411 52.1889L26.4778 52.7126L25.0703 52.2738L24.7132 53.4195L26.1643 53.8718L26.0011 54.3955L23.9935 53.7697L25.1278 50.131L27.1354 50.7568ZM29.8499 51.2477L30.6495 51.2724C30.9503 51.2818 31.2122 51.3165 31.4352 51.3768C31.6583 51.4332 31.8647 51.5368 32.0545 51.6875C32.2813 51.8699 32.4534 52.0962 32.5708 52.3667C32.6921 52.6372 32.7478 52.9305 32.738 53.2465C32.7174 53.9129 32.4464 54.4171 31.9251 54.7593C31.715 54.8976 31.5026 54.9882 31.2878 55.0311C31.0731 55.074 30.8172 55.0909 30.5202 55.0817L29.732 55.0573L29.8499 51.2477ZM30.4155 51.814L30.3315 54.527L30.5828 54.5348C31.0169 54.5482 31.3567 54.4692 31.6021 54.2976C31.9567 54.0456 32.1412 53.6893 32.1554 53.2285C32.1627 52.9924 32.1199 52.7758 32.0269 52.5785C31.9377 52.3814 31.8205 52.2272 31.6753 52.116C31.437 51.9333 31.1009 51.8352 30.6668 51.8218L30.4155 51.814ZM35.9315 50.9654L36.0156 51.5075L34.5135 51.7404L34.6615 52.6947L36.1183 52.4688L36.2024 53.0109L34.7455 53.2368L34.9294 54.4226L36.4314 54.1897L36.5155 54.7318L34.4374 55.054L33.8535 51.2876L35.9315 50.9654ZM36.9941 50.732L37.5504 50.5583L38.5231 53.6728L39.5922 53.3389L39.7557 53.8625L38.1303 54.3702L36.9941 50.732ZM39.4463 49.9108L39.9788 49.6738L41.5283 53.1561L40.9958 53.393L39.4463 49.9108ZM40.7258 49.3378L41.2574 49.0024L43.5741 50.6826L43.0553 47.8682L43.5869 47.5328L44.3211 51.8667L40.7258 49.3378ZM45.7735 45.6124L46.1444 46.0166L45.0245 47.0443L45.6774 47.7559L46.7637 46.7591L47.1346 47.1632L46.0483 48.16L46.8597 49.0442L47.9796 48.0165L48.3505 48.4207L46.8011 49.8424L44.2241 47.0342L45.7735 45.6124ZM46.5215 44.8232L46.9394 44.2868C47.2157 43.9321 47.4803 43.7133 47.7333 43.6303C48.0776 43.517 48.4059 43.5821 48.7185 43.8256C48.9318 43.9918 49.0657 44.195 49.1199 44.4353C49.1766 44.6726 49.149 44.9095 49.0372 45.1459L51.0524 45.2092L50.6204 45.7636L48.719 45.6659L48.6558 45.747L49.8864 46.7058L49.5282 47.1655L46.5215 44.8232ZM47.3035 44.6935L48.2591 45.438L48.3715 45.2937C48.4019 45.2547 48.4309 45.2144 48.4583 45.173C48.4857 45.1316 48.5162 45.0708 48.5497 44.9907C48.5855 44.9075 48.6071 44.8302 48.6145 44.7587C48.6212 44.6818 48.6056 44.5996 48.5676 44.5121C48.5319 44.4215 48.469 44.3411 48.3788 44.2708C48.0693 44.0297 47.7518 44.118 47.4264 44.5357L47.3035 44.6935ZM52.2766 43.1919L50.823 42.4203L48.3233 42.5103L48.6341 41.9249L50.3943 41.8629L49.4592 40.3703L49.77 39.7848L51.0963 41.9055L52.5499 42.677L52.2766 43.1919ZM54.8638 35.6489L53.882 35.8546L53.5527 37.4496L54.3693 38.0441L54.2422 38.6597L50.6749 35.986L54.9909 35.0333L54.8638 35.6489ZM53.064 37.1036L53.2974 35.9731L51.9182 36.2661L53.064 37.1036ZM55.1164 32.7792L55.1304 33.3619L51.063 33.4594L53.893 30.6251L51.2537 30.6883L51.2398 30.1056L55.2843 30.0087L52.4543 32.843L55.1164 32.7792ZM51.1115 28.8732L50.9201 28.0964C50.8481 27.8042 50.8111 27.5426 50.8092 27.3116C50.8035 27.0815 50.8477 26.8548 50.9418 26.6316C51.0563 26.364 51.228 26.1373 51.4569 25.9514C51.6848 25.7619 51.9523 25.6293 52.2593 25.5536C52.9066 25.3942 53.4652 25.5194 53.935 25.9294C54.1247 26.0945 54.2692 26.2747 54.3683 26.47C54.4674 26.6653 54.5525 26.9072 54.6236 27.1957L54.8123 27.9614L51.1115 28.8732ZM51.5047 28.176L54.1402 27.5267L54.08 27.2825C53.9762 26.8609 53.8086 26.5549 53.5773 26.3647C53.2392 26.091 52.8463 26.0093 52.3987 26.1196C52.1694 26.1761 51.9722 26.2756 51.8073 26.4183C51.6414 26.5573 51.5245 26.7116 51.4565 26.8814C51.3446 27.16 51.3407 27.5102 51.4446 27.9319L51.5047 28.176ZM49.4178 23.4673L49.1489 22.9502L52.5305 21.1918L52.7994 21.7089L49.4178 23.4673ZM51.2018 19.1209L51.5522 19.5866L48.3011 22.0328L48.9534 18.0809L46.8438 19.6682L46.4934 19.2024L49.7262 16.77L49.074 20.7219L51.2018 19.1209ZM44.4705 16.4423L45.0033 16.5469C44.9713 16.6406 44.9612 16.7384 44.9729 16.8402C44.998 16.9844 45.0706 17.1095 45.1905 17.2154C45.319 17.3288 45.4479 17.3843 45.5773 17.3816C45.7038 17.3765 45.81 17.3254 45.8957 17.2283C46.0268 17.0798 46.0262 16.8734 45.8937 16.609L45.7089 16.2399C45.422 15.6613 45.445 15.1835 45.7778 14.8066C46.0174 14.5353 46.2999 14.3909 46.6254 14.3734C46.9455 14.3563 47.2398 14.4662 47.5082 14.7033C47.7852 14.9479 47.9248 15.2415 47.9272 15.5841C47.9284 15.8647 47.8444 16.1209 47.6753 16.3527L47.1595 16.0649C47.2805 15.9279 47.3477 15.7712 47.3611 15.5949C47.3706 15.4 47.2968 15.2332 47.1398 15.0945C47.0056 14.976 46.8551 14.9219 46.6884 14.9323C46.5189 14.9401 46.3711 15.0154 46.245 15.1581C46.129 15.2895 46.078 15.4249 46.092 15.5644C46.1032 15.7013 46.1475 15.8497 46.2249 16.0095L46.3969 16.3673C46.6415 16.873 46.6226 17.2858 46.3401 17.6056C46.1586 17.8111 45.928 17.9226 45.6484 17.94C45.3659 17.9548 45.0962 17.8487 44.8392 17.6218C44.6079 17.4175 44.4733 17.1843 44.4355 16.9221C44.4176 16.764 44.4292 16.6041 44.4705 16.4423ZM41.9493 14.7008L42.6793 15.1818L44.4744 12.4571L44.9611 12.7778L43.1661 15.5025L43.8962 15.9835L43.5944 16.4416L41.6475 15.1589L41.9493 14.7008ZM40.1844 10.3377L40.185 11.3409L41.679 11.9893L42.4279 11.3114L43.0045 11.5617L39.6581 14.5072L39.6078 10.0875L40.1844 10.3377ZM41.2404 12.397L40.1816 11.9374L40.1864 13.3473L41.2404 12.397ZM37.315 13.3386L36.7468 13.2085L37.4754 10.028L36.3836 9.77793L36.5061 9.24321L38.166 9.62343L37.315 13.3386ZM34.7818 12.8175L34.2018 12.7601L34.5235 9.51309L33.4089 9.40268L33.463 8.85678L35.1576 9.02465L34.7818 12.8175ZM29.2574 9.00887L29.7188 9.89968L31.3436 9.78945L31.6975 8.84332L32.3247 8.80078L30.7049 12.9542L28.6303 9.05142L29.2574 9.00887ZM31.1413 10.353L29.9897 10.4311L30.6415 11.6813L31.1413 10.353ZM26.3085 12.8819L27.1591 12.6796L26.404 9.50532L26.971 9.37044L27.7261 12.5447L28.5767 12.3424L28.7036 12.8761L26.4355 13.4156L26.3085 12.8819ZM25.6233 13.6668L25.0772 13.8705L23.7446 10.2997L24.2907 10.0959L25.6233 13.6668ZM23.3536 14.1498C23.2213 14.6665 22.9109 15.0695 22.4225 15.3587C21.9342 15.648 21.4316 15.7264 20.9149 15.5941C20.3982 15.4618 19.9962 15.1531 19.7089 14.668C19.4216 14.1829 19.3441 13.682 19.4764 13.1653C19.6087 12.6486 19.9191 12.2456 20.4075 11.9564C20.8959 11.6671 21.3984 11.5887 21.9151 11.721C22.4318 11.8533 22.8338 12.162 23.1211 12.6471C23.4084 13.1322 23.4859 13.6331 23.3536 14.1498ZM21.7504 12.2502C21.3883 12.1547 21.0319 12.2108 20.6812 12.4186C20.3305 12.6263 20.11 12.9118 20.0197 13.2752C19.9314 13.6419 19.9949 14.0072 20.2104 14.371C20.4259 14.7348 20.7147 14.9645 21.0767 15.06C21.4407 15.1587 21.7981 15.1043 22.1488 14.8966C22.4995 14.6888 22.7191 14.4016 22.8074 14.035C22.8977 13.6716 22.8351 13.308 22.6196 12.9441C22.4041 12.5803 22.1144 12.349 21.7504 12.2502ZM16.7779 14.5792L17.1995 14.1767L20.009 17.1195L16.0079 16.9338L17.8309 18.8433L17.4094 19.2458L14.6157 16.3195L18.6167 16.5052L16.7779 14.5792Z" fill="#FFFFE9"/>
</svg>
