<svg width="64" height="64" viewBox="0 0 64 64" fill="none" xmlns="http://www.w3.org/2000/svg" xmlns:xlink="http://www.w3.org/1999/xlink">
<g clip-path="url(#clip0_475_2813)">
<rect width="64" height="64" fill="white"/>
<path d="M51.8085 31.999C51.8085 42.9395 42.9395 51.8085 31.999 51.8085C21.0585 51.8085 12.1895 42.9395 12.1895 31.999C12.1895 21.0585 21.0585 12.1895 31.999 12.1895C42.9395 12.1895 51.8085 21.0585 51.8085 31.999ZM23.2821 31.999C23.2821 36.8132 27.1848 40.7159 31.999 40.7159C36.8132 40.7159 40.7159 36.8132 40.7159 31.999C40.7159 27.1848 36.8132 23.2821 31.999 23.2821C27.1848 23.2821 23.2821 27.1848 23.2821 31.999Z" fill="url(#pattern0_475_2813)"/>
<path fill-rule="evenodd" clip-rule="evenodd" d="M3.43789 27.2793C2.92571 30.3604 2.90832 33.547 3.43531 36.719C6.62378 36.6409 9.4916 38.17 10.606 40.8604C11.7205 43.5511 10.774 46.6604 8.46404 48.8596C10.3344 51.4751 12.5999 53.716 15.1407 55.5325C17.3398 53.2239 20.4481 52.2783 23.1379 53.3923C25.8276 54.5064 27.3568 57.3731 27.2795 60.5605C30.3604 61.0728 33.5469 61.0902 36.719 60.5631C36.6409 57.3746 38.17 54.5067 40.8607 53.3923C43.5511 52.278 46.6604 53.2245 48.8596 55.5343C51.475 53.6641 53.716 51.3986 55.5325 48.8576C53.2239 46.6586 52.2783 43.5503 53.3923 40.8604C54.5064 38.1709 57.3731 36.6417 60.5605 36.719C61.0728 33.6378 61.0902 30.4513 60.5631 27.2793C60.4069 27.2831 60.2514 27.2831 60.0968 27.2793H39.2891C40.1707 28.6381 40.6827 30.2589 40.6827 31.9993C40.6827 36.7948 36.7948 40.6827 31.9993 40.6827C27.2034 40.6827 23.3158 36.7948 23.3158 31.9993C23.3158 30.2589 23.8278 28.6381 24.7094 27.2793H3.89919C3.74629 27.283 3.59247 27.283 3.43789 27.2793Z" fill="#C56726"/>
<mask id="mask0_475_2813" style="mask-type:alpha" maskUnits="userSpaceOnUse" x="3" y="27" width="58" height="34">
<path fill-rule="evenodd" clip-rule="evenodd" d="M3.43789 27.2793C2.92571 30.3604 2.90832 33.547 3.43531 36.719C6.62378 36.6409 9.4916 38.17 10.606 40.8604C11.7205 43.5511 10.774 46.6604 8.46404 48.8596C10.3344 51.4751 12.5999 53.716 15.1407 55.5325C17.3398 53.2239 20.4481 52.2783 23.1379 53.3923C25.8276 54.5064 27.3568 57.3731 27.2795 60.5605C30.3604 61.0728 33.5469 61.0902 36.719 60.5631C36.6409 57.3746 38.17 54.5067 40.8607 53.3923C43.5511 52.278 46.6604 53.2245 48.8596 55.5343C51.475 53.6641 53.716 51.3986 55.5325 48.8576C53.2239 46.6586 52.2783 43.5503 53.3923 40.8604C54.5064 38.1709 57.3731 36.6417 60.5605 36.719C61.0728 33.6378 61.0902 30.4513 60.5631 27.2793C60.4069 27.2831 60.2514 27.2831 60.0968 27.2793H39.2891C40.1707 28.6381 40.6827 30.2589 40.6827 31.9993C40.6827 36.7948 36.7948 40.6827 31.9993 40.6827C27.2034 40.6827 23.3158 36.7948 23.3158 31.9993C23.3158 30.2589 23.8278 28.6381 24.7094 27.2793H3.89919C3.74629 27.283 3.59247 27.283 3.43789 27.2793Z" fill="#D97B3A"/>
</mask>
<g mask="url(#mask0_475_2813)">
<path d="M51.8065 31.997C51.8065 42.9375 42.9375 51.8065 31.997 51.8065C21.0565 51.8065 12.1875 42.9375 12.1875 31.997C12.1875 21.0565 21.0565 12.1875 31.997 12.1875C42.9375 12.1875 51.8065 21.0565 51.8065 31.997ZM23.2801 31.997C23.2801 36.8112 27.1828 40.7139 31.997 40.7139C36.8112 40.7139 40.7139 36.8112 40.7139 31.997C40.7139 27.1828 36.8112 23.2801 31.997 23.2801C27.1828 23.2801 23.2801 27.1828 23.2801 31.997Z" fill="#D97B3A"/>
</g>
<path d="M6.17747 21.0433L5.57059 22.6603L6.53974 23.024L7.12897 21.4541L7.70105 21.6688L7.11182 23.2388L8.45975 23.7446L9.06663 22.1277L9.63871 22.3424L8.80339 24.568L4.77007 23.0543L5.60539 20.8286L6.17747 21.0433ZM9.96898 21.6854L5.95666 19.4336L10.3606 18.3024L7.74975 16.8372L8.06792 16.2703L12.0535 18.507L7.65688 19.6423L10.2871 21.1184L9.96898 21.6854ZM12.1311 14.4623L13.2948 13.1152L13.4024 13.2082C13.6474 13.4198 13.8392 13.6359 13.978 13.8566C14.1039 14.0636 14.1851 14.2997 14.2216 14.5648C14.3008 15.1617 14.1386 15.6938 13.7349 16.1611C13.3409 16.6172 12.8388 16.8656 12.2285 16.9062C11.6168 16.9456 11.0794 16.7653 10.6163 16.3652C10.1434 15.9567 9.88505 15.4447 9.84141 14.8294C9.79636 14.2129 9.97873 13.6674 10.3885 13.193C10.6086 12.9382 10.8662 12.7453 11.1612 12.6143C11.4478 12.4931 11.7961 12.4314 12.2061 12.4292L12.239 13.0697C11.6518 13.0295 11.1923 13.2015 10.8603 13.5858C10.5624 13.9307 10.4315 14.3227 10.4675 14.7619C10.4993 15.1974 10.6912 15.5672 11.0431 15.8712C11.4063 16.1849 11.8179 16.3131 12.2779 16.2557C12.7065 16.2007 13.0436 16.031 13.2892 15.7466C13.4983 15.5045 13.6046 15.2165 13.6079 14.8826C13.6097 14.5475 13.5057 14.2696 13.2957 14.0488L12.5935 14.8618L12.1311 14.4623ZM13.0834 10.4661L15.9743 13.6601L15.4923 14.0963L12.6014 10.9023L13.0834 10.4661ZM16.6978 13.0952L14.0764 9.31395L18.531 10.2252L16.8253 7.76477L17.3596 7.39438L19.9635 11.1504L15.5136 10.246L17.232 12.7248L16.6978 13.0952ZM21.1667 6.12832L19.6067 6.86942L20.0508 7.80443L21.5655 7.08489L21.8277 7.63683L20.313 8.35637L20.9308 9.65682L22.4908 8.91573L22.753 9.46767L20.6058 10.4877L18.7572 6.59644L20.9045 5.57639L21.1667 6.12832ZM24.5307 4.95241L22.8918 5.4973L23.2184 6.47959L24.8096 5.95055L25.0024 6.53039L23.4111 7.05943L23.8654 8.42564L25.5043 7.88075L25.6971 8.46059L23.4412 9.21058L22.0821 5.12256L24.3379 4.37257L24.5307 4.95241ZM27.5252 6.23375L29.1633 7.80408L28.3807 7.9451L26.8571 6.42786L26.7417 6.44864L27.0545 8.18408L26.4146 8.29937L25.6507 4.05962L26.4003 3.92454C26.9605 3.8236 27.384 3.85596 27.6709 4.02162C27.9878 4.20646 28.1808 4.4911 28.2501 4.87554C28.3042 5.17576 28.2646 5.44938 28.1315 5.69641C27.9983 5.94343 27.7962 6.12254 27.5252 6.23375ZM26.6413 5.89121L26.8445 5.8546C27.4504 5.74541 27.7117 5.45924 27.6282 4.99609C27.55 4.56223 27.2162 4.39841 26.6268 4.50463L26.3988 4.54569L26.6413 5.89121ZM31.8712 3.9548L30.1466 4.04712L30.2019 5.0808L31.8764 4.99116L31.9091 5.60134L30.2346 5.69097L30.3115 7.12864L32.0362 7.03633L32.0688 7.6465L29.695 7.77357L29.4647 3.47169L31.8386 3.34463L31.8712 3.9548ZM32.802 7.68438L33.2161 3.3963L34.1159 3.48319C34.5473 3.52486 34.8839 3.60034 35.1256 3.70965C35.386 3.81889 35.6158 3.98405 35.815 4.20511C36.2185 4.65147 36.3885 5.20329 36.3251 5.86058C36.2614 6.51971 35.9794 7.03069 35.479 7.39349C35.2279 7.57481 34.9717 7.69303 34.7104 7.74814C34.4657 7.80487 34.1258 7.81223 33.6907 7.77021L32.802 7.68438ZM33.5078 7.13865L33.7994 7.16682C34.0901 7.19489 34.3347 7.18767 34.5331 7.14517C34.7319 7.09896 34.9159 7.01301 35.085 6.88732C35.4316 6.62738 35.6274 6.26413 35.6724 5.79755C35.7178 5.32727 35.5973 4.93066 35.3108 4.60772C35.0527 4.3193 34.6478 4.14845 34.0961 4.09517L33.8044 4.06701L33.5078 7.13865ZM41.5573 5.63563L40.1241 5.18938L39.8163 6.17773L41.199 6.60823L41.0173 7.19165L39.6347 6.76116L39.025 8.71922L38.4043 8.52596L39.685 4.41269L41.739 5.05221L41.5573 5.63563ZM41.8193 7.3927C42.0897 6.84995 42.521 6.48292 43.113 6.29161C43.7034 6.09946 44.2766 6.14193 44.8327 6.41901C45.3821 6.69278 45.7553 7.124 45.9525 7.7127C46.1513 8.30222 46.1134 8.87252 45.8388 9.4236C45.5625 9.978 45.13 10.3496 44.5413 10.5384C43.9501 10.7281 43.3732 10.6827 42.8104 10.4023C42.3126 10.1543 41.9515 9.7592 41.727 9.21712C41.4807 8.61852 41.5115 8.01038 41.8193 7.3927ZM42.4024 7.69262C42.1901 8.11883 42.1586 8.54064 42.3081 8.95803C42.4559 9.37459 42.7163 9.67579 43.0892 9.86162C43.4938 10.0632 43.9048 10.0934 44.3222 9.95226C44.7412 9.80777 45.052 9.53241 45.2544 9.12618C45.4593 8.71495 45.4937 8.30188 45.3575 7.88696C45.2238 7.47121 44.9555 7.16295 44.5526 6.9622C44.1514 6.76227 43.7429 6.7333 43.3272 6.87529C42.9131 7.01395 42.6048 7.28639 42.4024 7.69262ZM47.7155 11.1058L47.7105 13.375L47.0682 12.9062L47.1138 10.7564L47.0191 10.6874L45.9796 12.1117L45.4545 11.7285L47.9941 8.24865L48.6094 8.69769C49.0692 9.03324 49.3382 9.36198 49.4164 9.6839C49.5014 10.0407 49.4288 10.3769 49.1985 10.6924C49.0187 10.9388 48.7934 11.0991 48.5228 11.1734C48.2522 11.2476 47.9831 11.2251 47.7155 11.1058ZM47.353 10.2298L47.5198 10.3516C48.0172 10.7145 48.4045 10.7059 48.682 10.3258C48.9419 9.96969 48.8299 9.6151 48.3461 9.262L48.159 9.12548L47.353 10.2298ZM51.2536 14.2725L52.1243 11.5879L52.626 12.1423L52.0105 14.0278L53.9497 13.6049L54.4515 14.1593L51.6899 14.7545L50.31 16.0033L49.8738 15.5213L51.2536 14.2725ZM53.0173 15.8552C53.5265 15.526 54.0845 15.4298 54.6914 15.5668C55.2973 15.7022 55.769 16.0308 56.1063 16.5525C56.4396 17.068 56.5411 17.6292 56.4109 18.2362C56.2816 18.8447 55.9585 19.3162 55.4414 19.6505C54.9213 19.9868 54.3598 20.0863 53.757 19.9489C53.1517 19.8109 52.6783 19.4779 52.3369 18.9499C52.0349 18.4829 51.9254 17.9589 52.0084 17.3781C52.1015 16.7376 52.4377 16.2299 53.0173 15.8552ZM53.3663 16.4104C52.9664 16.6689 52.7244 17.0159 52.6404 17.4512C52.5554 17.885 52.626 18.2768 52.8523 18.6267C53.0977 19.0063 53.436 19.2416 53.8671 19.3328C54.3013 19.422 54.7089 19.3433 55.0901 19.0969C55.4759 18.8474 55.7159 18.5094 55.8101 18.083C55.9069 17.6572 55.8331 17.2553 55.5886 16.8772C55.3452 16.5008 55.0085 16.2678 54.5784 16.1782C54.1514 16.0865 53.7474 16.1639 53.3663 16.4104ZM58.1514 20.4247L55.7488 21.405C55.4061 21.5449 55.1783 21.7031 55.0656 21.8797C54.9047 22.1402 54.8861 22.4221 55.0098 22.7252C55.1341 23.03 55.345 23.2192 55.6422 23.2928C55.8411 23.3422 56.1146 23.2959 56.4625 23.154L58.865 22.1736L59.1106 22.7756L56.5427 23.8234C56.1225 23.9949 55.7229 24.0052 55.344 23.8545C54.9207 23.6837 54.6216 23.3838 54.4466 22.955C54.2716 22.5261 54.2759 22.1035 54.4596 21.687C54.6249 21.3142 54.9176 21.042 55.3379 20.8706L57.9058 19.8228L58.1514 20.4247Z" fill="#D97B3A"/>
<circle cx="32.0002" cy="32.0011" r="8.63492" stroke="#D97B3A" stroke-width="0.507937"/>
<circle cx="31.999" cy="31.999" r="19.8095" stroke="#D97B3A" stroke-width="0.507937"/>
</g>
<defs>
<clipPath id="clip0_475_2813">
<rect width="64" height="64" fill="white"/>
</clipPath>
<pattern id="pattern0_475_2813" patternUnits="userSpaceOnUse" patternTransform="matrix(5.79048 0 0 5.79048 28.9421 12.0278)" preserveAspectRatio="none" viewBox="-1.06055 -1.06055 38 38" width="1" height="1">
<use xlink:href="#pattern0_475_2813_inner" transform="translate(-38 -38)"/>
<use xlink:href="#pattern0_475_2813_inner" transform="translate(0 -38)"/>
<use xlink:href="#pattern0_475_2813_inner" transform="translate(-38 0)"/>
<g id="pattern0_475_2813_inner">
<path d="M0 0L38 38" stroke="#D97B3A" stroke-width="3" stroke-linejoin="round"/>
</g>
</pattern></defs>
</svg>
