<svg width="65" height="64" viewBox="0 0 65 64" fill="none" xmlns="http://www.w3.org/2000/svg">
<g clip-path="url(#clip0_475_2904)">
<rect width="64.5" height="64" fill="white"/>
<path d="M4.62891 8H52.9189C53.7533 8 54.4997 8.51831 54.792 9.2998L63.1641 31.6855C63.325 32.1159 63.3331 32.5889 63.1865 33.0244L55.6875 55.3047C55.4136 56.1185 54.6506 56.6669 53.792 56.667H3.72461C2.44849 56.6668 1.49851 55.4871 1.77051 54.2402L6.37695 33.125C6.48801 32.6159 6.49882 32.0893 6.4082 31.5762L2.65918 10.3477C2.443 9.12297 3.38526 8 4.62891 8Z" fill="#784B15" stroke="#CB7E3B" stroke-width="2"/>
<g style="mix-blend-mode:plus-lighter" opacity="0.7">
<path d="M14.0815 36.1966L13.9591 37.1758H11.5927L11.3887 38.8996H13.6735L13.5511 39.8788H11.2663L10.8787 43H9.83827L10.6747 36.1966H14.0815ZM15.3687 36.1966H16.5825C17.3645 36.1966 17.9357 36.336 18.2961 36.6148C18.7313 36.9412 18.9489 37.4206 18.9489 38.053C18.9489 38.665 18.7517 39.1546 18.3573 39.5218C18.0445 39.8142 17.6569 40.0046 17.1945 40.093L18.9591 43H17.7045L16.1031 40.2154H15.9195L15.5727 43H14.5323L15.3687 36.1966ZM16.2867 37.1554L16.0215 39.3178H16.3479C16.8647 39.3178 17.2591 39.209 17.5311 38.9914C17.8099 38.7738 17.9493 38.4814 17.9493 38.1142C17.9493 37.7742 17.8235 37.5192 17.5719 37.3492C17.3815 37.22 17.0721 37.1554 16.6437 37.1554H16.2867ZM24.6729 36.1966L24.5505 37.1758H21.8373L21.6333 38.8996H24.2649L24.1425 39.8788H21.5109L21.2457 42.0208H23.9589L23.8365 43H20.0829L20.9193 36.1966H24.6729ZM29.8749 36.1966L29.7525 37.1758H27.0393L26.8353 38.8996H29.4669L29.3445 39.8788H26.7129L26.4477 42.0208H29.1609L29.0385 43H25.2849L26.1213 36.1966H29.8749Z" fill="white"/>
<path d="M9.1524 45.1966H10.5804C11.7296 45.1966 12.6 45.4788 13.1916 46.0432C13.7424 46.56 14.0178 47.3012 14.0178 48.2668C14.0178 49.3956 13.6982 50.2796 13.059 50.9188C12.6238 51.354 12.1138 51.643 11.529 51.7858C10.9442 51.9286 10.2948 52 9.5808 52H9.3564H8.316L9.1524 45.1966ZM10.0704 46.1758L9.4788 51.0208H9.9276C11.0904 51.0208 11.9166 50.7318 12.4062 50.1538C12.787 49.7118 12.9774 49.1304 12.9774 48.4096C12.9774 47.7092 12.7904 47.1652 12.4164 46.7776C12.022 46.3764 11.3896 46.1758 10.5192 46.1758H10.0704ZM19.6021 45.1966L19.4797 46.1758H16.7665L16.5625 47.8996H19.1941L19.0717 48.8788H16.4401L16.1749 51.0208H18.8881L18.7657 52H15.0121L15.8485 45.1966H19.6021ZM21.0505 45.1966H22.0909L21.3769 51.0208H23.3761L23.2537 52H21.2443H20.2141L21.0505 45.1966ZM25.1668 45.1966H26.2072L25.3708 52H24.3304L25.1668 45.1966ZM27.1631 45.1966H28.2647L29.5805 49.9396L32.0591 45.1966H33.2015L29.2949 52.4386L27.1631 45.1966ZM37.9099 45.1966L37.7875 46.1758H35.0743L34.8703 47.8996H37.5019L37.3795 48.8788H34.7479L34.4827 51.0208H37.1959L37.0735 52H33.3199L34.1563 45.1966H37.9099ZM39.3583 45.1966H40.5721C41.3541 45.1966 41.9253 45.336 42.2857 45.6148C42.7209 45.9412 42.9385 46.4206 42.9385 47.053C42.9385 47.665 42.7413 48.1546 42.3469 48.5218C42.0341 48.8142 41.6465 49.0046 41.1841 49.093L42.9487 52H41.6941L40.0927 49.2154H39.9091L39.5623 52H38.5219L39.3583 45.1966ZM40.2763 46.1554L40.0111 48.3178H40.3375C40.8543 48.3178 41.2487 48.209 41.5207 47.9914C41.7995 47.7738 41.9389 47.4814 41.9389 47.1142C41.9389 46.7742 41.8131 46.5192 41.5615 46.3492C41.3711 46.22 41.0617 46.1554 40.6333 46.1554H40.2763ZM45.072 52L45.429 49.0624L43.6746 45.1966H44.8374L46.0716 47.92L47.979 45.1966H49.1826L46.4694 49.0624L46.1124 52H45.072Z" fill="white"/>
</g>
<path d="M4.62891 8H48.9189C49.7533 8 50.4997 8.51831 50.792 9.2998L59.1641 31.6855C59.325 32.1159 59.3331 32.5889 59.1865 33.0244L51.6875 55.3047C51.4136 56.1185 50.6506 56.6669 49.792 56.667H3.72461C2.44849 56.6668 1.49851 55.4871 1.77051 54.2402L6.37695 33.125C6.48801 32.6159 6.49882 32.0893 6.4082 31.5762L2.65918 10.3477C2.45651 9.19947 3.27191 8.14049 4.39941 8.0127L4.62891 8Z" stroke="#CB7E3B" stroke-width="2"/>
</g>
<defs>
<clipPath id="clip0_475_2904">
<rect width="64.5" height="64" fill="white"/>
</clipPath>
</defs>
</svg>
