<svg width="80" height="94" viewBox="0 0 80 94" fill="none" xmlns="http://www.w3.org/2000/svg">
<path d="M37.5449 9.875C38.9054 8.5296 41.0946 8.5296 42.4551 9.875L44.6377 12.0322C45.8127 13.194 47.5676 13.5427 49.0977 12.9189L51.9385 11.7607C53.7103 11.0384 55.7335 11.877 56.4756 13.6406L57.666 16.4688C58.3069 17.9918 59.7949 18.9859 61.4473 18.9951L64.5156 19.0117C66.4288 19.0225 67.9775 20.5712 67.9883 22.4844L68.0049 25.5527C68.0141 27.2051 69.0082 28.6931 70.5312 29.334L73.3594 30.5244C75.123 31.2665 75.9616 33.2897 75.2393 35.0615L74.0811 37.9023C73.4572 39.4325 73.806 41.1873 74.9678 42.3623L77.125 44.5449C78.4704 45.9054 78.4704 48.0946 77.125 49.4551L74.9678 51.6377C73.806 52.8127 73.4572 54.5675 74.0811 56.0977L75.2393 58.9385C75.9616 60.7103 75.123 62.7335 73.3594 63.4756L70.5312 64.666C69.0082 65.3069 68.0141 66.7949 68.0049 68.4473L67.9883 71.5156C67.9775 73.4288 66.4288 74.9775 64.5156 74.9883L61.4473 75.0049C59.7949 75.0141 58.3069 76.0082 57.666 77.5312L56.4756 80.3594C55.7335 82.123 53.7103 82.9616 51.9385 82.2393L49.0977 81.0811C47.5675 80.4572 45.8127 80.806 44.6377 81.9678L42.4551 84.125C41.0946 85.4704 38.9054 85.4704 37.5449 84.125L35.3623 81.9678C34.1873 80.806 32.4325 80.4572 30.9023 81.0811L28.0615 82.2393C26.2897 82.9616 24.2665 82.123 23.5244 80.3594L22.334 77.5312C21.6931 76.0082 20.2051 75.0141 18.5527 75.0049L15.4844 74.9883C13.5712 74.9775 12.0225 73.4288 12.0117 71.5156L11.9951 68.4473C11.9859 66.7949 10.9918 65.3069 9.46875 64.666L6.64062 63.4756C4.87699 62.7335 4.0384 60.7103 4.76074 58.9385L5.91895 56.0977C6.54275 54.5676 6.19402 52.8127 5.03223 51.6377L2.875 49.4551C1.5296 48.0946 1.5296 45.9054 2.875 44.5449L5.03223 42.3623C6.19402 41.1873 6.54275 39.4324 5.91895 37.9023L4.76074 35.0615C4.0384 33.2897 4.87699 31.2665 6.64062 30.5244L9.46875 29.334C10.9918 28.6931 11.9859 27.2051 11.9951 25.5527L12.0117 22.4844C12.0226 20.5712 13.5712 19.0226 15.4844 19.0117L18.5527 18.9951C20.2051 18.9859 21.6931 17.9918 22.334 16.4688L23.5244 13.6406C24.2665 11.877 26.2897 11.0384 28.0615 11.7607L30.9023 12.9189C32.4324 13.5427 34.1873 13.194 35.3623 12.0322L37.5449 9.875Z" fill="#06BF00"/>
<path d="M37.5449 9.875C38.9054 8.5296 41.0946 8.5296 42.4551 9.875L44.6377 12.0322C45.8127 13.194 47.5676 13.5427 49.0977 12.9189L51.9385 11.7607C53.7103 11.0384 55.7335 11.877 56.4756 13.6406L57.666 16.4688C58.3069 17.9918 59.7949 18.9859 61.4473 18.9951L64.5156 19.0117C66.4288 19.0225 67.9775 20.5712 67.9883 22.4844L68.0049 25.5527C68.0141 27.2051 69.0082 28.6931 70.5312 29.334L73.3594 30.5244C75.123 31.2665 75.9616 33.2897 75.2393 35.0615L74.0811 37.9023C73.4572 39.4325 73.806 41.1873 74.9678 42.3623L77.125 44.5449C78.4704 45.9054 78.4704 48.0946 77.125 49.4551L74.9678 51.6377C73.806 52.8127 73.4572 54.5675 74.0811 56.0977L75.2393 58.9385C75.9616 60.7103 75.123 62.7335 73.3594 63.4756L70.5312 64.666C69.0082 65.3069 68.0141 66.7949 68.0049 68.4473L67.9883 71.5156C67.9775 73.4288 66.4288 74.9775 64.5156 74.9883L61.4473 75.0049C59.7949 75.0141 58.3069 76.0082 57.666 77.5312L56.4756 80.3594C55.7335 82.123 53.7103 82.9616 51.9385 82.2393L49.0977 81.0811C47.5675 80.4572 45.8127 80.806 44.6377 81.9678L42.4551 84.125C41.0946 85.4704 38.9054 85.4704 37.5449 84.125L35.3623 81.9678C34.1873 80.806 32.4325 80.4572 30.9023 81.0811L28.0615 82.2393C26.2897 82.9616 24.2665 82.123 23.5244 80.3594L22.334 77.5312C21.6931 76.0082 20.2051 75.0141 18.5527 75.0049L15.4844 74.9883C13.5712 74.9775 12.0225 73.4288 12.0117 71.5156L11.9951 68.4473C11.9859 66.7949 10.9918 65.3069 9.46875 64.666L6.64062 63.4756C4.87699 62.7335 4.0384 60.7103 4.76074 58.9385L5.91895 56.0977C6.54275 54.5676 6.19402 52.8127 5.03223 51.6377L2.875 49.4551C1.5296 48.0946 1.5296 45.9054 2.875 44.5449L5.03223 42.3623C6.19402 41.1873 6.54275 39.4324 5.91895 37.9023L4.76074 35.0615C4.0384 33.2897 4.87699 31.2665 6.64062 30.5244L9.46875 29.334C10.9918 28.6931 11.9859 27.2051 11.9951 25.5527L12.0117 22.4844C12.0226 20.5712 13.5712 19.0226 15.4844 19.0117L18.5527 18.9951C20.2051 18.9859 21.6931 17.9918 22.334 16.4688L23.5244 13.6406C24.2665 11.877 26.2897 11.0384 28.0615 11.7607L30.9023 12.9189C32.4324 13.5427 34.1873 13.194 35.3623 12.0322L37.5449 9.875Z" fill="url(#paint0_linear_14_1122)"/>
<path d="M37.5449 9.875C38.9054 8.5296 41.0946 8.5296 42.4551 9.875L44.6377 12.0322C45.8127 13.194 47.5676 13.5427 49.0977 12.9189L51.9385 11.7607C53.7103 11.0384 55.7335 11.877 56.4756 13.6406L57.666 16.4688C58.3069 17.9918 59.7949 18.9859 61.4473 18.9951L64.5156 19.0117C66.4288 19.0225 67.9775 20.5712 67.9883 22.4844L68.0049 25.5527C68.0141 27.2051 69.0082 28.6931 70.5312 29.334L73.3594 30.5244C75.123 31.2665 75.9616 33.2897 75.2393 35.0615L74.0811 37.9023C73.4572 39.4325 73.806 41.1873 74.9678 42.3623L77.125 44.5449C78.4704 45.9054 78.4704 48.0946 77.125 49.4551L74.9678 51.6377C73.806 52.8127 73.4572 54.5675 74.0811 56.0977L75.2393 58.9385C75.9616 60.7103 75.123 62.7335 73.3594 63.4756L70.5312 64.666C69.0082 65.3069 68.0141 66.7949 68.0049 68.4473L67.9883 71.5156C67.9775 73.4288 66.4288 74.9775 64.5156 74.9883L61.4473 75.0049C59.7949 75.0141 58.3069 76.0082 57.666 77.5312L56.4756 80.3594C55.7335 82.123 53.7103 82.9616 51.9385 82.2393L49.0977 81.0811C47.5675 80.4572 45.8127 80.806 44.6377 81.9678L42.4551 84.125C41.0946 85.4704 38.9054 85.4704 37.5449 84.125L35.3623 81.9678C34.1873 80.806 32.4325 80.4572 30.9023 81.0811L28.0615 82.2393C26.2897 82.9616 24.2665 82.123 23.5244 80.3594L22.334 77.5312C21.6931 76.0082 20.2051 75.0141 18.5527 75.0049L15.4844 74.9883C13.5712 74.9775 12.0225 73.4288 12.0117 71.5156L11.9951 68.4473C11.9859 66.7949 10.9918 65.3069 9.46875 64.666L6.64062 63.4756C4.87699 62.7335 4.0384 60.7103 4.76074 58.9385L5.91895 56.0977C6.54275 54.5676 6.19402 52.8127 5.03223 51.6377L2.875 49.4551C1.5296 48.0946 1.5296 45.9054 2.875 44.5449L5.03223 42.3623C6.19402 41.1873 6.54275 39.4324 5.91895 37.9023L4.76074 35.0615C4.0384 33.2897 4.87699 31.2665 6.64062 30.5244L9.46875 29.334C10.9918 28.6931 11.9859 27.2051 11.9951 25.5527L12.0117 22.4844C12.0226 20.5712 13.5712 19.0226 15.4844 19.0117L18.5527 18.9951C20.2051 18.9859 21.6931 17.9918 22.334 16.4688L23.5244 13.6406C24.2665 11.877 26.2897 11.0384 28.0615 11.7607L30.9023 12.9189C32.4324 13.5427 34.1873 13.194 35.3623 12.0322L37.5449 9.875Z" stroke="url(#paint1_linear_14_1122)" stroke-width="0.634921" style="mix-blend-mode:plus-lighter"/>
<circle cx="40.0003" cy="46.9998" r="29.0476" fill="url(#paint2_linear_14_1122)"/>
<g style="mix-blend-mode:plus-lighter" opacity="0.6">
<path d="M33.0948 64.8073L30.8317 69.3675L30.2794 69.0934L31.4022 66.8311L31.3488 66.8046L28.1775 68.0502L27.456 67.6922L30.3921 66.5851L29.7192 63.132L30.3872 63.4635L30.9206 66.3701L31.8089 66.0117L32.5426 64.5332L33.0948 64.8073ZM28.0852 61.7055C28.3703 61.9381 28.5649 62.2016 28.669 62.496C28.7708 62.7908 28.7849 63.0973 28.7112 63.4158C28.6353 63.7344 28.4737 64.0453 28.2265 64.3484C27.9793 64.6515 27.7062 64.8736 27.4073 65.0147C27.1059 65.156 26.8029 65.2103 26.498 65.1777C26.1909 65.1453 25.9037 65.0202 25.6366 64.8023C25.4825 64.6766 25.3512 64.5268 25.2429 64.3529C25.1345 64.179 25.0658 63.984 25.0368 63.7679C25.0067 63.553 25.0321 63.3213 25.1128 63.0729C25.1936 62.8244 25.3466 62.5621 25.5718 62.286L25.7289 62.0933L28.0097 63.9535L27.6892 64.3464L25.8707 62.8634C25.7345 63.0303 25.6464 63.2065 25.6064 63.392C25.565 63.5764 25.5745 63.7562 25.6347 63.9315C25.6936 64.1057 25.8053 64.2599 25.9696 64.3939C26.1507 64.5416 26.3441 64.6244 26.5497 64.6424C26.7529 64.6606 26.948 64.6273 27.1349 64.5423C27.3218 64.4574 27.4817 64.3334 27.6148 64.1703L27.8284 63.9083C28.0107 63.6848 28.1266 63.464 28.1763 63.2457C28.2236 63.0277 28.211 62.8217 28.1383 62.6277C28.0645 62.435 27.9358 62.2637 27.7521 62.1139C27.6327 62.0165 27.5112 61.9452 27.3877 61.9001C27.2618 61.8551 27.1358 61.8379 27.0096 61.8484C26.8824 61.8601 26.7577 61.9016 26.6354 61.973L26.2967 61.4915C26.4644 61.3802 26.6489 61.3126 26.8503 61.2886C27.0506 61.2659 27.2566 61.2885 27.4685 61.3565C27.6793 61.4258 27.8849 61.5421 28.0852 61.7055ZM25.1721 58.7348C25.4001 59.0236 25.533 59.323 25.5709 59.633C25.6065 59.9428 25.5538 60.2451 25.413 60.5401C25.2698 60.8347 25.0447 61.1032 24.7378 61.3456C24.4308 61.588 24.1161 61.7457 23.7937 61.8187C23.4689 61.8914 23.1613 61.8789 22.8707 61.781C22.5779 61.6829 22.3246 61.4985 22.111 61.228C21.9878 61.0719 21.8921 60.8973 21.8239 60.704C21.7558 60.5108 21.731 60.3055 21.7494 60.0882C21.7666 59.8719 21.8415 59.6513 21.9742 59.4262C22.1068 59.2011 22.3129 58.9781 22.5926 58.7573L22.7877 58.6032L24.6116 60.9131L24.2136 61.2274L22.7594 59.3857C22.5903 59.5192 22.4662 59.6722 22.3869 59.8446C22.3066 60.0157 22.2769 60.1933 22.2977 60.3774C22.3175 60.5603 22.3931 60.7349 22.5246 60.9014C22.6694 61.0848 22.8402 61.2075 23.0371 61.2696C23.2315 61.3314 23.4292 61.3411 23.6301 61.2986C23.8309 61.2561 24.0139 61.1697 24.1791 61.0393L24.4444 60.8297C24.6707 60.651 24.8318 60.4605 24.9275 60.2582C25.0209 60.0557 25.0532 59.8518 25.0242 59.6466C24.9939 59.4425 24.9053 59.2474 24.7585 59.0614C24.663 58.9405 24.5598 58.8446 24.449 58.7737C24.3358 58.7026 24.2165 58.6585 24.0911 58.6414C23.9644 58.6253 23.8336 58.6389 23.6987 58.682L23.4723 58.1386C23.6602 58.0663 23.855 58.0402 24.0567 58.0604C24.2572 58.0816 24.4534 58.1483 24.6455 58.2606C24.8364 58.3739 25.0119 58.532 25.1721 58.7348ZM21.2725 57.1436L23.3433 56.1499L23.5971 56.6788L20.1548 58.3306L19.9096 57.8196L20.4474 57.5615L20.4259 57.5167C20.2124 57.5199 20.0132 57.4648 19.8282 57.3514C19.6418 57.2386 19.4862 57.0523 19.3614 56.7923C19.2496 56.5592 19.1995 56.3323 19.2113 56.1117C19.2215 55.8917 19.2997 55.6869 19.4458 55.4973C19.5905 55.3084 19.8092 55.1437 20.1021 55.0032L22.2894 53.9536L22.5432 54.4825L20.3917 55.5149C20.1213 55.6446 19.9443 55.816 19.8608 56.0288C19.7758 56.2424 19.7921 56.4717 19.9097 56.7167C19.9907 56.8855 20.0997 57.0189 20.2367 57.1167C20.373 57.2131 20.5297 57.2657 20.7067 57.2745C20.8837 57.2833 21.0723 57.2396 21.2725 57.1436ZM16.8262 53.8467L17.2538 53.7148C17.3836 53.6748 17.5295 53.6558 17.6914 53.6579C17.8513 53.6589 18.014 53.6833 18.1796 53.7311C18.3432 53.7778 18.4951 53.8489 18.6356 53.9443L18.4823 54.3245C18.309 54.2687 18.1343 54.2281 17.9582 54.2026C17.7801 54.176 17.6031 54.1898 17.4273 54.244L16.9902 54.3788L16.8262 53.8467ZM18.2151 49.8803L18.4615 50.3695C18.3815 50.4187 18.307 50.4829 18.2379 50.562C18.1668 50.6399 18.1148 50.7377 18.0818 50.8554C18.0489 50.9732 18.0486 51.1159 18.0809 51.2835C18.1252 51.5129 18.215 51.6939 18.3503 51.8264C18.4836 51.9577 18.6308 52.0077 18.7919 51.9766C18.9351 51.949 19.0381 51.8751 19.101 51.7549C19.1639 51.6348 19.2017 51.4587 19.2143 51.2267L19.2435 50.6439C19.2602 50.293 19.3365 50.0192 19.4723 49.8225C19.6066 49.6261 19.8047 49.5026 20.0667 49.4521C20.2815 49.4106 20.4854 49.4354 20.6785 49.5264C20.8713 49.6158 21.0377 49.7609 21.1777 49.9617C21.3177 50.1625 21.4159 50.4085 21.4721 50.6998C21.5459 51.0822 21.524 51.4147 21.4064 51.6973C21.2888 51.9799 21.077 52.1854 20.7709 52.3136L20.5287 51.7933C20.7204 51.7023 20.8527 51.5746 20.9257 51.4103C20.9983 51.2444 21.0118 51.0435 20.9663 50.8076C20.9145 50.5391 20.8164 50.3369 20.672 50.2011C20.5257 50.0639 20.372 50.0109 20.2109 50.042C20.0807 50.0671 19.9805 50.1337 19.9102 50.2418C19.8383 50.3502 19.7986 50.503 19.7911 50.7002L19.7653 51.3533C19.7502 51.7123 19.6728 51.9889 19.533 52.183C19.3913 52.3757 19.1911 52.4971 18.9324 52.547C18.7209 52.5878 18.5223 52.5645 18.3366 52.4772C18.1507 52.3882 17.9914 52.2493 17.8587 52.0605C17.7258 51.8702 17.6339 51.6432 17.583 51.3796C17.5114 51.0086 17.5365 50.7016 17.6584 50.4587C17.78 50.2141 17.9656 50.0213 18.2151 49.8803ZM21.0297 46.0666L15.9915 45.3361L16.2469 43.5747C16.2978 43.2237 16.4004 42.943 16.5548 42.7327C16.7076 42.5221 16.8938 42.3757 17.1133 42.2937C17.3312 42.2114 17.5631 42.1881 17.8092 42.2238C18.0256 42.2552 18.1988 42.3196 18.3287 42.4172C18.4588 42.5131 18.5558 42.6293 18.6197 42.7658C18.6839 42.9007 18.7252 43.0432 18.7436 43.1932L18.7928 43.2003C18.825 43.0476 18.9016 42.9004 19.0226 42.7589C19.1436 42.6174 19.3036 42.5074 19.5025 42.4291C19.7014 42.3508 19.9337 42.3309 20.1994 42.3694C20.4519 42.406 20.6707 42.4963 20.8558 42.6404C21.0409 42.7844 21.1745 42.9889 21.2567 43.2536C21.3389 43.5184 21.3512 43.8492 21.2937 44.2461L21.0297 46.0666ZM20.577 45.378L20.7525 44.1676C20.8102 43.7691 20.7742 43.475 20.6443 43.2854C20.5129 43.0939 20.3366 42.9821 20.1152 42.95C19.9446 42.9252 19.7809 42.9459 19.6239 43.0119C19.4654 43.0776 19.331 43.1846 19.2208 43.3327C19.1089 43.4806 19.037 43.6644 19.0052 43.8842L18.8254 45.124L20.577 45.378ZM18.294 45.047L18.4581 43.9154C18.4847 43.7317 18.4727 43.5608 18.4219 43.4027C18.3714 43.243 18.2868 43.1102 18.1682 43.0043C18.0498 42.8967 17.9021 42.83 17.725 42.8044C17.5036 42.7723 17.3046 42.8221 17.1281 42.9539C16.9499 43.0855 16.8366 43.3186 16.7881 43.6531L16.6212 44.8045L18.294 45.047ZM21.2415 38.7362L19.1421 37.9072L19.3576 37.3616L22.9089 38.7639L22.6934 39.3095L22.0923 39.0722L22.0777 39.1091C22.2252 39.2636 22.3274 39.4536 22.3844 39.6793C22.4399 39.9043 22.4147 40.1509 22.3088 40.4191C22.2211 40.641 22.0947 40.8192 21.9294 40.9535C21.7626 41.0871 21.561 41.1644 21.3248 41.1851C21.087 41.2052 20.8171 41.1556 20.5149 41.0364L18.2584 40.1453L18.4738 39.5997L20.6934 40.4761C20.9524 40.5784 21.1875 40.5875 21.3989 40.5034C21.6108 40.4179 21.7615 40.2618 21.851 40.0352C21.9046 39.8996 21.9244 39.7479 21.9104 39.5803C21.897 39.4111 21.8375 39.2504 21.7319 39.0982C21.6269 38.9445 21.4634 38.8238 21.2415 38.7362ZM23.4253 37.6805L20.1312 35.7498L20.4279 35.2436L23.7219 37.1743L23.4253 37.6805ZM19.7331 35.1706C19.6752 35.2693 19.5918 35.3347 19.4827 35.3668C19.3744 35.3974 19.2731 35.3851 19.1787 35.3298C19.0844 35.2745 19.0241 35.1921 18.998 35.0827C18.9727 34.9718 18.989 34.867 19.0468 34.7684C19.1046 34.6697 19.1876 34.6051 19.2959 34.5744C19.405 34.5423 19.5067 34.5539 19.6011 34.6092C19.6955 34.6645 19.7553 34.7476 19.7806 34.8585C19.8067 34.9679 19.7909 35.072 19.7331 35.1706ZM20.5921 32.7019L24.7208 35.6804L24.3776 36.1562L20.2489 33.1777L20.5921 32.7019ZM26.5795 33.7982C26.3532 34.0218 26.0969 34.1621 25.8106 34.219C25.5232 34.2747 25.2269 34.246 24.9217 34.1329C24.6154 34.0185 24.3201 33.8176 24.0359 33.5299C23.754 33.2447 23.5583 32.9488 23.4488 32.6423C23.3393 32.3358 23.3153 32.0392 23.3768 31.7524C23.4382 31.4657 23.5833 31.2094 23.812 30.9834C23.9888 30.8087 24.1576 30.7001 24.3184 30.6577C24.4792 30.613 24.6234 30.6009 24.751 30.6216C24.8787 30.6399 24.9811 30.6575 25.0583 30.6744L25.0937 30.6395L23.7728 29.3027L24.1901 28.8904L27.7684 32.5116L27.3653 32.9099L26.9529 32.4927L26.9034 32.5416C26.9217 32.6214 26.9398 32.7269 26.9578 32.8583C26.9746 32.9885 26.9596 33.1349 26.913 33.2975C26.8651 33.4589 26.754 33.6258 26.5795 33.7982ZM26.2657 33.3674C26.4331 33.202 26.5314 33.0186 26.5608 32.8173C26.5889 32.6147 26.5562 32.4059 26.4625 32.1909C26.3677 31.9747 26.219 31.7641 26.0163 31.559C25.816 31.3562 25.6112 31.208 25.402 31.1141C25.1916 31.0191 24.9867 30.9863 24.7874 31.0156C24.5868 31.0437 24.4017 31.1416 24.2319 31.3093C24.0551 31.484 23.9526 31.675 23.9244 31.8823C23.8962 32.0872 23.929 32.2959 24.0226 32.5086C24.1163 32.7189 24.2575 32.9196 24.4462 33.1105C24.6372 33.3038 24.8402 33.4504 25.0553 33.5501C25.2703 33.6474 25.4822 33.685 25.6909 33.6628C25.8996 33.6383 26.0912 33.5398 26.2657 33.3674ZM28.7381 31.6774L26.5373 28.5573L27.0167 28.2192L29.2175 31.3393L28.7381 31.6774ZM26.4143 27.8654C26.3209 27.9313 26.2178 27.9563 26.1052 27.9404C25.994 27.9235 25.9068 27.8704 25.8438 27.7811C25.7808 27.6917 25.76 27.5918 25.7814 27.4813C25.8042 27.3699 25.8624 27.2812 25.9558 27.2153C26.0493 27.1494 26.1516 27.1249 26.2629 27.1417C26.3755 27.1576 26.4633 27.2103 26.5263 27.2996C26.5894 27.389 26.6095 27.4894 26.5867 27.6008C26.5652 27.7113 26.5077 27.7995 26.4143 27.8654ZM29.752 28.3929L30.7756 30.449L30.2504 30.7105L28.5489 27.2924L29.0562 27.0398L29.3221 27.5739L29.3666 27.5517C29.3603 27.3383 29.4125 27.1383 29.5233 26.9517C29.6333 26.7637 29.8174 26.6054 30.0755 26.4769C30.3069 26.3617 30.5331 26.3083 30.7539 26.3169C30.974 26.3239 31.1799 26.3991 31.3716 26.5425C31.5626 26.6844 31.7304 26.9007 31.8752 27.1915L32.9564 29.3634L32.4312 29.6248L31.3677 27.4885C31.2341 27.22 31.0602 27.0455 30.8462 26.9651C30.6314 26.8832 30.4023 26.9028 30.159 27.024C29.9914 27.1074 29.8597 27.2184 29.7638 27.3568C29.6695 27.4945 29.6192 27.6519 29.6129 27.829C29.6067 28.0061 29.653 28.1941 29.752 28.3929ZM35.9183 30.0695C35.6422 30.1335 35.3967 30.153 35.1816 30.128C34.967 30.1047 34.7802 30.051 34.6212 29.9671C34.4642 29.8844 34.332 29.7875 34.2246 29.6763L34.6057 29.2511C34.6731 29.3069 34.7564 29.3692 34.8558 29.4381C34.9555 29.5085 35.0814 29.5601 35.2336 29.5929C35.3878 29.6269 35.5771 29.6178 35.8015 29.5658C36.1017 29.4961 36.3327 29.366 36.4943 29.1754C36.656 28.9848 36.7009 28.7346 36.629 28.4246L36.4538 27.6691L36.4053 27.6803C36.3791 27.7579 36.3388 27.8557 36.2845 27.9737C36.2315 28.0898 36.1421 28.2032 36.0164 28.3141C35.892 28.4229 35.7086 28.5054 35.4665 28.5615C35.1662 28.6312 34.8802 28.6226 34.6083 28.536C34.338 28.449 34.102 28.2859 33.9003 28.0469C33.7002 27.8075 33.5552 27.4941 33.4653 27.1067C33.377 26.7257 33.367 26.3784 33.4355 26.0648C33.5036 25.7496 33.6392 25.4868 33.8421 25.2764C34.0447 25.0644 34.3026 24.9221 34.6158 24.8495C34.858 24.7933 35.0594 24.7891 35.2202 24.8369C35.3823 24.8827 35.513 24.9476 35.6125 25.0317C35.7132 25.1139 35.792 25.1823 35.8489 25.2372L35.907 25.2237L35.77 24.6329L36.3221 24.5048L37.2094 28.3308C37.2836 28.6505 37.2712 28.9272 37.1723 29.1611C37.0755 29.3962 36.916 29.5889 36.6939 29.739C36.4739 29.8904 36.2153 30.0006 35.9183 30.0695ZM35.4249 28.0302C35.6542 27.977 35.8357 27.8796 35.9696 27.738C36.1035 27.5964 36.1887 27.4175 36.2254 27.2015C36.262 26.9855 36.2485 26.7402 36.1849 26.4658C36.1227 26.1978 36.0275 25.9707 35.8993 25.7843C35.771 25.598 35.6143 25.4651 35.4291 25.3856C35.244 25.306 35.0352 25.2932 34.8027 25.3471C34.5605 25.4033 34.373 25.5114 34.24 25.6716C34.1086 25.8313 34.0265 26.0239 33.9937 26.2492C33.9626 26.4742 33.9762 26.7126 34.0346 26.9645C34.0945 27.2228 34.1878 27.4418 34.3146 27.6217C34.4426 27.7995 34.5996 27.9264 34.7856 28.0024C34.9729 28.0763 35.186 28.0856 35.4249 28.0302ZM41.4574 28.1917L40.8979 22.9436L41.5162 23.0439L41.903 27.307L41.9521 27.3149L43.6854 23.3955L44.3724 23.5069L44.7788 27.7732L44.8279 27.7811L46.5416 23.8585L47.1599 23.9587L44.9712 28.7613L44.343 28.6594L43.8831 24.4751L43.8438 24.4688L42.0856 28.2935L41.4574 28.1917ZM47.7188 29.7473C47.4993 29.6457 47.3192 29.5121 47.1785 29.3465C47.0385 29.1794 46.9525 28.9926 46.9203 28.7859C46.8888 28.5778 46.9253 28.3609 47.0297 28.1354C47.1216 27.9369 47.2352 27.794 47.3705 27.7069C47.5065 27.6183 47.6563 27.5689 47.8198 27.5588C47.9834 27.5487 48.1521 27.5629 48.3261 27.6014C48.5022 27.6392 48.6756 27.6847 48.8462 27.7382C49.0693 27.8086 49.2494 27.8673 49.3865 27.9143C49.5258 27.9606 49.6335 27.9803 49.7097 27.9736C49.7874 27.9675 49.846 27.9216 49.8857 27.8359L49.8941 27.8179C49.9971 27.5953 50.0163 27.3942 49.9516 27.2145C49.8883 27.0354 49.7342 26.8892 49.489 26.7757C49.2349 26.658 49.0099 26.6214 48.814 26.6659C48.6181 26.7103 48.4616 26.7821 48.3444 26.8813L47.9227 26.4669C48.1104 26.2982 48.3066 26.1899 48.5113 26.1423C48.7182 26.0938 48.9219 26.0876 49.1224 26.1239C49.3252 26.1593 49.5138 26.2174 49.6882 26.2981C49.7995 26.3497 49.9211 26.4224 50.0529 26.5163C50.1869 26.6094 50.3028 26.7279 50.4006 26.8717C50.4998 27.0163 50.5566 27.1914 50.571 27.3971C50.5853 27.6028 50.5288 27.8433 50.4014 28.1185L49.3445 30.4013L48.8121 30.1549L49.0294 29.6857L49.0023 29.6731C48.9314 29.7316 48.834 29.7842 48.7101 29.8309C48.5862 29.8777 48.4404 29.8987 48.2727 29.8942C48.105 29.8896 47.9204 29.8406 47.7188 29.7473ZM48.0215 29.3067C48.232 29.4042 48.4286 29.445 48.6113 29.4291C48.7954 29.4139 48.9546 29.358 49.0889 29.2612C49.2247 29.1652 49.326 29.045 49.3928 28.9006L49.6184 28.4134C49.5833 28.43 49.5222 28.4319 49.435 28.4189C49.3501 28.4052 49.2542 28.3836 49.1473 28.3542C49.0425 28.3239 48.9408 28.2933 48.842 28.2621C48.7454 28.2302 48.6667 28.2048 48.6061 28.1858C48.4594 28.1398 48.3165 28.1093 48.1774 28.0942C48.0405 28.0783 47.9167 28.0931 47.8061 28.1387C47.6978 28.1835 47.6122 28.2735 47.5496 28.4089C47.4639 28.5939 47.4676 28.7654 47.5606 28.9235C47.6558 29.0808 47.8094 29.2085 48.0215 29.3067ZM50.3855 30.9941L52.6102 27.8909L53.0708 28.2212L52.7348 28.6899L52.7671 28.713C52.9337 28.6 53.1254 28.5488 53.3421 28.5594C53.5588 28.57 53.7601 28.6419 53.946 28.7752C53.981 28.8003 54.0243 28.8323 54.0758 28.8713C54.1274 28.9103 54.1657 28.9409 54.1907 28.9629L53.8431 29.4477C53.8298 29.4321 53.7971 29.3995 53.745 29.3499C53.6952 29.2999 53.6387 29.2522 53.5753 29.2068C53.4245 29.0987 53.2671 29.0338 53.1032 29.0121C52.9416 28.9901 52.7869 29.0096 52.639 29.0708C52.4935 29.1317 52.3705 29.2321 52.2701 29.3722L50.8623 31.3359L50.3855 30.9941ZM52.5686 32.6459L55.1817 29.8621L55.595 30.25L55.2003 30.6704L55.2293 30.6977C55.4093 30.6076 55.6061 30.582 55.8195 30.621C56.0329 30.6599 56.223 30.7577 56.3898 30.9142C56.4212 30.9437 56.4599 30.9812 56.5059 31.0266C56.5519 31.072 56.5858 31.1073 56.6077 31.1324L56.1994 31.5674C56.1883 31.5502 56.1602 31.5135 56.115 31.4575C56.0722 31.4014 56.0224 31.3467 55.9656 31.2934C55.8303 31.1664 55.6828 31.0814 55.5232 31.0383C55.3659 30.9952 55.2099 30.9943 55.0553 31.0355C54.903 31.0767 54.7679 31.1601 54.6499 31.2858L52.9963 33.0474L52.5686 32.6459ZM55.0853 35.5468C54.9422 35.3517 54.8492 35.1476 54.8061 34.9347C54.7644 34.7208 54.7794 34.5156 54.8512 34.3192C54.9243 34.1218 55.0611 33.9496 55.2616 33.8026C55.438 33.6733 55.6065 33.6033 55.767 33.5924C55.9289 33.5806 56.0839 33.6098 56.2319 33.6801C56.38 33.7503 56.5208 33.8444 56.6544 33.9622C56.7904 34.0803 56.9201 34.2041 57.0436 34.3334C57.2048 34.5029 57.3341 34.6414 57.4313 34.7488C57.5309 34.8567 57.6157 34.926 57.6856 34.957C57.7565 34.9892 57.83 34.9775 57.9062 34.9216L57.9223 34.9099C58.1201 34.7649 58.2341 34.5981 58.2644 34.4095C58.2956 34.2222 58.2314 34.0196 58.0717 33.8018C57.9061 33.5759 57.7269 33.435 57.5339 33.3792C57.341 33.3234 57.1692 33.3106 57.0188 33.3407L56.85 32.7741C57.0959 32.7171 57.32 32.7172 57.5222 32.7745C57.7267 32.8321 57.908 32.9253 58.066 33.0539C58.2263 33.183 58.3633 33.325 58.477 33.4801C58.5495 33.579 58.6207 33.7014 58.6907 33.8474C58.763 33.9937 58.8071 34.1534 58.8231 34.3266C58.8401 34.5012 58.8051 34.6819 58.7182 34.8689C58.6313 35.0559 58.4656 35.239 58.221 35.4183L56.192 36.9054L55.8452 36.4322L56.2622 36.1266L56.2445 36.1025C56.1542 36.1194 56.0435 36.1184 55.9125 36.0994C55.7814 36.0804 55.6436 36.0283 55.499 35.9432C55.3545 35.8581 55.2165 35.7259 55.0853 35.5468ZM55.5632 35.3075C55.7004 35.4946 55.8527 35.6254 56.0203 35.6998C56.1888 35.7756 56.3552 35.8036 56.5195 35.7839C56.6848 35.7655 56.8316 35.7093 56.9599 35.6152L57.393 35.2978C57.3542 35.2954 57.2998 35.2674 57.2298 35.214C57.1621 35.1609 57.0886 35.0956 57.0092 35.0181C56.9322 34.941 56.858 34.865 56.7865 34.79C56.7174 34.7153 56.6609 34.655 56.617 34.6091C56.5108 34.4979 56.4005 34.402 56.286 34.3216C56.1739 34.2414 56.0584 34.1946 55.9396 34.181C55.823 34.1678 55.7046 34.2053 55.5843 34.2934C55.4199 34.4139 55.3402 34.5659 55.3451 34.7492C55.3524 34.9329 55.4251 35.119 55.5632 35.3075ZM59.1401 37.5483L57.0367 38.4711L56.801 37.9338L60.2976 36.3999L60.5252 36.9189L59.9789 37.1586L59.9989 37.2041C60.2124 37.2082 60.4096 37.2701 60.5906 37.3897C60.7731 37.5087 60.9223 37.7003 61.0381 37.9643C61.142 38.2011 61.1843 38.4295 61.1651 38.6497C61.1474 38.8692 61.0622 39.0712 60.9098 39.2557C60.7588 39.4396 60.5346 39.5968 60.2371 39.7272L58.0154 40.7019L57.7797 40.1647L59.965 39.206C60.2397 39.0855 60.4224 38.9203 60.5131 38.7104C60.6053 38.4998 60.5968 38.2701 60.4876 38.0212C60.4124 37.8497 60.308 37.7128 60.1744 37.6103C60.0414 37.5094 59.8866 37.4515 59.71 37.4367C59.5334 37.4219 59.3434 37.4591 59.1401 37.5483ZM62.5145 42.5345L62.0316 42.653L61.5599 40.7314L62.0427 40.6129L62.5145 42.5345ZM63.0686 40.9548L63.2084 41.5246L59.6742 42.3922C59.5133 42.4317 59.3983 42.4847 59.3293 42.5511C59.2623 42.6188 59.2242 42.693 59.215 42.7737C59.2078 42.8557 59.2145 42.9385 59.235 43.0222C59.2504 43.085 59.2663 43.1357 59.2826 43.1743C59.3005 43.2126 59.3149 43.2432 59.3256 43.2662L58.8423 43.5077C58.8183 43.4726 58.7906 43.4223 58.7591 43.3566C58.726 43.2913 58.6965 43.2056 58.6704 43.0994C58.6309 42.9384 58.6268 42.7722 58.658 42.6007C58.6897 42.4309 58.7639 42.2778 58.8806 42.1417C58.9978 42.0071 59.1642 41.9134 59.3798 41.8604L63.0686 40.9548ZM57.5483 44.9142C57.5422 44.8149 57.545 44.7259 57.5568 44.6472C57.5669 44.5685 57.5785 44.5139 57.5916 44.4832L58.1168 44.6004C58.0891 44.7449 58.0836 44.8714 58.1002 44.98C58.1168 45.0885 58.1716 45.1823 58.2644 45.2613C58.3557 45.342 58.5003 45.412 58.6982 45.4713L59.0026 45.5622L62.7471 43.918L62.786 44.5532L59.8136 45.7914L59.816 45.8311L62.9175 46.6969L62.9564 47.332L58.4904 45.9821C58.2891 45.9214 58.1207 45.8412 57.985 45.7416C57.8478 45.6421 57.7434 45.5232 57.6718 45.3848C57.6003 45.248 57.5591 45.0912 57.5483 44.9142ZM63.6658 52.3006L58.6874 51.236L58.8164 50.6331L63.7947 51.6978L63.6658 52.3006ZM60.2596 53.8594L58.1201 53.0238L58.3336 52.4774L61.8901 53.8665L61.6839 54.3944L61.1282 54.1773L61.1101 54.2236C61.2582 54.3775 61.3538 54.5608 61.3971 54.7734C61.4419 54.9866 61.4119 55.2275 61.307 55.4961C61.2129 55.7369 61.0812 55.9283 60.9119 56.0703C60.7441 56.213 60.5411 56.2956 60.3027 56.3181C60.066 56.3413 59.7963 56.2938 59.4938 56.1756L57.2339 55.293L57.4473 54.7465L59.6701 55.6147C59.9495 55.7238 60.1955 55.7363 60.4081 55.6521C60.6222 55.5685 60.7787 55.4001 60.8776 55.1469C60.9457 54.9725 60.9688 54.8018 60.9468 54.6349C60.9242 54.4695 60.8558 54.3191 60.7414 54.1837C60.6271 54.0483 60.4665 53.9402 60.2596 53.8594ZM55.7692 57.6062C55.9675 57.3082 56.2086 57.0984 56.4925 56.9768C56.7765 56.8552 57.0805 56.8186 57.4046 56.8671C57.7286 56.9155 58.0493 57.0453 58.3667 57.2565C58.6895 57.4713 58.9349 57.7202 59.1029 58.0032C59.2714 58.2884 59.3542 58.5844 59.3512 58.8909C59.3487 59.1998 59.252 59.4977 59.0611 59.7847C58.9123 60.0082 58.7369 60.1821 58.5348 60.3064C58.3327 60.4306 58.119 60.5005 57.8938 60.5158C57.6686 60.5312 57.4475 60.4866 57.2304 60.382L57.5554 59.8936C57.7251 59.9527 57.9085 59.9553 58.1056 59.9014C58.3032 59.8497 58.4736 59.7163 58.6168 59.501C58.7435 59.3106 58.8049 59.1107 58.8011 58.9011C58.7977 58.6938 58.7329 58.4905 58.6068 58.2911C58.4812 58.094 58.2983 57.9156 58.0582 57.7559C57.8127 57.5925 57.5731 57.4888 57.3396 57.4449C57.1051 57.4023 56.8903 57.4186 56.695 57.4937C56.4988 57.5702 56.3364 57.705 56.2079 57.8981C56.1235 58.0251 56.0689 58.155 56.0442 58.2878C56.0195 58.4207 56.0246 58.5505 56.0597 58.6773C56.0947 58.8041 56.1601 58.9213 56.2558 59.0288L55.9308 59.5172C55.7615 59.3647 55.638 59.184 55.5601 58.9749C55.4827 58.7681 55.4591 58.5464 55.4892 58.3097C55.5198 58.0752 55.6131 57.8407 55.7692 57.6062ZM57.7531 63.5396L53.9961 60.1041L54.392 59.6712L58.149 63.1067L57.7531 63.5396ZM52.2139 63.6586L53.622 65.4227L53.1635 65.7887L50.7816 62.8045L51.2401 62.4386L51.6432 62.9437L51.6743 62.9189C51.6233 62.7115 51.6292 62.4958 51.6921 62.2717C51.756 62.049 51.9007 61.8477 52.126 61.6678C52.3126 61.5189 52.5109 61.4274 52.7211 61.3932C52.9323 61.3603 53.1455 61.3937 53.3608 61.4933C53.577 61.5942 53.7865 61.7716 53.9891 62.0254L55.5026 63.9216L55.0441 64.2876L53.5554 62.4225C53.3817 62.2049 53.1823 62.0799 52.9572 62.0476C52.7308 62.0163 52.5223 62.0766 52.332 62.2286C52.218 62.3196 52.1253 62.4412 52.054 62.5936C51.9813 62.747 51.9529 62.916 51.9688 63.1005C51.9833 63.2861 52.065 63.4721 52.2139 63.6586ZM48.4413 64.0029C48.7283 63.8655 49.0164 63.8168 49.3055 63.8566C49.5954 63.8979 49.866 64.022 50.1174 64.2287C50.3695 64.4369 50.5829 64.7233 50.7574 65.0881C50.9306 65.4498 51.0188 65.7934 51.022 66.1189C51.0253 66.4443 50.951 66.7325 50.7992 66.9834C50.6473 67.2343 50.4264 67.4291 50.1364 67.5679C49.9122 67.6752 49.7172 67.7226 49.5513 67.7101C49.3847 67.6998 49.2445 67.664 49.1307 67.6027C49.0161 67.5437 48.925 67.4936 48.8576 67.4524L48.8127 67.4738L49.624 69.169L49.0948 69.4222L46.8971 64.8301L47.4083 64.5854L47.6616 65.1146L47.7244 65.0846C47.7332 65.0032 47.7506 64.8975 47.7765 64.7675C47.8032 64.639 47.8652 64.5055 47.9625 64.3671C48.0605 64.2302 48.2201 64.1088 48.4413 64.0029ZM48.597 64.5126C48.3848 64.6142 48.2319 64.7553 48.1383 64.9361C48.0455 65.1183 48.0082 65.3263 48.0264 65.5601C48.0453 65.7954 48.117 66.0431 48.2414 66.3032C48.3645 66.5603 48.5095 66.7674 48.6766 66.9245C48.8443 67.083 49.0272 67.181 49.2252 67.2186C49.4239 67.2576 49.6309 67.2256 49.8461 67.1226C50.0704 67.0153 50.2297 66.8683 50.3241 66.6816C50.4177 66.4972 50.455 66.2892 50.436 66.0576C50.4163 65.8282 50.3484 65.5924 50.2326 65.3503C50.1152 65.1051 49.9713 64.9003 49.8007 64.7358C49.6293 64.5734 49.4413 64.4686 49.2368 64.4214C49.0315 64.3763 48.8183 64.4067 48.597 64.5126ZM44.119 65.535C44.4783 65.4558 44.8057 65.4668 45.1012 65.5679C45.3955 65.671 45.6446 65.8503 45.8486 66.1057C46.0513 66.363 46.1947 66.6827 46.2789 67.0646C46.3632 67.4465 46.3678 67.7985 46.2929 68.1205C46.2167 68.4444 46.0712 68.7158 45.8564 68.9346C45.6403 69.1553 45.364 69.3028 45.0274 69.377C44.8332 69.4198 44.6343 69.4297 44.4306 69.4068C44.227 69.3838 44.0315 69.3166 43.844 69.2052C43.6569 69.0954 43.491 68.9318 43.3463 68.7142C43.2016 68.4967 43.0908 68.2139 43.0141 67.866L42.9606 67.6233L45.8347 66.9895L45.9439 67.4847L43.6524 67.99C43.6988 68.2004 43.7822 68.3788 43.9028 68.5253C44.0217 68.6722 44.1686 68.7764 44.3434 68.838C44.5166 68.8999 44.7067 68.9081 44.9139 68.8624C45.1421 68.8121 45.327 68.7119 45.4687 68.5618C45.6092 68.4138 45.7041 68.2401 45.7535 68.0409C45.8029 67.8416 45.8049 67.6392 45.7596 67.4337L45.6868 67.1035C45.6247 66.822 45.5235 66.594 45.3832 66.4196C45.2417 66.2471 45.0723 66.1292 44.875 66.0658C44.6781 66.004 44.4639 65.9986 44.2325 66.0496C44.082 66.0828 43.9507 66.1338 43.8386 66.2027C43.7253 66.2735 43.6335 66.3616 43.5635 66.467C43.4937 66.574 43.4489 66.6976 43.4289 66.8378L42.8411 66.8045C42.858 66.6039 42.9195 66.4173 43.0257 66.2445C43.1322 66.0734 43.2778 65.9259 43.4626 65.802C43.6478 65.6797 43.8666 65.5907 44.119 65.535ZM40.1407 65.9649C40.4589 65.967 40.7393 66.0493 40.9818 66.2116C41.2243 66.3756 41.4134 66.6056 41.549 66.9015C41.6846 67.199 41.751 67.5499 41.7484 67.9543C41.7457 68.3553 41.6746 68.7029 41.5352 68.9969C41.3957 69.291 41.2028 69.5176 40.9564 69.6767C40.7101 69.8359 40.4262 69.9144 40.1047 69.9122C39.8561 69.9106 39.66 69.8679 39.5164 69.784C39.3711 69.7019 39.2607 69.6084 39.1852 69.5034C39.108 69.4002 39.048 69.3153 39.0054 69.2487L38.9557 69.2484L38.9433 71.1276L38.3566 71.1237L38.3902 66.0329L38.957 66.0367L38.9531 66.6233L39.0227 66.6238C39.0663 66.5544 39.1282 66.467 39.2084 66.3615C39.2886 66.2576 39.4028 66.1647 39.5508 66.0828C39.6988 66.0026 39.8955 65.9633 40.1407 65.9649ZM40.0577 66.4914C39.8224 66.4898 39.6231 66.5498 39.4599 66.6714C39.2967 66.7946 39.1721 66.9653 39.0861 67.1835C39.0002 67.4033 38.9562 67.6574 38.9543 67.9458C38.9524 68.2308 38.9922 68.4805 39.0737 68.6948C39.1551 68.9108 39.2766 69.079 39.4382 69.1994C39.5998 69.3214 39.8 69.3832 40.0386 69.3848C40.2872 69.3864 40.4947 69.324 40.6613 69.1975C40.8262 69.0726 40.9508 68.9019 41.0351 68.6854C41.1177 68.4705 41.1599 68.2288 41.1617 67.9604C41.1635 67.6886 41.1237 67.4414 41.0423 67.2188C40.9592 66.9978 40.8361 66.8213 40.6729 66.6893C40.508 66.559 40.303 66.493 40.0577 66.4914Z" fill="url(#paint3_linear_14_1122)"/>
</g>
<circle cx="16" cy="16" r="16" transform="matrix(1 0 0 -1 24.0005 63.001)" fill="black" fill-opacity="0.1"/>
<path d="M32.8437 47.1451C32.6149 47.3579 32.3861 47.5707 32.1572 47.7835C32.3532 48.1472 32.5569 48.5039 32.7681 48.8534C33.6131 50.2516 34.5802 51.5362 35.6693 52.7074C36.1789 53.2553 36.6914 53.8005 37.2069 54.343C37.7849 54.978 38.6431 54.9022 39.1353 54.1986C41.8286 50.1657 44.3814 46.0367 46.7937 41.8116C46.9925 41.4632 47.1905 41.1142 47.3875 40.7645C47.1295 40.5882 46.8715 40.4118 46.6135 40.2355C46.3592 40.5459 46.1059 40.8571 45.8535 41.1688C42.7923 44.9503 39.8716 48.8278 37.0915 52.8014L39.0198 52.657C38.5162 52.1036 38.0096 51.5528 37.5 51.0049C36.4109 49.8337 35.1998 48.7761 33.8665 47.8319C33.5332 47.5959 33.1923 47.3669 32.8437 47.1451Z" fill="white"/>
<defs>
<linearGradient id="paint0_linear_14_1122" x1="44.5" y1="82.5" x2="23.5" y2="14" gradientUnits="userSpaceOnUse">
<stop stop-color="#3B6B44"/>
<stop offset="1" stop-color="#58A263"/>
</linearGradient>
<linearGradient id="paint1_linear_14_1122" x1="40" y1="7" x2="40" y2="87" gradientUnits="userSpaceOnUse">
<stop stop-color="white" stop-opacity="0.1"/>
<stop offset="1" stop-color="white" stop-opacity="0"/>
</linearGradient>
<linearGradient id="paint2_linear_14_1122" x1="40.0003" y1="17.9521" x2="40.0003" y2="76.0474" gradientUnits="userSpaceOnUse">
<stop stop-color="#3B6B44"/>
<stop offset="1" stop-color="#58A366"/>
</linearGradient>
<linearGradient id="paint3_linear_14_1122" x1="46.491" y1="29.0412" x2="33.6234" y2="65.0729" gradientUnits="userSpaceOnUse">
<stop stop-color="white"/>
<stop offset="1" stop-color="white" stop-opacity="0.5"/>
</linearGradient>
</defs>
</svg>
