<svg width="80" height="94" viewBox="0 0 80 94" fill="none" xmlns="http://www.w3.org/2000/svg">
<path d="M6 20.6799C6 17.9958 7.83691 15.6604 10.4454 15.028L35.1452 9.0402C38.3355 8.26679 41.6645 8.26679 44.8548 9.0402L69.5546 15.028C72.1631 15.6604 74 17.9958 74 20.6799V51.136C74 69.9137 58.7777 85.136 40 85.136C21.2223 85.136 6 69.9137 6 51.136V20.6799Z" fill="#D9D9D9"/>
<path d="M6 20.6799C6 17.9958 7.83691 15.6604 10.4454 15.028L35.1452 9.0402C38.3355 8.26679 41.6645 8.26679 44.8548 9.0402L69.5546 15.028C72.1631 15.6604 74 17.9958 74 20.6799V51.136C74 69.9137 58.7777 85.136 40 85.136C21.2223 85.136 6 69.9137 6 51.136V20.6799Z" fill="url(#paint0_linear_14_1156)"/>
<path d="M6 20.6799C6 17.9958 7.83691 15.6604 10.4454 15.028L35.1452 9.0402C38.3355 8.26679 41.6645 8.26679 44.8548 9.0402L69.5546 15.028C72.1631 15.6604 74 17.9958 74 20.6799V51.136C74 69.9137 58.7777 85.136 40 85.136C21.2223 85.136 6 69.9137 6 51.136V20.6799Z" fill="url(#paint1_linear_14_1156)"/>
<path d="M9.09082 21.9726C9.09082 20.3356 10.1914 18.903 11.7732 18.4812L34.6905 12.3699C38.1693 11.4423 41.8305 11.4423 45.3093 12.3699L68.2267 18.4812C69.8084 18.903 70.909 20.3356 70.909 21.9726V51.1359C70.909 68.2065 57.0705 82.045 39.9999 82.045C22.9293 82.045 9.09082 68.2065 9.09082 51.1359V21.9726Z" fill="url(#paint2_linear_14_1156)"/>
<path d="M34.9109 21.1631C34.8169 21.2106 34.7228 21.2572 34.6287 21.304C34.6877 21.5058 34.7468 21.7075 34.8058 21.9093C34.9103 21.898 35.0148 21.8865 35.1194 21.8757C35.3561 21.8506 35.5812 21.8318 35.7952 21.8187C37.9039 21.6475 39.3842 21.9676 40.9892 23.197C41.8239 23.7824 43.0484 24.4077 44.2713 24.4162C45.4868 24.4497 46.5652 24.0995 47.5478 23.6395C47.7548 23.5394 47.967 23.43 48.1851 23.3108C48.2768 23.2593 48.3688 23.2085 48.4608 23.1576C48.3928 22.9586 48.3249 22.7597 48.257 22.5607C48.1531 22.5767 48.0493 22.5928 47.9452 22.6081C47.7094 22.6439 47.4849 22.6731 47.2713 22.6963C45.1694 22.9623 43.6599 22.762 42.0875 21.5496C41.2624 20.9759 40.0916 20.3306 38.8763 20.2553C37.6725 20.1589 36.568 20.4483 35.563 20.8636C35.3513 20.954 35.1341 21.0537 34.9109 21.1631Z" fill="white"/>
<path d="M31.4034 28.0494C31.3069 28.0908 31.2102 28.1315 31.1136 28.1724C31.1597 28.3772 31.2057 28.5819 31.2518 28.7866C31.3566 28.7822 31.4614 28.7776 31.5663 28.7738C31.8005 28.7647 32.0047 28.7669 32.2282 28.7718C34.2788 28.7635 35.4039 29.7256 37.2051 31.0218C39.0472 32.3898 41.77 32.4499 43.7008 31.6345C43.9145 31.5521 44.1327 31.461 44.3559 31.3608C44.4513 31.3168 44.5468 31.2736 44.6423 31.2301C44.5909 31.0267 44.5394 30.8232 44.4879 30.6198C44.3833 30.627 44.2786 30.6344 44.1738 30.641C43.9402 30.6564 43.7169 30.6664 43.5034 30.6716C41.4595 30.7525 39.7985 30.4358 38.2925 29.3671C36.8942 28.2542 34.1808 26.9206 32.0842 27.7994C31.8444 27.8734 31.6359 27.9539 31.4034 28.0494Z" fill="white"/>
<path d="M30.9232 24.3361C30.8201 24.3728 30.7168 24.409 30.6136 24.4454C30.6588 24.6596 30.7041 24.8737 30.7494 25.0879C30.8585 25.0794 30.9676 25.0708 31.0768 25.0626C31.4014 25.037 31.7094 25.019 32.0047 25.0075C34.886 24.83 37.1045 25.3469 39.4209 27.0573C42.0378 28.9164 45.626 28.4542 48.2087 27.4127C48.4974 27.3015 48.7949 27.1804 49.102 27.0489C49.2023 27.0051 49.3028 26.9618 49.4032 26.9183C49.3431 26.7078 49.283 26.4973 49.2228 26.2868C49.1146 26.3029 49.0064 26.3192 48.898 26.335C48.5751 26.3835 48.266 26.4253 47.9699 26.4607C45.168 26.8131 42.5816 26.8642 40.4544 25.3684C38.2493 23.5967 34.5205 23.0719 31.8418 24.0396C31.5447 24.1277 31.24 24.2262 30.9232 24.3361Z" fill="white"/>
<g style="mix-blend-mode:plus-lighter" opacity="0.7">
<path d="M20.6541 63.1534L21.1186 63.7241L18.9334 67.7336L18.9711 67.7799L23.3406 66.4539L23.8051 67.0245L19.8569 70.2384L19.4928 69.7911L22.4926 67.3494L22.4612 67.3108L18.4571 68.5187L18.1056 68.0869L20.101 64.4113L20.0696 64.3728L17.0699 66.8145L16.7058 66.3673L20.6541 63.1534ZM21.0325 71.549L23.5784 68.7036L24.0156 69.0947L21.4697 71.9402L21.0325 71.549ZM24.2251 68.4282C24.1398 68.352 24.0923 68.2572 24.0825 68.1439C24.0739 68.0317 24.1061 67.9349 24.179 67.8533C24.252 67.7718 24.3446 67.7291 24.4571 67.7252C24.5708 67.7224 24.6702 67.7592 24.7555 67.8354C24.8407 67.9116 24.8876 68.0059 24.8961 68.1181C24.906 68.2314 24.8744 68.3288 24.8015 68.4103C24.7285 68.4918 24.6352 68.5339 24.5216 68.5367C24.4091 68.5406 24.3103 68.5045 24.2251 68.4282ZM26.2878 69.314L23.2391 73.3911L22.7692 73.0398L25.818 68.9627L26.2878 69.314ZM25.9972 75.2095C25.6767 75.0288 25.4402 74.8022 25.2875 74.5297C25.1371 74.2566 25.0712 73.9568 25.0896 73.6305C25.1104 73.3036 25.2168 72.9698 25.4088 72.6291C25.6009 72.2884 25.8323 72.0231 26.1029 71.8333C26.3758 71.6428 26.6653 71.5377 26.9712 71.5181C27.2794 71.4978 27.5837 71.5723 27.8839 71.7416C28.0572 71.8393 28.212 71.9646 28.3483 72.1176C28.4846 72.2705 28.5855 72.451 28.6508 72.6591C28.7169 72.8657 28.7313 73.0983 28.694 73.3569C28.6566 73.6155 28.5505 73.9 28.3755 74.2104L28.2534 74.4269L25.6896 72.9814L25.9387 72.5397L27.9828 73.6922C28.0886 73.5045 28.1454 73.3159 28.1534 73.1263C28.1628 72.9376 28.1229 72.7619 28.0338 72.5995C27.9461 72.4378 27.8099 72.3048 27.6251 72.2007C27.4216 72.0859 27.217 72.0371 27.0113 72.0544C26.8079 72.071 26.6213 72.137 26.4516 72.2525C26.2819 72.3679 26.1453 72.5173 26.042 72.7007L25.8759 72.9951C25.7343 73.2463 25.6576 73.4837 25.6457 73.7072C25.6361 73.9301 25.6836 74.1309 25.7882 74.3098C25.8937 74.4872 26.0496 74.6341 26.256 74.7504C26.3903 74.8261 26.5221 74.8757 26.6516 74.8992C26.7832 74.9221 26.9104 74.9177 27.0329 74.8859C27.1562 74.8528 27.2721 74.7906 27.3805 74.6996L27.7961 75.1165C27.6497 75.2546 27.4794 75.3526 27.285 75.4105C27.0915 75.4669 26.8846 75.4796 26.6643 75.4486C26.4448 75.4162 26.2224 75.3365 25.9972 75.2095ZM32.3396 74.7567L31.7938 74.7119C31.7935 74.618 31.7776 74.5209 31.746 74.4207C31.7166 74.3195 31.6603 74.2241 31.577 74.1346C31.4937 74.0451 31.3721 73.9704 31.2122 73.9107C30.9933 73.8288 30.7921 73.8111 30.6084 73.8575C30.4269 73.9029 30.3075 74.0024 30.25 74.1561C30.199 74.2927 30.2083 74.4191 30.2781 74.5354C30.3478 74.6517 30.4784 74.7757 30.6698 74.9074L31.1519 75.2362C31.4427 75.4334 31.6366 75.6412 31.7336 75.8597C31.8312 76.0766 31.8333 76.3101 31.7399 76.56C31.6633 76.7649 31.5358 76.926 31.3575 77.0433C31.1807 77.1613 30.9702 77.2276 30.7258 77.2424C30.4814 77.2572 30.2203 77.2127 29.9424 77.1089C29.5776 76.9725 29.3053 76.7805 29.1254 76.5328C28.9456 76.2851 28.8807 75.9972 28.9308 75.6692L29.5011 75.7338C29.4788 75.9448 29.5188 76.1243 29.6209 76.2722C29.7247 76.4206 29.8891 76.5369 30.1142 76.6211C30.3703 76.7168 30.5939 76.7385 30.7851 76.6861C30.9785 76.6327 31.1038 76.5292 31.1613 76.3756C31.2077 76.2514 31.2031 76.1311 31.1475 76.0148C31.0925 75.8969 30.9828 75.7834 30.8184 75.6742L30.2745 75.3117C29.976 75.1116 29.7804 74.9014 29.6876 74.6809C29.597 74.4595 29.5978 74.2254 29.6901 73.9786C29.7655 73.7768 29.8889 73.6195 30.0602 73.5066C30.2331 73.3943 30.4347 73.3308 30.6649 73.316C30.8967 73.3018 31.1383 73.3417 31.3898 73.4357C31.7437 73.5679 31.9925 73.7494 32.1363 73.9801C32.2816 74.2113 32.3494 74.4702 32.3396 74.7567ZM35.4142 78.5591L35.9117 73.4926L37.6236 73.6607C38.0211 73.6997 38.339 73.8033 38.5772 73.9716C38.8173 74.1384 38.9864 74.349 39.0847 74.6034C39.1829 74.8578 39.2174 75.1343 39.1881 75.4328C39.1587 75.7314 39.0711 75.9967 38.9251 76.2288C38.7807 76.461 38.5752 76.6374 38.3086 76.7577C38.0422 76.8764 37.7119 76.9164 37.3177 76.8777L36.0907 76.7572L36.1441 76.213L37.3514 76.3315C37.6235 76.3582 37.8466 76.3327 38.0208 76.2549C38.195 76.1771 38.327 76.0618 38.4169 75.9091C38.5087 75.7549 38.5645 75.5764 38.5844 75.3736C38.6043 75.1707 38.5842 74.9856 38.5241 74.8181C38.4656 74.6509 38.3575 74.5137 38.1998 74.4066C38.0423 74.2979 37.8258 74.23 37.5504 74.203L36.4718 74.0971L36.0277 78.6193L35.4142 78.5591ZM41.9397 78.8954C41.573 78.9254 41.2501 78.8702 40.971 78.7301C40.6934 78.5881 40.4708 78.3768 40.3033 78.0962C40.1372 77.8138 40.0383 77.4777 40.0065 77.0879C39.9747 76.6981 40.0177 76.3487 40.1354 76.0398C40.2547 75.7291 40.4356 75.4799 40.678 75.2922C40.9219 75.1027 41.2157 74.994 41.5592 74.9659C41.7574 74.9498 41.9558 74.9668 42.1545 75.0171C42.3531 75.0674 42.5378 75.1604 42.7085 75.2961C42.879 75.4302 43.0213 75.6148 43.1353 75.8499C43.2492 76.085 43.3207 76.3801 43.3497 76.7353L43.3699 76.983L40.4365 77.2224L40.3952 76.717L42.734 76.5261C42.7165 76.3114 42.6579 76.1233 42.5583 75.9618C42.4603 75.8002 42.3289 75.6771 42.164 75.5925C42.0008 75.5077 41.8135 75.4739 41.6021 75.4912C41.3692 75.5102 41.1724 75.5844 41.0117 75.7139C40.8525 75.8416 40.735 76.0009 40.6591 76.1916C40.5832 76.3824 40.5539 76.5826 40.571 76.7924L40.5985 77.1294C40.6219 77.4168 40.6913 77.6563 40.8068 77.8481C40.9237 78.0381 41.0756 78.1778 41.2625 78.2673C41.4492 78.3552 41.6607 78.3895 41.8969 78.3702C42.0505 78.3577 42.1875 78.3249 42.3078 78.2718C42.4297 78.217 42.5325 78.1421 42.6162 78.0471C42.6998 77.9505 42.761 77.8341 42.7997 77.698L43.3776 77.8104C43.3337 78.0069 43.2475 78.1835 43.119 78.3403C42.9903 78.4955 42.8261 78.6219 42.6262 78.7197C42.4262 78.8158 42.1974 78.8744 41.9397 78.8954ZM45.0086 78.4933L44.1927 74.7633L44.7464 74.6422L44.8696 75.2055L44.9085 75.1971C44.9361 74.9976 45.0264 74.821 45.1793 74.6671C45.3322 74.5132 45.5204 74.4118 45.7438 74.3629C45.7859 74.3537 45.8387 74.343 45.9022 74.3308C45.9657 74.3186 46.014 74.3106 46.0471 74.3067L46.1746 74.8896C46.1541 74.8889 46.1079 74.8914 46.0362 74.8969C45.9657 74.9005 45.8925 74.9105 45.8164 74.9272C45.635 74.9669 45.4815 75.0403 45.3557 75.1476C45.2311 75.2529 45.1421 75.3809 45.0885 75.5317C45.0363 75.6805 45.0286 75.8392 45.0654 76.0075L45.5817 78.3679L45.0086 78.4933ZM50.6505 76.8111L48.3354 72.2771L48.8845 71.9967L49.9154 74.0158L52.333 72.7814L51.302 70.7623L51.8511 70.482L54.1662 75.016L53.6171 75.2963L52.5817 73.2684L50.1641 74.5029L51.1996 76.5308L50.6505 76.8111ZM56.9568 73.227C56.6857 73.44 56.3972 73.5623 56.0913 73.5941C55.7867 73.6248 55.4859 73.5692 55.189 73.4274C54.8933 73.2845 54.6237 73.058 54.38 72.7479C54.1343 72.4352 53.9765 72.1176 53.9066 71.7953C53.8379 71.472 53.8546 71.1659 53.9565 70.8772C54.0597 70.5874 54.2469 70.3361 54.5179 70.1231C54.7889 69.9101 55.0768 69.7883 55.3814 69.7576C55.6874 69.7258 55.9887 69.782 56.2853 69.9262C56.5832 70.0694 56.8551 70.2973 57.1008 70.61C57.3445 70.9202 57.5001 71.2363 57.5677 71.5583C57.6366 71.8793 57.6194 72.1847 57.5162 72.4745C57.4143 72.7632 57.2278 73.014 56.9568 73.227ZM56.6312 72.8126C56.8371 72.6509 56.965 72.465 57.015 72.255C57.065 72.045 57.0543 71.8289 56.983 71.6068C56.9117 71.3846 56.7972 71.1732 56.6395 70.9725C56.4818 70.7718 56.303 70.6099 56.103 70.4868C55.9029 70.3636 55.6945 70.3009 55.4776 70.2984C55.2608 70.296 55.0494 70.3757 54.8435 70.5375C54.6376 70.6993 54.5102 70.8858 54.4612 71.0971C54.4123 71.3084 54.424 71.5257 54.4963 71.7492C54.5686 71.9727 54.6836 72.1848 54.8413 72.3854C54.999 72.5861 55.1773 72.7474 55.3763 72.8692C55.5753 72.991 55.7827 73.0525 55.9986 73.0536C56.2144 73.0547 56.4253 72.9744 56.6312 72.8126ZM59.8659 68.2626L58.1969 66.7431L58.5918 66.3093L61.4151 68.8798L61.0202 69.3135L60.5423 68.8784L60.5155 68.9079C60.5986 69.1046 60.6269 69.3185 60.6002 69.5497C60.5722 69.7797 60.4612 70.0014 60.2671 70.2146C60.1064 70.3911 59.925 70.5128 59.7229 70.5797C59.5195 70.6456 59.3037 70.6463 59.0754 70.5819C58.846 70.5165 58.6111 70.3744 58.3709 70.1557L56.5769 68.5224L56.9719 68.0886L58.7365 69.6951C58.9423 69.8826 59.159 69.9745 59.3864 69.9708C59.6149 69.966 59.8112 69.8735 59.9752 69.6934C60.0734 69.5855 60.1456 69.4507 60.192 69.289C60.2395 69.1261 60.2409 68.9548 60.1961 68.775C60.1524 68.5941 60.0423 68.4233 59.8659 68.2626ZM62.5021 67.5828L59.3704 65.3986L59.6946 64.9337L60.1676 65.2636L60.1904 65.231C60.0753 65.0658 60.0216 64.8748 60.0294 64.658C60.0371 64.4412 60.1064 64.239 60.2372 64.0514C60.2619 64.0161 60.2934 63.9724 60.3317 63.9203C60.37 63.8682 60.4001 63.8295 60.4217 63.8043L60.9111 64.1455C60.8956 64.159 60.8634 64.1921 60.8145 64.2449C60.7652 64.2953 60.7182 64.3525 60.6737 64.4164C60.5675 64.5686 60.5046 64.7268 60.4851 64.891C60.4652 65.0529 60.4867 65.2073 60.5498 65.3544C60.6125 65.4991 60.7146 65.6208 60.8559 65.7194L62.8377 67.1016L62.5021 67.5828Z" fill="url(#paint3_linear_14_1156)"/>
</g>
<g style="mix-blend-mode:plus-lighter">
<path d="M29.1418 41.5455V59H26.4997V44.1875H26.3974L22.2213 46.9148V44.392L26.5764 41.5455H29.1418ZM38.4247 59.2386C37.3565 59.2386 36.3963 59.0341 35.544 58.625C34.6974 58.2102 34.0213 57.642 33.5156 56.9205C33.0099 56.1989 32.7401 55.375 32.706 54.4489H35.2628C35.3253 55.1989 35.6577 55.8153 36.2599 56.2983C36.8622 56.7812 37.5838 57.0227 38.4247 57.0227C39.0952 57.0227 39.6889 56.8693 40.206 56.5625C40.7287 56.25 41.1378 55.821 41.4332 55.2756C41.7344 54.7301 41.8849 54.108 41.8849 53.4091C41.8849 52.6989 41.7315 52.0653 41.4247 51.5085C41.1179 50.9517 40.6946 50.5142 40.1548 50.196C39.6207 49.8778 39.0071 49.7159 38.3139 49.7102C37.7855 49.7102 37.2543 49.8011 36.7202 49.983C36.1861 50.1648 35.7543 50.4034 35.4247 50.6989L33.0128 50.3409L33.9929 41.5455H43.5895V43.804H36.1832L35.6293 48.6875H35.7315C36.0724 48.358 36.5241 48.0824 37.0866 47.8608C37.6548 47.6392 38.2628 47.5284 38.9105 47.5284C39.973 47.5284 40.919 47.7812 41.7486 48.2869C42.5838 48.7926 43.2401 49.483 43.7173 50.358C44.2003 51.2273 44.4389 52.2273 44.4332 53.358C44.4389 54.4886 44.1832 55.4972 43.6662 56.3835C43.1548 57.2699 42.4446 57.9687 41.5355 58.4801C40.6321 58.9858 39.5952 59.2386 38.4247 59.2386ZM52.4229 59.2898C51.0763 59.2841 49.9257 58.929 48.9712 58.2244C48.0166 57.5199 47.2865 56.4943 46.7808 55.1477C46.2751 53.8011 46.0223 52.179 46.0223 50.2812C46.0223 48.3892 46.2751 46.7727 46.7808 45.4318C47.2922 44.0909 48.0251 43.0682 48.9797 42.3636C49.9399 41.6591 51.0876 41.3068 52.4229 41.3068C53.7581 41.3068 54.903 41.6619 55.8575 42.3722C56.8121 43.0767 57.5422 44.0994 58.0479 45.4403C58.5592 46.7756 58.8149 48.3892 58.8149 50.2812C58.8149 52.1847 58.5621 53.8097 58.0564 55.1562C57.5507 56.4972 56.8206 57.5227 55.8661 58.233C54.9115 58.9375 53.7638 59.2898 52.4229 59.2898ZM52.4229 57.0142C53.6047 57.0142 54.528 56.4375 55.1928 55.2841C55.8632 54.1307 56.1984 52.4631 56.1984 50.2812C56.1984 48.8324 56.045 47.608 55.7382 46.608C55.4371 45.6023 55.0024 44.8409 54.4342 44.3239C53.8717 43.8011 53.2013 43.5398 52.4229 43.5398C51.2467 43.5398 50.3234 44.1193 49.653 45.2784C48.9825 46.4375 48.6445 48.1051 48.6388 50.2812C48.6388 51.7358 48.7893 52.9659 49.0905 53.9716C49.3973 54.9716 49.832 55.7301 50.3945 56.2472C50.957 56.7585 51.6331 57.0142 52.4229 57.0142Z" fill="white"/>
</g>
<defs>
<linearGradient id="paint0_linear_14_1156" x1="43.4" y1="16.1225" x2="43.4" y2="85.136" gradientUnits="userSpaceOnUse">
<stop stop-color="#8FE4D9"/>
<stop offset="1" stop-color="#60AFA5"/>
</linearGradient>
<linearGradient id="paint1_linear_14_1156" x1="43.4" y1="16.1225" x2="43.4" y2="85.136" gradientUnits="userSpaceOnUse">
<stop stop-color="#A9D1CD"/>
<stop offset="1" stop-color="#85B3AE"/>
</linearGradient>
<linearGradient id="paint2_linear_14_1156" x1="43.0908" y1="18.5526" x2="43.0908" y2="82.045" gradientUnits="userSpaceOnUse">
<stop stop-color="#85B3AE"/>
<stop offset="1" stop-color="#A9D1CD"/>
</linearGradient>
<linearGradient id="paint3_linear_14_1156" x1="40" y1="23" x2="40" y2="79" gradientUnits="userSpaceOnUse">
<stop stop-color="white"/>
<stop offset="1" stop-color="white" stop-opacity="0.5"/>
</linearGradient>
</defs>
</svg>
