<svg width="80" height="94" viewBox="0 0 80 94" fill="none" xmlns="http://www.w3.org/2000/svg">
<path d="M6 20.6799C6 17.9958 7.83691 15.6604 10.4454 15.028L35.1452 9.0402C38.3355 8.26679 41.6645 8.26679 44.8548 9.0402L69.5546 15.028C72.1631 15.6604 74 17.9958 74 20.6799V51.136C74 69.9137 58.7777 85.136 40 85.136C21.2223 85.136 6 69.9137 6 51.136V20.6799Z" fill="#D9D9D9"/>
<path d="M6 20.6799C6 17.9958 7.83691 15.6604 10.4454 15.028L35.1452 9.0402C38.3355 8.26679 41.6645 8.26679 44.8548 9.0402L69.5546 15.028C72.1631 15.6604 74 17.9958 74 20.6799V51.136C74 69.9137 58.7777 85.136 40 85.136C21.2223 85.136 6 69.9137 6 51.136V20.6799Z" fill="url(#paint0_linear_14_1140)"/>
<path d="M9.09082 21.9726C9.09082 20.3356 10.1914 18.903 11.7732 18.4812L34.6905 12.3699C38.1693 11.4423 41.8305 11.4423 45.3093 12.3699L68.2267 18.4812C69.8084 18.903 70.909 20.3356 70.909 21.9726V51.1359C70.909 68.2065 57.0705 82.045 39.9999 82.045C22.9293 82.045 9.09082 68.2065 9.09082 51.1359V21.9726Z" fill="url(#paint1_linear_14_1140)"/>
<path d="M9.09082 21.9726C9.09082 20.3356 10.1914 18.903 11.7732 18.4812L34.6905 12.3699C38.1693 11.4423 41.8305 11.4423 45.3093 12.3699L68.2267 18.4812C69.8084 18.903 70.909 20.3356 70.909 21.9726V51.1359C70.909 68.2065 57.0705 82.045 39.9999 82.045C22.9293 82.045 9.09082 68.2065 9.09082 51.1359V21.9726Z" fill="url(#paint2_linear_14_1140)"/>
<path d="M40 20.122L41.683 19L42.4466 20.1453L40.6883 21.3175V24.9189L43.8071 23.1182L43.9431 21.0094L45.3167 21.098L45.1866 23.1165L46.9997 24.013L46.3897 25.2469L44.4954 24.3103L41.3768 26.1108L44.4956 27.9116L46.3899 26.9749L47 28.2088L45.1869 29.1053L45.317 31.1239L43.9434 31.2124L43.8074 29.1036L40.6883 27.3028V30.9046L42.4466 32.0768L41.683 33.2221L40 32.1001L38.317 33.2221L37.5535 32.0768L39.3118 30.9046V27.3031L36.1926 29.1039L36.0566 31.2127L34.683 31.1241L34.8132 29.1055L33 28.2091L33.6101 26.9751L35.5044 27.9118L38.6237 26.1108L35.5047 24.3101L33.6104 25.2467L33.0003 24.0128L34.8134 23.1162L34.6833 21.0977L36.0569 21.0091L36.1929 23.118L39.3118 24.9186V21.3175L37.5535 20.1453L38.317 19L40 20.122Z" fill="white"/>
<g style="mix-blend-mode:plus-lighter" opacity="0.7">
<path d="M12.1272 49.0946L17.2181 49.0955L17.2178 50.8157C17.2178 51.2151 17.1456 51.5415 17.0014 51.7951C16.8588 52.0502 16.6657 52.2391 16.4221 52.3617C16.1785 52.4843 15.9067 52.5456 15.6067 52.5455C15.3068 52.5455 15.0342 52.4841 14.7889 52.3614C14.5437 52.2404 14.3482 52.0531 14.2024 51.7995C14.0583 51.546 13.9862 51.2211 13.9863 50.8251L13.9865 49.5921L14.5334 49.5922L14.5332 50.8053C14.5331 51.0787 14.5803 51.2983 14.6748 51.464C14.7692 51.6298 14.8968 51.7499 15.0575 51.8245C15.2199 51.9008 15.403 51.939 15.6068 51.939C15.8107 51.939 15.993 51.9009 16.1537 51.8247C16.3145 51.7502 16.4405 51.6292 16.5316 51.4619C16.6245 51.2945 16.6709 51.0725 16.671 50.7957L16.6712 49.7119L12.1271 49.7111L12.1272 49.0946ZM12.4179 55.5732C12.3568 55.234 12.384 54.9218 12.4994 54.6367C12.6151 54.3532 12.8052 54.1136 13.0697 53.9178C13.3345 53.7237 13.661 53.5917 14.0492 53.5219C14.4406 53.4515 14.7951 53.4609 15.1126 53.5503C15.4303 53.6413 15.6928 53.7995 15.9001 54.0249C16.1076 54.2519 16.2419 54.535 16.3029 54.8743C16.364 55.2135 16.3367 55.5249 16.221 55.8084C16.1056 56.0935 15.9146 56.3333 15.6482 56.5277C15.3821 56.7238 15.0533 56.857 14.6619 56.9274C14.2737 56.9973 13.9215 56.9865 13.6054 56.8952C13.2895 56.8056 13.0278 56.6472 12.8203 56.4202C12.6131 56.1948 12.4789 55.9125 12.4179 55.5732ZM12.9365 55.4799C12.9829 55.7376 13.0871 55.9378 13.2491 56.0804C13.4112 56.223 13.607 56.3149 13.8367 56.3561C14.0664 56.3972 14.3068 56.3952 14.558 56.3501C14.8092 56.3049 15.036 56.2228 15.2386 56.1039C15.4411 55.9849 15.5943 55.8302 15.6981 55.6398C15.8019 55.4494 15.8306 55.2253 15.7843 54.9676C15.7379 54.7099 15.6329 54.5099 15.4692 54.3676C15.3056 54.2253 15.1081 54.1337 14.8768 54.0928C14.6455 54.0519 14.4042 54.0541 14.1531 54.0993C13.9019 54.1444 13.6758 54.2264 13.4749 54.345C13.274 54.4637 13.1225 54.6181 13.0203 54.8082C12.9181 54.9983 12.8902 55.2222 12.9365 55.4799ZM15.4384 60.4708L17.5632 59.7095L17.7611 60.2617L14.1667 61.5496L13.9688 60.9974L14.5773 60.7794L14.5638 60.7419C14.3511 60.7231 14.1489 60.6476 13.9573 60.5156C13.7672 60.3831 13.6235 60.1811 13.5263 59.9096C13.4458 59.6849 13.4234 59.4677 13.459 59.2577C13.4963 59.0472 13.5969 58.8563 13.7608 58.6849C13.9262 58.5129 14.1619 58.3721 14.4676 58.2626L16.7516 57.4442L16.9495 57.9965L14.703 58.8014C14.4409 58.8953 14.2581 59.0436 14.1546 59.2461C14.0517 59.4502 14.0414 59.6669 14.1235 59.8963C14.1727 60.0336 14.2579 60.1606 14.3789 60.2774C14.5006 60.3958 14.6512 60.4774 14.831 60.5221C15.0113 60.5684 15.2138 60.5513 15.4384 60.4708ZM17.1105 62.5001L15.1055 63.6207L14.8193 63.1086L18.1522 61.2458L18.4287 61.7405L17.908 62.0315L17.9322 62.0749C18.1451 62.0585 18.3474 62.1011 18.5391 62.2028C18.7322 62.3037 18.899 62.48 19.0397 62.7317C19.1659 62.9574 19.2299 63.1807 19.2319 63.4017C19.2354 63.6219 19.1701 63.8312 19.0361 64.0295C18.9034 64.227 18.6954 64.405 18.4118 64.5635L16.2941 65.7471L16.0078 65.2351L18.0909 64.0708C18.3527 63.9244 18.5187 63.7425 18.5888 63.5248C18.6604 63.3064 18.6298 63.0785 18.4972 62.8413C18.4059 62.6778 18.2888 62.5515 18.1459 62.4624C18.0039 62.3747 17.8443 62.332 17.6671 62.3342C17.4899 62.3364 17.3043 62.3917 17.1105 62.5001ZM18.0551 68.3371C17.8529 68.0914 17.7365 67.8234 17.7059 67.5331C17.6765 67.2418 17.732 66.9494 17.8724 66.6557C18.0141 66.361 18.2411 66.0852 18.5533 65.8283C18.863 65.5735 19.1755 65.4055 19.4906 65.3243C19.8058 65.2431 20.1034 65.2461 20.3834 65.3334C20.6633 65.4207 20.9054 65.5884 21.1097 65.8367C21.2676 66.0287 21.3604 66.2066 21.388 66.3706C21.418 66.5348 21.4169 66.6795 21.3847 66.8047C21.3548 66.9302 21.328 67.0306 21.3042 67.1059L21.3358 67.1443L22.787 65.9503L23.1597 66.4034L19.2284 69.6379L18.8683 69.2002L19.3213 68.8275L19.2771 68.7738C19.196 68.7847 19.0892 68.7932 18.9567 68.7991C18.8256 68.804 18.6812 68.7759 18.5235 68.7146C18.367 68.6523 18.2109 68.5265 18.0551 68.3371ZM18.5126 68.0637C18.6621 68.2454 18.8358 68.36 19.0337 68.4075C19.2328 68.4539 19.4437 68.4403 19.6664 68.3666C19.8903 68.2918 20.1135 68.1628 20.3362 67.9796C20.5563 67.7985 20.7226 67.6081 20.835 67.4082C20.9488 67.2074 21.0001 67.0063 20.989 66.8051C20.9793 66.6028 20.8986 66.4096 20.747 66.2253C20.589 66.0333 20.4081 65.9139 20.2043 65.867C20.0028 65.8203 19.7919 65.834 19.5716 65.9079C19.3537 65.9821 19.141 66.1045 18.9337 66.275C18.7239 66.4477 18.5595 66.6366 18.4407 66.8417C18.3242 67.047 18.2675 67.2545 18.2706 67.4644C18.2761 67.6745 18.3568 67.8743 18.5126 68.0637ZM24.4085 70.4818L23.9126 70.2494C23.945 70.1613 23.964 70.0648 23.9694 69.9599C23.9772 69.8547 23.9577 69.7457 23.9108 69.6327C23.864 69.5198 23.7761 69.4074 23.6471 69.2956C23.4705 69.1426 23.2881 69.0558 23.0998 69.0351C22.9139 69.0143 22.7672 69.0659 22.6598 69.1899C22.5642 69.3001 22.5289 69.4219 22.5537 69.5552C22.5785 69.6885 22.6576 69.8503 22.791 70.0405L23.1281 70.5169C23.3318 70.8031 23.441 71.0655 23.4557 71.3041C23.4715 71.5415 23.392 71.7609 23.2173 71.9626C23.074 72.1279 22.8983 72.2344 22.6903 72.2822C22.4835 72.331 22.263 72.3197 22.0288 72.2483C21.7946 72.1769 21.5654 72.0441 21.3413 71.8498C21.047 71.5948 20.8588 71.3198 20.7766 71.0249C20.6945 70.73 20.7341 70.4376 20.8955 70.1477L21.4074 70.4072C21.3129 70.5972 21.2877 70.7793 21.3319 70.9535C21.3773 71.1289 21.4908 71.2952 21.6724 71.4526C21.879 71.6317 22.0811 71.73 22.2785 71.7477C22.4783 71.7651 22.6319 71.7118 22.7394 71.5879C22.8262 71.4877 22.8639 71.3734 22.8523 71.245C22.8419 71.1153 22.7787 70.9706 22.6627 70.8109L22.2795 70.2814C22.0696 69.9898 21.9596 69.7245 21.9496 69.4856C21.9419 69.2465 22.0243 69.0274 22.1969 68.8282C22.338 68.6654 22.5085 68.561 22.7085 68.515C22.9097 68.4701 23.1207 68.4809 23.3417 68.5474C23.5638 68.6149 23.7763 68.7366 23.9792 68.9124C24.2647 69.1599 24.4346 69.4168 24.4889 69.6831C24.5444 69.9505 24.5176 70.2168 24.4085 70.4818ZM25.9534 75.1337L28.2163 70.5734L29.7572 71.338C30.1149 71.5155 30.3753 71.7252 30.5384 71.9671C30.7036 72.2082 30.7871 72.4651 30.7886 72.7378C30.7902 73.0105 30.7243 73.2813 30.591 73.5499C30.4577 73.8186 30.2816 74.0356 30.0627 74.2008C29.8453 74.3667 29.5906 74.4586 29.2987 74.4766C29.0075 74.493 28.6845 74.4132 28.3297 74.2372L27.2252 73.6891L27.4683 73.1993L28.555 73.7385C28.7999 73.86 29.0176 73.9153 29.208 73.9043C29.3985 73.8934 29.5628 73.8325 29.7011 73.7216C29.8415 73.61 29.9571 73.4629 30.0477 73.2803C30.1383 73.0978 30.1852 72.9175 30.1883 72.7396C30.193 72.5625 30.1406 72.3959 30.0312 72.2399C29.9225 72.0823 29.7442 71.9421 29.4963 71.819L28.5254 71.3373L26.5056 75.4078L25.9534 75.1337ZM31.9249 77.7805C31.5725 77.6751 31.2917 77.5064 31.0826 77.2744C30.8755 77.0412 30.745 76.7635 30.6909 76.4411C30.6388 76.1177 30.6688 75.7686 30.7809 75.3939C30.8929 75.0192 31.0599 74.7094 31.2819 74.4644C31.506 74.2183 31.7651 74.0519 32.0591 73.9651C32.3552 73.8772 32.6684 73.8827 32.9987 73.9814C33.1892 74.0384 33.3678 74.1264 33.5346 74.2455C33.7014 74.3645 33.8396 74.5183 33.9493 74.7068C34.0595 74.8937 34.1249 75.1173 34.1456 75.3778C34.1663 75.6382 34.1257 75.9392 34.0236 76.2805L33.9524 76.5187L31.1326 75.6755L31.2778 75.1896L33.5261 75.8619C33.5878 75.6555 33.6016 75.459 33.5674 75.2723C33.5349 75.0862 33.4572 74.9237 33.3344 74.7849C33.2132 74.6466 33.0509 74.5471 32.8477 74.4863C32.6238 74.4194 32.4135 74.417 32.2167 74.4793C32.022 74.5404 31.8547 74.646 31.7146 74.7962C31.5746 74.9463 31.4744 75.1222 31.4142 75.3238L31.3173 75.6477C31.2347 75.924 31.2123 76.1724 31.2501 76.393C31.29 76.6125 31.3807 76.7979 31.5223 76.9492C31.6643 77.0989 31.8489 77.2077 32.0759 77.2756C32.2236 77.3198 32.3631 77.339 32.4945 77.3333C32.628 77.3265 32.751 77.2941 32.8635 77.2361C32.9765 77.1765 33.0757 77.0903 33.1614 76.9775L33.6588 77.2923C33.5466 77.4594 33.4021 77.5926 33.2253 77.692C33.0491 77.7897 32.8501 77.8478 32.6283 77.8663C32.4071 77.8832 32.1726 77.8546 31.9249 77.7805ZM34.9328 78.5111L35.4538 74.7286L36.0153 74.806L35.9366 75.3773L35.976 75.3827C36.0707 75.2051 36.2164 75.0704 36.4131 74.9787C36.6097 74.887 36.8213 74.8568 37.0479 74.888C37.0905 74.8939 37.1438 74.9021 37.2076 74.9125C37.2714 74.923 37.3195 74.9321 37.3519 74.9399L37.2704 75.5309C37.2514 75.5233 37.2073 75.5097 37.138 75.4901C37.0707 75.4691 36.9984 75.4533 36.9213 75.4427C36.7374 75.4174 36.5679 75.4333 36.4128 75.4906C36.2596 75.5464 36.1318 75.6359 36.0296 75.759C35.9291 75.8806 35.8672 76.0268 35.8437 76.1976L35.5139 78.5912L34.9328 78.5111ZM43.2069 74.8557C43.1524 74.608 43.0128 74.4253 42.788 74.3076C42.5632 74.19 42.2975 74.1463 41.9907 74.1766C41.7664 74.1988 41.5738 74.2545 41.4127 74.3437C41.2533 74.4327 41.1329 74.5454 41.0515 74.6817C40.9717 74.8178 40.9398 74.9666 40.9558 75.1283C40.9691 75.2635 41.0128 75.3766 41.0867 75.4675C41.1621 75.5567 41.2542 75.6283 41.3628 75.6825C41.4712 75.7351 41.5835 75.7764 41.6998 75.8066C41.8158 75.8351 41.9221 75.857 42.0185 75.8725L42.5468 75.9601C42.6821 75.9817 42.8336 76.015 43.0013 76.0601C43.1706 76.1049 43.3346 76.1728 43.4935 76.2637C43.6538 76.3527 43.7907 76.4741 43.9042 76.6277C44.0176 76.7814 44.0861 76.977 44.1096 77.2144C44.1366 77.4882 44.0894 77.7427 43.9677 77.9778C43.8478 78.2128 43.6573 78.409 43.3965 78.5664C43.1372 78.7236 42.813 78.8214 42.4238 78.8599C42.061 78.8958 41.741 78.8683 41.464 78.7774C41.1885 78.6864 40.9646 78.5437 40.7921 78.3493C40.6214 78.1547 40.5124 77.9198 40.4652 77.6447L41.0985 77.5821C41.1339 77.7718 41.2138 77.9237 41.3384 78.038C41.4644 78.1504 41.617 78.2286 41.7962 78.2725C41.9769 78.3146 42.1678 78.3257 42.369 78.3058C42.6032 78.2826 42.8097 78.2239 42.9886 78.1296C43.1673 78.0337 43.3043 77.9119 43.3996 77.7642C43.4947 77.6149 43.5332 77.4479 43.5149 77.2632C43.4983 77.095 43.4377 76.9628 43.3333 76.8665C43.2289 76.7703 43.0967 76.6968 42.9368 76.646C42.7769 76.5952 42.6055 76.5538 42.4225 76.522L41.7815 76.4055C41.3744 76.3308 41.045 76.1994 40.7933 76.0111C40.5415 75.8228 40.3988 75.558 40.365 75.2167C40.337 74.933 40.3892 74.678 40.5217 74.4518C40.6557 74.2237 40.8472 74.0383 41.0961 73.8954C41.3466 73.7507 41.6335 73.6624 41.9567 73.6305C42.2832 73.5982 42.5793 73.628 42.8448 73.72C43.1102 73.8103 43.3271 73.9488 43.4954 74.1353C43.6653 74.3216 43.7671 74.5422 43.8006 74.797L43.2069 74.8557ZM48.6761 79.0005L48.1202 77.0601L48.0724 77.0738C48.0502 77.1526 48.0154 77.2539 47.9682 77.3778C47.9204 77.5001 47.8371 77.6213 47.7181 77.7416C47.5987 77.8603 47.4211 77.9534 47.1853 78.0209C46.8795 78.1086 46.5873 78.1087 46.3088 78.0212C46.0299 77.9322 45.7837 77.7648 45.5703 77.5191C45.3563 77.2718 45.1937 76.9538 45.0823 76.5651C44.9719 76.1796 44.9422 75.8261 44.9932 75.5046C45.0441 75.1832 45.1654 74.9114 45.3569 74.6893C45.5484 74.4673 45.7987 74.3119 46.1078 74.2234C46.3467 74.1549 46.5469 74.1407 46.7083 74.1806C46.8709 74.2185 47.0032 74.2772 47.1052 74.3565C47.2084 74.4339 47.2898 74.4985 47.3495 74.5503L47.4164 74.5312L47.2494 73.9481L47.7942 73.792L49.2401 78.839L48.6761 79.0005ZM47.1167 77.4924C47.3429 77.4276 47.5172 77.3139 47.6395 77.1513C47.7614 76.9871 47.8329 76.7882 47.8539 76.5546C47.8744 76.3195 47.845 76.0633 47.7656 75.7861C47.6871 75.5121 47.5786 75.2837 47.44 75.101C47.3011 74.9167 47.1371 74.7896 46.9481 74.7196C46.7586 74.6481 46.5492 74.6451 46.3198 74.7108C46.0808 74.7793 45.8993 74.8977 45.7751 75.066C45.6521 75.2323 45.5806 75.4311 45.5608 75.6627C45.542 75.8921 45.5696 76.1359 45.6436 76.394C45.7184 76.6553 45.8262 76.8812 45.967 77.0719C46.109 77.2605 46.2769 77.3951 46.4706 77.4758C46.6655 77.5544 46.8809 77.56 47.1167 77.4924ZM51.935 74.4611L50.9568 72.427L51.4855 72.1727L53.1403 75.6137L52.6116 75.8679L52.3315 75.2855L52.2957 75.3027C52.299 75.5162 52.2451 75.7252 52.1337 75.9295C52.0216 76.1324 51.8357 76.2963 51.5758 76.4213C51.3607 76.5247 51.1469 76.5696 50.9344 76.5559C50.7212 76.5408 50.5208 76.4606 50.3333 76.3154C50.1451 76.1687 49.9806 75.949 49.8398 75.6563L48.7883 73.4699L49.317 73.2156L50.3512 75.3662C50.4719 75.6171 50.6383 75.7835 50.8505 75.8653C51.0642 75.9464 51.2809 75.9342 51.5004 75.8286C51.6318 75.7654 51.7493 75.6675 51.8529 75.535C51.958 75.4017 52.0234 75.2433 52.0492 75.0599C52.0765 74.8758 52.0385 74.6762 51.935 74.4611ZM55.597 74.2348C55.3985 74.3733 55.1924 74.4616 54.9785 74.4997C54.7637 74.5365 54.5589 74.5167 54.3642 74.4404C54.1685 74.3627 53.9996 74.2219 53.8573 74.0181C53.7321 73.8387 53.666 73.6686 53.6589 73.5079C53.6509 73.3458 53.6837 73.1915 53.7573 73.0451C53.831 72.8988 53.9283 72.7601 54.0491 72.6293C54.1704 72.4962 54.2971 72.3693 54.4293 72.2488C54.6025 72.0916 54.7439 71.9656 54.8536 71.8709C54.9637 71.7738 55.035 71.6907 55.0676 71.6215C55.1015 71.5514 55.0914 71.4776 55.0374 71.4001L55.026 71.3838C54.8856 71.1827 54.7215 71.0648 54.5337 71.0302C54.3472 70.9946 54.1432 71.0541 53.9217 71.2087C53.692 71.369 53.547 71.5449 53.4867 71.7365C53.4265 71.9281 53.4096 72.0995 53.4363 72.2507L52.8659 72.4062C52.8146 72.1591 52.82 71.9351 52.8819 71.7342C52.9443 71.5311 53.0416 71.352 53.1739 71.197C53.3066 71.0397 53.4518 70.9061 53.6095 70.7961C53.71 70.7259 53.8341 70.6575 53.9816 70.5909C54.1296 70.522 54.2903 70.4816 54.4638 70.4697C54.6387 70.4567 54.8186 70.4959 55.0035 70.5871C55.1884 70.6783 55.3677 70.8483 55.5412 71.097L56.9808 73.16L56.4998 73.4957L56.2039 73.0717L56.1794 73.0888C56.1942 73.1795 56.1906 73.2901 56.1685 73.4207C56.1465 73.5513 56.0912 73.6878 56.0028 73.8304C55.9143 73.9729 55.7791 74.1078 55.597 74.2348ZM55.3688 73.7515C55.559 73.6187 55.6933 73.4694 55.7716 73.3036C55.8513 73.1369 55.8831 72.9712 55.8672 72.8065C55.8527 72.6408 55.7999 72.4928 55.7088 72.3623L55.4015 71.922C55.3982 71.9607 55.369 72.0144 55.3139 72.0831C55.2593 72.1496 55.1923 72.2216 55.113 72.2991C55.0342 72.3743 54.9564 72.4468 54.8798 72.5165C54.8035 72.5838 54.7419 72.6389 54.695 72.6818C54.5814 72.7853 54.483 72.8934 54.3999 73.0059C54.3172 73.1162 54.2677 73.2306 54.2513 73.3491C54.2354 73.4653 54.2701 73.5845 54.3555 73.7068C54.4721 73.874 54.6222 73.9572 54.8056 73.9565C54.9894 73.9535 55.1771 73.8852 55.3688 73.7515ZM58.3209 72.1292L55.702 69.3507L56.1145 68.962L56.51 69.3817L56.539 69.3544C56.4601 69.1692 56.4466 68.9712 56.4985 68.7606C56.5505 68.5499 56.6597 68.3662 56.8261 68.2093C56.8574 68.1797 56.8972 68.1434 56.9454 68.1003C56.9935 68.0572 57.0308 68.0254 57.0572 68.0051L57.4664 68.4393C57.4485 68.4493 57.4102 68.4751 57.3516 68.5168C57.293 68.5561 57.2353 68.6024 57.1786 68.6558C57.0436 68.7831 56.9497 68.9251 56.897 69.0818C56.8444 69.2362 56.8339 69.3918 56.8656 69.5487C56.8974 69.7032 56.9723 69.8432 57.0906 69.9686L58.7478 71.7269L58.3209 72.1292ZM61.6113 68.7545C61.3786 69.0395 61.115 69.234 60.8205 69.338C60.5257 69.4396 60.2192 69.4535 59.9008 69.3797C59.5821 69.3036 59.2713 69.1418 58.9684 68.8945C58.6654 68.6472 58.4434 68.374 58.3025 68.075C58.1613 67.7736 58.1071 67.4705 58.1399 67.1657C58.1724 66.8585 58.2977 66.5714 58.5157 66.3044C58.6414 66.1503 58.7913 66.0192 58.9653 65.9109C59.1392 65.8026 59.3343 65.734 59.5504 65.7051C59.7653 65.6751 59.997 65.7006 60.2454 65.7815C60.4938 65.8624 60.7561 66.0155 61.0321 66.2408L61.2246 66.398L59.3634 68.6779L58.9706 68.3572L60.4545 66.5394C60.2876 66.4032 60.1115 66.315 59.926 66.2749C59.7417 66.2334 59.5618 66.2428 59.3865 66.3029C59.2123 66.3618 59.0581 66.4733 58.9239 66.6377C58.7762 66.8187 58.6932 67.012 58.6751 67.2175C58.6568 67.4208 58.6901 67.6159 58.775 67.8028C58.8598 67.9898 58.9838 68.1498 59.1468 68.2829L59.4087 68.4967C59.632 68.679 59.8528 68.7951 60.0711 68.8449C60.289 68.8923 60.495 68.8797 60.6891 68.8071C60.8819 68.7334 61.0532 68.6048 61.2031 68.4212C61.3005 68.3019 61.3719 68.1804 61.4171 68.0569C61.4621 67.931 61.4794 67.805 61.469 67.6789C61.4573 67.5517 61.4158 67.4269 61.3446 67.3045L61.8262 66.9661C61.9374 67.1339 62.0049 67.3184 62.0288 67.5198C62.0514 67.7201 62.0287 67.9261 61.9606 68.138C61.8912 68.3487 61.7748 68.5542 61.6113 68.7545ZM64.7757 63.9404L60.1245 61.8707L61.3655 59.0818L61.8651 59.3041L60.8748 61.5298L62.4464 62.2291L63.3438 60.2124L63.8434 60.4347L62.946 62.4514L65.0263 63.3771L64.7757 63.9404ZM66.9451 58.4378C66.8571 58.771 66.7005 59.0425 66.4755 59.2521C66.2508 59.4602 65.9773 59.597 65.6548 59.6627C65.3328 59.7268 64.9811 59.7084 64.5998 59.6077C64.2153 59.5061 63.898 59.3477 63.648 59.1326C63.3985 58.9158 63.2274 58.6615 63.1348 58.3697C63.0426 58.0762 63.0406 57.7629 63.1286 57.4296C63.2166 57.0963 63.373 56.8257 63.5976 56.6176C63.8227 56.408 64.097 56.2713 64.4207 56.2077C64.7447 56.1425 65.099 56.1606 65.4835 56.2622C65.8649 56.3629 66.1795 56.5215 66.4275 56.7378C66.6758 56.9525 66.8461 57.2066 66.9383 57.5001C67.0309 57.7919 67.0332 58.1045 66.9451 58.4378ZM66.4356 58.3032C66.5025 58.05 66.4926 57.8246 66.406 57.6269C66.3194 57.4292 66.1807 57.2631 65.99 57.1287C65.7992 56.9944 65.5805 56.8946 65.3337 56.8294C65.087 56.7642 64.8467 56.7427 64.6128 56.765C64.379 56.7872 64.1748 56.8627 64.0002 56.9914C63.8257 57.1201 63.705 57.311 63.6381 57.5642C63.5712 57.8173 63.5819 58.043 63.6701 58.2411C63.7583 58.4393 63.8986 58.6057 64.091 58.7405C64.2833 58.8753 64.5029 58.9753 64.7496 59.0405C64.9964 59.1057 65.2359 59.1269 65.4681 59.1043C65.7003 59.0817 65.9029 59.0058 66.0759 58.8766C66.2488 58.7475 66.3687 58.5563 66.4356 58.3032ZM67.8302 53.7265C67.7987 54.0698 67.6893 54.3634 67.5022 54.6075C67.3151 54.85 67.0681 55.0303 66.761 55.1485C66.4541 55.2651 66.1042 55.3054 65.7115 55.2693C65.3154 55.2329 64.9763 55.1294 64.6941 54.9587C64.412 54.7864 64.2011 54.564 64.0614 54.2915C63.9218 54.0174 63.8678 53.7087 63.8993 53.3655C63.9308 53.0222 64.0401 52.7294 64.2271 52.487C64.4143 52.2429 64.6622 52.0626 64.9708 51.9462C65.2795 51.8281 65.6319 51.7872 66.0279 51.8236C66.4207 51.8597 66.7573 51.9638 67.0377 52.136C67.3183 52.3066 67.5283 52.5289 67.6679 52.803C67.8076 53.0754 67.8617 53.3833 67.8302 53.7265ZM67.3054 53.6783C67.3294 53.4176 67.2822 53.1969 67.164 53.0163C67.0458 52.8357 66.8815 52.695 66.6711 52.5941C66.4607 52.4932 66.2284 52.4311 65.9743 52.4078C65.7201 52.3844 65.4796 52.4031 65.2527 52.4638C65.0258 52.5245 64.837 52.6328 64.6862 52.7887C64.5354 52.9446 64.448 53.1529 64.4241 53.4137C64.4001 53.6744 64.4481 53.8952 64.568 54.0759C64.6878 54.2567 64.8538 54.3976 65.0658 54.4986C65.2779 54.5996 65.511 54.6618 65.7651 54.6851C66.0193 54.7085 66.259 54.6897 66.4842 54.6289C66.7095 54.568 66.8967 54.4596 67.0458 54.3035C67.1949 54.1475 67.2815 53.9391 67.3054 53.6783ZM64.0764 49.013L64.5729 48.9883L64.6713 50.9645L64.1748 50.9892L64.0764 49.013ZM63.2324 50.4587L63.2033 49.8728L66.838 49.6919C67.0035 49.6836 67.1264 49.6534 67.2068 49.6013C67.2854 49.5476 67.3369 49.482 67.3613 49.4045C67.3839 49.3254 67.393 49.2428 67.3888 49.1567C67.3855 49.0922 67.3796 49.0394 67.3709 48.9983C67.3606 48.9573 67.3523 48.9246 67.3461 48.9L67.8665 48.7546C67.8834 48.7936 67.901 48.8483 67.9195 48.9187C67.9396 48.9891 67.9523 49.0789 67.9578 49.1881C67.966 49.3536 67.9385 49.5176 67.8753 49.68C67.8119 49.8408 67.71 49.977 67.5695 50.0885C67.429 50.1984 67.2478 50.2588 67.026 50.2699L63.2324 50.4587Z" fill="url(#paint3_linear_14_1140)"/>
</g>
<g style="mix-blend-mode:plus-lighter">
<path d="M28.8592 59L36.4786 43.9318V43.804H27.6661V41.5455H39.2058V43.8807L31.6121 59H28.8592ZM46.6713 59.2898C45.3247 59.2841 44.1741 58.929 43.2196 58.2244C42.2651 57.5199 41.5349 56.4943 41.0293 55.1477C40.5236 53.8011 40.2707 52.179 40.2707 50.2812C40.2707 48.3892 40.5236 46.7727 41.0293 45.4318C41.5406 44.0909 42.2736 43.0682 43.2281 42.3636C44.1884 41.6591 45.3361 41.3068 46.6713 41.3068C48.0065 41.3068 49.1514 41.6619 50.106 42.3722C51.0605 43.0767 51.7906 44.0994 52.2963 45.4403C52.8077 46.7756 53.0634 48.3892 53.0634 50.2812C53.0634 52.1847 52.8105 53.8097 52.3048 55.1562C51.7991 56.4972 51.069 57.5227 50.1145 58.233C49.1599 58.9375 48.0122 59.2898 46.6713 59.2898ZM46.6713 57.0142C47.8531 57.0142 48.7764 56.4375 49.4412 55.2841C50.1116 54.1307 50.4469 52.4631 50.4469 50.2812C50.4469 48.8324 50.2935 47.608 49.9866 46.608C49.6855 45.6023 49.2509 44.8409 48.6827 44.3239C48.1202 43.8011 47.4497 43.5398 46.6713 43.5398C45.4952 43.5398 44.5719 44.1193 43.9014 45.2784C43.231 46.4375 42.8929 48.1051 42.8872 50.2812C42.8872 51.7358 43.0378 52.9659 43.3389 53.9716C43.6457 54.9716 44.0804 55.7301 44.6429 56.2472C45.2054 56.7585 45.8815 57.0142 46.6713 57.0142Z" fill="white"/>
</g>
<defs>
<linearGradient id="paint0_linear_14_1140" x1="43.4" y1="85.136" x2="43.4" y2="16.0413" gradientUnits="userSpaceOnUse">
<stop stop-color="#317CA9"/>
<stop offset="1" stop-color="#67B5DB"/>
</linearGradient>
<linearGradient id="paint1_linear_14_1140" x1="43.0908" y1="18.5526" x2="43.0908" y2="82.045" gradientUnits="userSpaceOnUse">
<stop stop-color="#3FA6D9"/>
<stop offset="1" stop-color="#387DA8"/>
</linearGradient>
<linearGradient id="paint2_linear_14_1140" x1="43.0908" y1="18.5526" x2="43.0908" y2="82.045" gradientUnits="userSpaceOnUse">
<stop stop-color="#317CA9"/>
<stop offset="1" stop-color="#67B5DB"/>
</linearGradient>
<linearGradient id="paint3_linear_14_1140" x1="40" y1="23" x2="40" y2="79" gradientUnits="userSpaceOnUse">
<stop stop-color="white"/>
<stop offset="1" stop-color="white" stop-opacity="0.5"/>
</linearGradient>
</defs>
</svg>
