<svg width="80" height="80" viewBox="0 0 80 80" fill="none" xmlns="http://www.w3.org/2000/svg" xmlns:xlink="http://www.w3.org/1999/xlink">
<g clip-path="url(#clip0_14_1105)">
<path d="M64.7611 39.9982C64.7611 53.6739 53.6748 64.7601 39.9992 64.7601C26.3236 64.7601 15.2373 53.6739 15.2373 39.9982C15.2373 26.3226 26.3236 15.2363 39.9992 15.2363C53.6748 15.2363 64.7611 26.3226 64.7611 39.9982ZM29.1031 39.9982C29.1031 46.016 33.9815 50.8943 39.9992 50.8943C46.017 50.8943 50.8953 46.016 50.8953 39.9982C50.8953 33.9805 46.017 29.1021 39.9992 29.1021C33.9815 29.1021 29.1031 33.9805 29.1031 39.9982Z" fill="url(#pattern0_14_1105)"/>
<path fill-rule="evenodd" clip-rule="evenodd" d="M4.29834 34.0991C3.65812 37.9505 3.63637 41.9337 4.29512 45.8988C8.28071 45.8011 11.8655 47.7125 13.2585 51.0755C14.6516 54.4389 13.4684 58.3255 10.581 61.0745C12.9189 64.3438 15.7508 67.1449 18.9269 69.4157C21.6758 66.5299 25.5611 65.3478 28.9233 66.7404C32.2855 68.133 34.197 71.7164 34.1004 75.7007C37.9515 76.3411 41.9347 76.3628 45.8997 75.7039C45.802 71.7182 47.7135 68.1334 51.0769 66.7404C54.4399 65.3475 58.3264 66.5306 61.0755 69.4178C64.3448 67.0802 67.1459 64.2483 69.4166 61.072C66.5308 58.3233 65.3488 54.4378 66.7414 51.0755C68.134 47.7136 71.7174 45.8022 75.7016 45.8988C76.342 42.0473 76.3637 38.0641 75.7049 34.0991C75.5095 34.1039 75.3152 34.1039 75.122 34.0991H49.1123C50.2143 35.7976 50.8544 37.8236 50.8544 39.9991C50.8544 45.9936 45.9945 50.8534 40.0001 50.8534C34.0052 50.8534 29.1457 45.9936 29.1457 39.9991C29.1457 37.8236 29.7857 35.7976 30.8877 34.0991H4.87497C4.68383 34.1038 4.49156 34.1038 4.29834 34.0991Z" fill="#D97B3A"/>
<mask id="mask0_14_1105" style="mask-type:alpha" maskUnits="userSpaceOnUse" x="3" y="34" width="74" height="43">
<path fill-rule="evenodd" clip-rule="evenodd" d="M4.29834 34.0991C3.65812 37.9505 3.63637 41.9337 4.29512 45.8988C8.28071 45.8011 11.8655 47.7125 13.2585 51.0755C14.6516 54.4389 13.4684 58.3255 10.581 61.0745C12.9189 64.3438 15.7508 67.1449 18.9269 69.4157C21.6758 66.5299 25.5611 65.3478 28.9233 66.7404C32.2855 68.133 34.197 71.7164 34.1004 75.7007C37.9515 76.3411 41.9347 76.3628 45.8997 75.7039C45.802 71.7182 47.7135 68.1334 51.0769 66.7404C54.4399 65.3475 58.3264 66.5306 61.0755 69.4178C64.3448 67.0802 67.1459 64.2483 69.4166 61.072C66.5308 58.3233 65.3488 54.4378 66.7414 51.0755C68.134 47.7136 71.7174 45.8022 75.7016 45.8988C76.342 42.0473 76.3637 38.0641 75.7049 34.0991C75.5095 34.1039 75.3152 34.1039 75.122 34.0991H49.1123C50.2143 35.7976 50.8544 37.8236 50.8544 39.9991C50.8544 45.9936 45.9945 50.8534 40.0001 50.8534C34.0052 50.8534 29.1457 45.9936 29.1457 39.9991C29.1457 37.8236 29.7857 35.7976 30.8877 34.0991H4.87497C4.68383 34.1038 4.49156 34.1038 4.29834 34.0991Z" fill="#D97B3A"/>
</mask>
<g mask="url(#mask0_14_1105)">
<path d="M64.7611 39.9982C64.7611 53.6739 53.6748 64.7601 39.9992 64.7601C26.3236 64.7601 15.2373 53.6739 15.2373 39.9982C15.2373 26.3226 26.3236 15.2363 39.9992 15.2363C53.6748 15.2363 64.7611 26.3226 64.7611 39.9982ZM29.1031 39.9982C29.1031 46.016 33.9815 50.8943 39.9992 50.8943C46.017 50.8943 50.8953 46.016 50.8953 39.9982C50.8953 33.9805 46.017 29.1021 39.9992 29.1021C33.9815 29.1021 29.1031 33.9805 29.1031 39.9982Z" fill="url(#paint0_linear_14_1105)"/>
</g>
<path d="M11.4758 29.4101L5.5574 26.7865L7.14076 23.2147L7.77653 23.4965L6.51087 26.3517L8.51066 27.2381L9.69434 24.5679L10.3301 24.8497L9.14643 27.52L11.1578 28.4116L12.4439 25.5102L13.0797 25.792L11.4758 29.4101ZM11.5883 22.6305L14.0263 24.2389L13.6155 24.8616L9.56262 22.1878L9.95952 21.5862L10.5928 22.004L10.6276 21.9512C10.4845 21.7205 10.4143 21.4671 10.417 21.1912C10.418 20.9142 10.5195 20.6226 10.7214 20.3165C10.9025 20.0421 11.1172 19.8392 11.3655 19.7076C11.6121 19.5749 11.8866 19.5263 12.189 19.5616C12.4896 19.5958 12.8122 19.7267 13.157 19.9541L15.7323 21.6531L15.3214 22.2758L12.7884 20.6047C12.47 20.3946 12.1674 20.3137 11.8807 20.3618C11.5922 20.4088 11.3528 20.5765 11.1624 20.865C11.0313 21.0638 10.9572 21.2699 10.9401 21.4833C10.9242 21.695 10.9693 21.9002 11.0754 22.099C11.1816 22.2978 11.3525 22.4749 11.5883 22.6305ZM19.2127 20.6167C18.967 20.8803 18.7219 21.0754 18.4773 21.2018C18.2343 21.3296 17.9992 21.4058 17.7719 21.4302C17.5476 21.4545 17.3393 21.4462 17.147 21.4052L17.2469 20.686C17.3576 20.697 17.4898 20.7035 17.6435 20.7056C17.7987 20.7091 17.9682 20.674 18.152 20.6004C18.3387 20.5267 18.532 20.3828 18.7317 20.1685C18.9989 19.8817 19.1501 19.5804 19.1852 19.2645C19.2202 18.9487 19.0898 18.6528 18.7938 18.377L18.0722 17.7046L18.0291 17.7508C18.0565 17.8513 18.0836 17.983 18.1102 18.1461C18.1367 18.3062 18.123 18.4893 18.0692 18.6955C18.0152 18.8987 17.8804 19.1159 17.6649 19.3472C17.3977 19.634 17.0899 19.8282 16.7416 19.93C16.3948 20.0302 16.03 20.0259 15.6475 19.9171C15.2663 19.8068 14.8908 19.5792 14.5208 19.2344C14.1569 18.8953 13.8997 18.5361 13.7492 18.1567C13.5971 17.7759 13.5533 17.4024 13.618 17.0363C13.6811 16.6688 13.852 16.3355 14.1307 16.0364C14.3462 15.8051 14.5557 15.6576 14.7592 15.5937C14.9626 15.5269 15.1467 15.5025 15.3113 15.5206C15.4759 15.5357 15.6077 15.5519 15.7067 15.5693L15.7584 15.5138L15.1941 14.9879L15.6855 14.4607L19.3394 17.8657C19.6446 18.1502 19.8282 18.4509 19.8901 18.7678C19.9549 19.0846 19.9236 19.401 19.796 19.7172C19.6715 20.0332 19.477 20.333 19.2127 20.6167ZM17.2436 18.8163C17.4476 18.5974 17.5699 18.3657 17.6105 18.1212C17.6511 17.8767 17.614 17.6276 17.4992 17.3736C17.3844 17.1197 17.1959 16.8707 16.9338 16.6264C16.6779 16.3879 16.4161 16.216 16.1485 16.1106C15.8809 16.0052 15.6211 15.9764 15.3693 16.024C15.1175 16.0717 14.8882 16.2065 14.6813 16.4285C14.4658 16.6597 14.3448 16.9071 14.3183 17.1704C14.2932 17.4322 14.3434 17.6936 14.4689 17.9546C14.5959 18.2141 14.7796 18.4559 15.0201 18.68C15.2668 18.9099 15.5209 19.0746 15.7823 19.1742C16.0437 19.2709 16.2994 19.2932 16.5496 19.2411C16.7997 19.1861 17.031 19.0445 17.2436 18.8163ZM20.0967 16.966L16.9554 13.2636L17.5242 12.781L20.6655 16.4834L20.0967 16.966ZM16.7211 12.4012C16.6102 12.4953 16.4826 12.5386 16.3381 12.5313C16.1953 12.5225 16.0789 12.4651 15.9889 12.3591C15.8989 12.253 15.8613 12.1288 15.8759 11.9865C15.8922 11.8428 15.9558 11.7239 16.0667 11.6299C16.1775 11.5358 16.3044 11.4931 16.4472 11.5018C16.5916 11.5092 16.7088 11.5659 16.7988 11.6719C16.8888 11.778 16.9257 11.9029 16.9094 12.0466C16.8947 12.1889 16.832 12.3071 16.7211 12.4012ZM20.6127 12.9351L22.2373 15.3624L21.6174 15.7774L18.9166 11.7424L19.5156 11.3415L19.9376 11.972L19.9901 11.9368C19.9475 11.6686 19.981 11.4079 20.0904 11.1546C20.1986 10.8996 20.4051 10.6701 20.7098 10.4661C20.983 10.2832 21.2596 10.1793 21.5395 10.1542C21.8183 10.1274 22.0902 10.1889 22.3552 10.3386C22.6191 10.4866 22.8659 10.7322 23.0957 11.0754L24.8117 13.6393L24.1918 14.0543L22.5038 11.5324C22.2917 11.2154 22.0441 11.0236 21.7611 10.9569C21.4769 10.8884 21.1912 10.9503 20.904 11.1426C20.7061 11.275 20.5579 11.4363 20.4595 11.6265C20.3628 11.8154 20.3249 12.0221 20.3458 12.2465C20.3666 12.4709 20.4556 12.7005 20.6127 12.9351ZM27.7406 12.3342C27.3144 12.5274 26.9042 12.5999 26.51 12.5518C26.1167 12.501 25.7596 12.3435 25.4387 12.0795C25.1187 11.8126 24.8561 11.4527 24.6508 10.9997C24.4456 10.5467 24.3472 10.11 24.3557 9.68973C24.3652 9.26662 24.4748 8.89072 24.6845 8.56202C24.8952 8.23053 25.2001 7.97432 25.5994 7.79339C25.8297 7.689 26.0746 7.62431 26.334 7.59931C26.5933 7.57431 26.8543 7.60644 27.1169 7.69568C27.3785 7.783 27.628 7.94295 27.8653 8.17553C28.1026 8.40811 28.3148 8.73074 28.5018 9.14343L28.6323 9.43135L25.2233 10.9763L24.9571 10.3889L27.6751 9.15715C27.562 8.90762 27.4112 8.70758 27.2226 8.55703C27.036 8.4056 26.8259 8.31459 26.5922 8.28398C26.3604 8.2525 26.1217 8.29243 25.876 8.40378C25.6054 8.52643 25.4016 8.69974 25.2648 8.9237C25.1291 9.14487 25.0567 9.38591 25.0477 9.64681C25.0387 9.90772 25.0894 10.1601 25.1999 10.4038L25.3773 10.7954C25.5287 11.1294 25.7146 11.3864 25.935 11.5665C26.1565 11.7438 26.3983 11.8459 26.6604 11.8729C26.9216 11.8979 27.1895 11.8483 27.4639 11.7239C27.6425 11.643 27.7924 11.5449 27.9137 11.4298C28.0361 11.3118 28.127 11.1781 28.1865 11.0285C28.2451 10.877 28.2684 10.7114 28.2564 10.5318L28.9964 10.4186C29.0282 10.6725 29.0008 10.921 28.9142 11.1638C28.8267 11.4047 28.6843 11.6266 28.487 11.8294C28.2888 12.0303 28.04 12.1985 27.7406 12.3342ZM32.4255 10.7002C31.9734 10.8207 31.5569 10.8248 31.1759 10.7126C30.7964 10.5978 30.47 10.3837 30.1968 10.0705C29.9251 9.75468 29.7253 9.35648 29.5972 8.8759C29.4692 8.39531 29.4439 7.94842 29.5214 7.53522C29.6004 7.11945 29.7703 6.76668 30.0312 6.47692C30.2935 6.18458 30.6364 5.982 31.06 5.86916C31.3044 5.80406 31.5565 5.78051 31.8165 5.79849C32.0764 5.81647 32.3286 5.89106 32.5729 6.02226C32.8167 6.15141 33.0365 6.35021 33.2323 6.61863C33.4281 6.88705 33.5843 7.24017 33.701 7.67799L33.7823 7.98345L30.1657 8.9469L29.9997 8.32377L32.8832 7.55561C32.8127 7.29089 32.6968 7.06877 32.5356 6.88927C32.3764 6.70923 32.1841 6.5849 31.9586 6.5163C31.7352 6.44714 31.4932 6.44729 31.2325 6.51672C30.9454 6.59321 30.7159 6.73067 30.5442 6.92909C30.3739 7.12493 30.2629 7.35079 30.2111 7.60666C30.1593 7.86254 30.1678 8.11978 30.2367 8.3784L30.3474 8.79382C30.4418 9.14815 30.5829 9.43224 30.7707 9.64609C30.96 9.85736 31.1818 9.99785 31.4359 10.0675C31.6894 10.1352 31.9618 10.1303 32.253 10.0527C32.4424 10.0022 32.6064 9.93019 32.745 9.83656C32.8851 9.74035 32.9968 9.62336 33.0801 9.4856C33.1628 9.3458 33.213 9.18631 33.2307 9.00712L33.9792 9.01709C33.9688 9.27283 33.9009 9.51336 33.7756 9.73867C33.6497 9.96195 33.4727 10.1574 33.2448 10.325C33.0163 10.4905 32.7432 10.6156 32.4255 10.7002ZM35.2767 9.92599L34.6343 5.11325L35.3487 5.0179L35.4458 5.74483L35.4959 5.73814C35.5518 5.4883 35.6848 5.27389 35.8948 5.09491C36.1048 4.91594 36.3539 4.80721 36.6422 4.76874C36.6965 4.76149 36.7645 4.75347 36.8462 4.74469C36.928 4.73591 36.99 4.73081 37.0324 4.72942L37.1327 5.48141C37.1068 5.47849 37.0481 5.47675 36.9566 5.47621C36.8669 5.47329 36.773 5.47839 36.6748 5.49149C36.4409 5.52272 36.2385 5.59969 36.0678 5.7224C35.8989 5.84274 35.7726 5.99566 35.689 6.18117C35.6071 6.3643 35.5807 6.56449 35.6097 6.78174L36.0161 9.82729L35.2767 9.92599ZM40.2765 9.73174C39.8087 9.73017 39.4055 9.62555 39.0669 9.41789C38.7304 9.20813 38.4711 8.91644 38.289 8.54282C38.1091 8.1671 38.0199 7.73057 38.0216 7.23323C38.0233 6.73589 38.1153 6.29786 38.2978 5.91914C38.4825 5.53832 38.7385 5.24204 39.0658 5.03029C39.3953 4.81644 39.7792 4.71025 40.2175 4.71172C40.4704 4.71257 40.72 4.75556 40.9663 4.84068C41.2125 4.9258 41.4365 5.06353 41.6382 5.25387C41.8399 5.44211 42.0003 5.69132 42.1193 6.00151C42.2384 6.31169 42.2972 6.69333 42.2957 7.14641L42.2946 7.46252L38.5519 7.44996L38.5541 6.80511L41.5381 6.81512C41.539 6.54116 41.4851 6.29652 41.3762 6.0812C41.2695 5.86589 41.1162 5.69573 40.9164 5.57072C40.7187 5.44572 40.485 5.38277 40.2153 5.38187C39.9181 5.38087 39.6608 5.45376 39.4432 5.60055C39.2278 5.74524 39.0617 5.93435 38.945 6.16788C38.8283 6.40141 38.7696 6.65199 38.7687 6.91962L38.7672 7.34953C38.766 7.71621 38.8282 8.02726 38.9537 8.28268C39.0814 8.53599 39.2589 8.72942 39.486 8.86294C39.7132 8.99436 39.9774 9.06058 40.2788 9.06159C40.4748 9.06225 40.6519 9.03545 40.8101 8.98119C40.9705 8.92482 41.1088 8.84099 41.2251 8.72969C41.3414 8.61628 41.4314 8.47539 41.4952 8.30701L42.2152 8.51174C42.1385 8.75594 42.0103 8.97046 41.8306 9.15531C41.6508 9.33805 41.4291 9.48061 41.1653 9.58299C40.9015 9.68326 40.6053 9.73284 40.2765 9.73174ZM45.0189 10.1633C44.6202 10.0949 44.2854 9.93376 44.0146 9.67992C43.7442 9.424 43.5545 9.0964 43.4455 8.69712C43.3369 8.29575 43.326 7.84167 43.4129 7.33487C43.4991 6.83222 43.6602 6.41083 43.896 6.07068C44.1318 5.73053 44.4206 5.48608 44.7626 5.33733C45.1046 5.18858 45.477 5.14876 45.88 5.21787C46.1915 5.2713 46.4288 5.36544 46.5916 5.50029C46.757 5.63341 46.8762 5.7736 46.9493 5.92084C47.0248 6.06636 47.0825 6.18529 47.1222 6.27763L47.1845 6.28832L47.5885 3.93294L48.3238 4.05905L47.2294 10.4398L46.5191 10.3179L46.6452 9.58265L46.5579 9.56769C46.489 9.64567 46.3932 9.74257 46.2707 9.8584C46.1486 9.97216 45.9862 10.0651 45.7835 10.1373C45.5812 10.2073 45.3264 10.216 45.0189 10.1633ZM45.2319 9.51987C45.5269 9.57046 45.7893 9.53636 46.0192 9.41756C46.2495 9.2967 46.4411 9.10826 46.594 8.85226C46.7474 8.59418 46.855 8.28443 46.917 7.92303C46.9783 7.56577 46.9799 7.24427 46.922 6.95852C46.8645 6.67069 46.7468 6.43454 46.5689 6.25008C46.3913 6.06355 46.153 5.94463 45.8539 5.89333C45.5424 5.8399 45.269 5.87533 45.0339 5.99964C44.8012 6.12223 44.6096 6.31067 44.459 6.56495C44.311 6.81751 44.2081 7.11203 44.1503 7.44852C44.0919 7.78915 44.0908 8.10754 44.1469 8.40368C44.2054 8.6981 44.3235 8.94498 44.5009 9.14434C44.6809 9.34197 44.9245 9.46715 45.2319 9.51987ZM54.4837 7.80266L54.2483 8.38943L51.8191 7.41495L52.0545 6.82819L54.4837 7.80266ZM50.9744 11.6264L53.0316 6.49809C53.1352 6.23991 53.2821 6.04909 53.4724 5.92562C53.6627 5.80214 53.872 5.73622 54.1001 5.72783C54.3283 5.71945 54.5499 5.75841 54.7651 5.84472C54.9352 5.91298 55.0686 5.98238 55.1652 6.05291C55.2618 6.12345 55.3318 6.18104 55.3752 6.2257L54.9356 6.74417C54.9051 6.71831 54.8621 6.68402 54.8065 6.64131C54.753 6.59939 54.6763 6.55842 54.5766 6.5184C54.3477 6.4266 54.1593 6.418 54.0113 6.4926C53.8653 6.56798 53.7475 6.71716 53.6581 6.94013L51.6668 11.9042L50.9744 11.6264ZM54.9285 13.6846C54.5458 13.471 54.2608 13.1925 54.0735 12.849C53.8881 12.5066 53.8059 12.1265 53.8267 11.7086C53.8494 11.2917 53.983 10.8642 54.2274 10.4262C54.4739 9.98459 54.7691 9.64374 55.113 9.40369C55.4588 9.16467 55.826 9.03417 56.2148 9.01219C56.6054 8.99125 56.992 9.08758 57.3748 9.30119C57.7576 9.5148 58.0416 9.7928 58.227 10.1352C58.4143 10.4786 58.496 10.8597 58.4723 11.2784C58.4504 11.6982 58.3162 12.1289 58.0698 12.5706C57.8253 13.0085 57.5308 13.3461 57.186 13.5833C56.8431 13.8215 56.4764 13.9511 56.0858 13.972C55.6971 13.994 55.3113 13.8982 54.9285 13.6846ZM55.2551 13.0994C55.5459 13.2617 55.8267 13.3206 56.0976 13.2763C56.3685 13.232 56.6168 13.1136 56.8425 12.921C57.0682 12.7284 57.2602 12.4904 57.4183 12.207C57.5765 11.9236 57.6788 11.6344 57.7252 11.3393C57.7716 11.0443 57.7431 10.7689 57.6396 10.5132C57.5361 10.2576 57.339 10.0486 57.0482 9.88638C56.7575 9.72412 56.4761 9.66606 56.2042 9.71221C55.9323 9.75835 55.683 9.87864 55.4562 10.0731C55.2295 10.2675 55.037 10.5064 54.8788 10.7898C54.7207 11.0732 54.6189 11.3615 54.5735 11.6547C54.5281 11.948 54.5577 12.2215 54.6622 12.4753C54.7667 12.7291 54.9644 12.9371 55.2551 13.0994ZM57.6785 15.2149L60.6246 11.3554L61.1975 11.7927L60.7525 12.3756L60.7927 12.4063C61.0089 12.2691 61.2545 12.2113 61.5295 12.233C61.8046 12.2548 62.0577 12.3538 62.2888 12.5303C62.3324 12.5635 62.3862 12.6059 62.4502 12.6575C62.5143 12.709 62.5618 12.7493 62.5927 12.7782L62.1324 13.3812C62.1161 13.3609 62.0758 13.3182 62.0115 13.2531C61.9501 13.1877 61.88 13.1249 61.8013 13.0648C61.6137 12.9216 61.4161 12.8331 61.2086 12.7993C61.004 12.7651 60.8066 12.7841 60.6163 12.8563C60.429 12.928 60.2688 13.051 60.1359 13.2252L58.2715 15.6675L57.6785 15.2149ZM60.7329 20.3371C60.6501 20.2415 60.5842 20.1494 60.5353 20.0608C60.4847 19.9735 60.4542 19.9093 60.4437 19.8683L61.0647 19.5809C61.1484 19.7482 61.2406 19.8803 61.3413 19.9771C61.4419 20.0739 61.5696 20.1263 61.7244 20.1344C61.879 20.1454 62.0791 20.1044 62.3248 20.0114L62.7025 19.868L65.2144 15.3144L65.7445 15.9259L63.6988 19.473L63.7319 19.5112L67.5334 17.9896L68.0635 18.6011L62.5096 20.6879C62.2594 20.7821 62.0273 20.8312 61.8134 20.8354C61.5978 20.841 61.4005 20.8015 61.2213 20.717C61.0434 20.6341 60.8806 20.5074 60.7329 20.3371ZM65.6868 24.0398C65.4532 23.6688 65.3366 23.2878 65.3369 22.8967C65.3383 22.5073 65.4483 22.1342 65.667 21.7774C65.8867 21.4224 66.2088 21.1113 66.6333 20.8441C67.0613 20.5746 67.4838 20.417 67.9007 20.3712C68.3187 20.3271 68.7036 20.3887 69.0553 20.5557C69.4081 20.7246 69.7013 20.9945 69.9348 21.3654C70.1683 21.7363 70.2844 22.1165 70.283 22.5059C70.2827 22.897 70.1718 23.2706 69.9503 23.6268C69.7298 23.9847 69.4056 24.2984 68.9776 24.5678C68.5531 24.835 68.1328 24.9901 67.7166 25.033C67.3014 25.0777 66.9175 25.0156 66.5646 24.8468C66.2129 24.6797 65.9203 24.4107 65.6868 24.0398ZM66.2539 23.6828C66.4313 23.9645 66.6495 24.1509 66.9084 24.2419C67.1674 24.3328 67.4421 24.3479 67.7325 24.2871C68.023 24.2263 68.3055 24.1094 68.5801 23.9365C68.8548 23.7636 69.0832 23.5588 69.2654 23.3221C69.4475 23.0854 69.5545 22.83 69.5862 22.5561C69.6179 22.2821 69.5451 22.0042 69.3677 21.7224C69.1903 21.4407 68.9712 21.2548 68.7105 21.165C68.4497 21.0752 68.1732 21.0612 67.881 21.1232C67.5888 21.1851 67.3054 21.3025 67.0307 21.4754C66.7561 21.6483 66.5286 21.8526 66.3482 22.0882C66.1678 22.3237 66.0626 22.578 66.0327 22.8508C66.0028 23.1237 66.0765 23.401 66.2539 23.6828ZM70.358 28.768L73.0081 27.6655L73.2947 28.3543L68.8117 30.2193L68.5252 29.5305L69.284 29.2148L69.2646 29.1681C68.9932 29.1578 68.7316 29.0749 68.4798 28.9194C68.2299 28.7632 68.0345 28.5158 67.8937 28.1772C67.7771 27.8971 67.7348 27.6225 67.7667 27.3536C67.8006 27.0839 67.9161 26.8349 68.1134 26.6068C68.3126 26.3778 68.6028 26.184 68.9842 26.0254L71.8327 24.8403L72.1193 25.5291L69.3175 26.6947C68.9906 26.8307 68.7679 27.0306 68.6494 27.2945C68.5317 27.5603 68.5324 27.8362 68.6514 28.1222C68.7226 28.2934 68.8389 28.4494 69.0001 28.59C69.1621 28.7326 69.3587 28.8265 69.5898 28.8719C69.8218 28.9192 70.0778 28.8846 70.358 28.768Z" fill="#D97B3A"/>
<circle cx="39.9997" cy="39.9987" r="10.7937" stroke="#D97B3A" stroke-width="0.634921"/>
<circle cx="39.9992" cy="39.9982" r="24.7619" stroke="#D97B3A" stroke-width="0.634921"/>
</g>
<defs>
<linearGradient id="paint0_linear_14_1105" x1="23.3906" y1="33.9587" x2="63.5532" y2="46.0377" gradientUnits="userSpaceOnUse">
<stop stop-color="#CD6B27"/>
<stop offset="1" stop-color="#F5934F"/>
</linearGradient>
<clipPath id="clip0_14_1105">
<rect width="80" height="80" fill="white"/>
</clipPath>
<pattern id="pattern0_14_1105" patternUnits="userSpaceOnUse" patternTransform="matrix(7.2381 0 0 7.2381 36.1782 15.0343)" preserveAspectRatio="none" viewBox="-1.06055 -1.06055 38 38" width="1" height="1">
<use xlink:href="#pattern0_14_1105_inner" transform="translate(-38 -38)"/>
<use xlink:href="#pattern0_14_1105_inner" transform="translate(0 -38)"/>
<use xlink:href="#pattern0_14_1105_inner" transform="translate(-38 0)"/>
<g id="pattern0_14_1105_inner">
<path d="M0 0L38 38" stroke="#D97B3A" stroke-width="3" stroke-linejoin="round"/>
</g>
</pattern></defs>
</svg>
