<svg width="432" height="219" viewBox="0 0 432 219" fill="none" xmlns="http://www.w3.org/2000/svg">
<path d="M431.158 143.72H0V19.4219L431.158 0V143.72Z" fill="#2E2D2D"/>
<path d="M175.556 47.4453V62.711H110.894V74.2382H174.414V89.5039H110.894V101.446H175.556V116.712H92.9277V47.4453H175.556Z" fill="white"/>
<path d="M262.097 47.4453V62.711H197.435V74.2382H260.955V89.5039H197.435V101.446H262.097V116.712H179.469V47.4453H262.097Z" fill="white"/>
<path d="M45.9882 47.4453V76.0036L68.0041 47.4453H90.2276L62.7078 80.2614L92.72 116.712H69.458L45.9882 86.7V116.712H28.0225V47.4453H45.9882Z" fill="white"/>
<path d="M283.975 116.712H266.009V47.4453H283.975L317.102 89.8154V47.4453H335.068V116.712H317.102L283.975 74.342V116.712Z" fill="white"/>
<path d="M338.462 77.9767L350.405 47.4453H366.086L349.159 77.9767H338.462Z" fill="white"/>
<path d="M361.502 91.8543L367.421 80.3271C369.498 81.8502 371.714 82.9926 374.068 83.7541C376.214 84.5157 378.36 84.8965 380.506 84.8965C382.445 84.8965 383.864 84.4811 384.764 83.6503C385.318 83.0964 385.595 82.3695 385.595 81.4695C385.595 80.5694 385.318 79.8771 384.764 79.3925C384.21 78.8386 382.756 78.2848 380.402 77.7309L376.041 76.6924C372.371 75.8617 369.671 74.5116 367.941 72.6424C365.933 70.4962 364.929 67.8307 364.929 64.646C364.929 60.1459 366.383 56.3728 369.291 53.3266C372.891 49.588 378.429 47.7188 385.906 47.7188C391.03 47.7188 395.98 48.7226 400.757 50.7304L395.149 61.3229C391.826 59.7998 388.918 59.0382 386.426 59.0382C384.902 59.0382 383.622 59.3498 382.583 59.9729C381.614 60.5267 381.129 61.2883 381.129 62.2575C381.129 63.4345 381.787 64.2999 383.102 64.8537C383.656 65.0614 384.522 65.3037 385.699 65.5807C386.876 65.7884 387.845 65.9961 388.606 66.2038L391.618 67.0345C394.595 67.8653 396.88 69.0769 398.472 70.6692C400.826 72.8847 402.003 75.9655 402.003 79.9117C402.003 84.6195 400.445 88.4619 397.33 91.4389C393.453 95.3159 387.741 97.2544 380.195 97.2544C373.618 97.2544 367.387 95.4544 361.502 91.8543Z" fill="white"/>
<path d="M30.1858 164.376H39.5592C44.7667 164.376 48.7504 165.47 51.5103 167.657C54.6348 170.052 56.1971 173.645 56.1971 178.436C56.1971 182.915 54.4786 186.325 51.0417 188.669C54.3744 189.502 56.848 191.194 58.4623 193.746C60.1287 196.246 60.9619 198.927 60.9619 201.792C60.9619 204.135 60.4411 206.296 59.3996 208.275C58.4102 210.254 57.1604 211.842 55.6503 213.04C52.7341 215.331 48.5681 216.477 43.1524 216.477H30.1858V164.376ZM35.9661 169.844V187.263H40.3403C41.1215 187.263 41.8765 187.237 42.6056 187.185C43.3346 187.08 44.1939 186.872 45.1833 186.56C46.2248 186.195 47.11 185.727 47.8391 185.154C48.6202 184.581 49.2711 183.722 49.7919 182.576C50.3126 181.43 50.573 180.102 50.573 178.592C50.573 176.978 50.2605 175.598 49.6357 174.452C49.0108 173.255 48.3078 172.369 47.5266 171.797C46.7455 171.224 45.8082 170.781 44.7146 170.469C43.621 170.156 42.7879 169.974 42.215 169.922C41.6422 169.87 41.0694 169.844 40.4966 169.844H35.9661ZM35.9661 192.418V211.009H42.6056C46.8236 211.009 49.87 210.28 51.7447 208.822C54.036 207.155 55.1816 204.76 55.1816 201.635C55.1816 198.146 53.6975 195.595 50.7292 193.98C48.8545 192.939 45.9123 192.418 41.9026 192.418H35.9661ZM78.6466 164.376V196.324C78.6466 198.303 78.6726 199.839 78.7247 200.932C78.8289 202.026 79.1934 203.38 79.8183 204.994C80.4952 206.556 81.4847 207.884 82.7865 208.978C85.1299 210.957 87.994 211.946 91.3788 211.946C94.7637 211.946 97.6278 210.957 99.9711 208.978C101.273 207.884 102.236 206.556 102.861 204.994C103.538 203.38 103.903 202.026 103.955 200.932C104.059 199.839 104.111 198.303 104.111 196.324V164.376H109.891V197.886C109.891 203.198 108.798 207.364 106.611 210.384C104.996 212.571 102.861 214.289 100.205 215.539C97.6017 216.789 94.6595 217.414 91.3788 217.414C88.0981 217.414 85.1299 216.789 82.4741 215.539C79.8703 214.289 77.7613 212.571 76.147 210.384C73.9599 207.364 72.8663 203.198 72.8663 197.886V164.376H78.6466ZM124.624 164.376H130.405V216.477H124.624V164.376ZM145.107 164.376H150.887V211.009H165.26V216.477H145.107V164.376ZM174.362 216.477V164.376H184.985C193.005 164.376 199.41 166.407 204.201 170.469C210.137 175.416 213.105 182.081 213.105 190.465C213.105 198.589 210.059 205.254 203.966 210.462C201.467 212.597 198.785 214.133 195.921 215.071C193.057 216.008 189.386 216.477 184.907 216.477H174.362ZM180.142 169.844V211.009H185.22C191.416 211.009 196.39 209.446 200.139 206.322C204.826 202.364 207.169 197.079 207.169 190.465C207.169 184.216 205.164 179.217 201.154 175.468C197.145 171.718 191.833 169.844 185.22 169.844H180.142ZM224.976 164.376H230.756V216.477H224.976V164.376ZM251.239 216.477H245.458V162.189L286.077 204.76V164.376H291.857V218.82L251.239 176.249V216.477ZM333.393 195.777V190.309H355.108V191.559C355.108 198.016 353.442 203.51 350.109 208.04C345.475 214.289 339.017 217.414 330.737 217.414C323.03 217.414 316.599 214.836 311.444 209.681C306.288 204.473 303.711 198.068 303.711 190.465C303.711 182.862 306.288 176.483 311.444 171.328C316.651 166.12 323.135 163.517 330.894 163.517C337.038 163.517 342.35 165.235 346.828 168.672C349.12 170.443 351.125 172.5 352.843 174.843L348.547 178.749C347.037 176.613 345.396 174.817 343.626 173.359C340.033 170.443 335.815 168.985 330.972 168.985C324.775 168.985 319.672 171.042 315.662 175.155C311.652 179.269 309.647 184.399 309.647 190.543C309.647 195.022 310.741 198.953 312.928 202.338C315.115 205.671 317.771 208.119 320.895 209.681C324.072 211.191 327.379 211.946 330.816 211.946C334.252 211.946 337.377 211.165 340.189 209.603C343.053 207.988 345.24 205.853 346.75 203.198C348.052 200.958 348.755 198.485 348.859 195.777H333.393ZM394.863 171.64L390.254 174.687C389.421 173.072 388.405 171.771 387.208 170.781C385.645 169.583 383.693 168.985 381.349 168.985C378.746 168.985 376.637 169.74 375.022 171.25C373.408 172.708 372.601 174.635 372.601 177.03C372.601 178.801 373.252 180.311 374.554 181.561C375.595 182.602 377.418 183.696 380.021 184.841L385.021 187.028C388.718 188.643 391.4 190.283 393.066 191.949C395.566 194.449 396.815 197.6 396.815 201.401C396.815 206.14 395.253 209.993 392.129 212.962C389.004 215.93 385.073 217.414 380.334 217.414C375.647 217.414 371.872 216.008 369.008 213.196C366.664 210.905 365.05 207.832 364.165 203.979L369.789 202.416C370.153 205.02 371.195 207.233 372.913 209.056C374.84 210.983 377.34 211.946 380.412 211.946C383.745 211.946 386.322 210.957 388.145 208.978C389.968 206.947 390.879 204.499 390.879 201.635C390.879 199.136 390.02 197.105 388.301 195.543C387.312 194.605 385.229 193.408 382.052 191.949L377.366 189.762C374.189 188.304 371.872 186.872 370.414 185.466C368.018 183.175 366.82 180.337 366.82 176.952C366.82 172.942 368.174 169.714 370.882 167.266C373.642 164.767 377.157 163.517 381.427 163.517C384.656 163.517 387.442 164.298 389.785 165.86C391.92 167.266 393.613 169.193 394.863 171.64Z" fill="#2E2D2D"/>
</svg>
