<svg width="432" height="227" viewBox="0 0 432 227" fill="none" xmlns="http://www.w3.org/2000/svg">
<path d="M431.58 147.243H0.421875V3.52344L431.58 22.9453V147.243Z" fill="#2E2D2D"/>
<path d="M175.978 50.9688V66.2345H111.315V77.7616H174.836V93.0273H111.315V104.97H175.978V120.236H93.3496V50.9688H175.978Z" fill="white"/>
<path d="M262.519 50.969V66.2347H197.856V77.7619H261.377V93.0276H197.856V104.97H262.519V120.236H179.891V50.969H262.519Z" fill="white"/>
<path d="M46.4101 50.9688V79.527L68.426 50.9688H90.6495L63.1297 83.7848L93.1419 120.236H69.8798L46.4101 90.2234V120.236H28.4443V50.9688H46.4101Z" fill="white"/>
<path d="M284.396 120.236H266.431V50.9688H284.396L317.524 93.3389V50.9688H335.49V120.236H317.524L284.396 77.8655V120.236Z" fill="white"/>
<path d="M338.884 81.5002L350.827 50.9688H366.508L349.581 81.5002H338.884Z" fill="white"/>
<path d="M361.924 95.3777L367.843 83.8506C369.92 85.3737 372.136 86.516 374.489 87.2776C376.636 88.0391 378.782 88.4199 380.928 88.4199C382.867 88.4199 384.286 88.0045 385.186 87.1737C385.74 86.6199 386.017 85.8929 386.017 84.9929C386.017 84.0929 385.74 83.4006 385.186 82.9159C384.632 82.3621 383.178 81.8082 380.824 81.2544L376.463 80.2159C372.793 79.3851 370.093 78.0351 368.362 76.1658C366.355 74.0196 365.351 71.3541 365.351 68.1695C365.351 63.6694 366.805 59.8962 369.712 56.85C373.313 53.1115 378.851 51.2422 386.328 51.2422C391.451 51.2422 396.401 52.2461 401.179 54.2538L395.571 64.8463C392.248 63.3232 389.34 62.5617 386.847 62.5617C385.324 62.5617 384.044 62.8732 383.005 63.4963C382.036 64.0501 381.551 64.8117 381.551 65.781C381.551 66.9579 382.209 67.8233 383.524 68.3772C384.078 68.5849 384.944 68.8272 386.121 69.1041C387.297 69.3118 388.267 69.5195 389.028 69.7272L392.04 70.558C395.017 71.3888 397.302 72.6003 398.894 74.1927C401.248 76.4081 402.425 79.4889 402.425 83.4352C402.425 88.143 400.867 91.9854 397.752 94.9623C393.875 98.8393 388.163 100.778 380.617 100.778C374.039 100.778 367.809 98.9778 361.924 95.3777Z" fill="white"/>
<path d="M30.6077 167.899H39.9811C45.1886 167.899 49.1723 168.993 51.9322 171.18C55.0567 173.576 56.6189 177.169 56.6189 181.96C56.6189 186.438 54.9005 189.849 51.4635 192.192C54.7963 193.025 57.2699 194.718 58.8842 197.269C60.5506 199.769 61.3837 202.451 61.3837 205.315C61.3837 207.658 60.863 209.819 59.8215 211.798C58.8321 213.777 57.5823 215.365 56.0721 216.563C53.156 218.854 48.99 220 43.5742 220H30.6077V167.899ZM36.388 173.367V190.786H40.7622C41.5433 190.786 42.2984 190.76 43.0275 190.708C43.7565 190.604 44.6157 190.396 45.6052 190.083C46.6466 189.719 47.5319 189.25 48.261 188.677C49.0421 188.104 49.693 187.245 50.2138 186.099C50.7345 184.954 50.9949 183.626 50.9949 182.116C50.9949 180.501 50.6824 179.121 50.0575 177.976C49.4326 176.778 48.7296 175.893 47.9485 175.32C47.1674 174.747 46.23 174.305 45.1365 173.992C44.0429 173.68 43.2097 173.497 42.6369 173.445C42.0641 173.393 41.4913 173.367 40.9184 173.367H36.388ZM36.388 195.942V214.532H43.0275C47.2455 214.532 50.2919 213.803 52.1666 212.345C54.4578 210.679 55.6035 208.283 55.6035 205.159C55.6035 201.67 54.1193 199.118 51.1511 197.504C49.2764 196.462 46.3342 195.942 42.3245 195.942H36.388ZM79.0685 167.899V199.847C79.0685 201.826 79.0945 203.362 79.1466 204.456C79.2507 205.549 79.6152 206.903 80.2401 208.518C80.9171 210.08 81.9065 211.408 83.2084 212.501C85.5517 214.48 88.4158 215.47 91.8007 215.47C95.1855 215.47 98.0496 214.48 100.393 212.501C101.695 211.408 102.658 210.08 103.283 208.518C103.96 206.903 104.325 205.549 104.377 204.456C104.481 203.362 104.533 201.826 104.533 199.847V167.899H110.313V201.409C110.313 206.721 109.22 210.887 107.033 213.907C105.418 216.094 103.283 217.813 100.627 219.063C98.0236 220.312 95.0814 220.937 91.8007 220.937C88.52 220.937 85.5517 220.312 82.8959 219.063C80.2922 217.813 78.1832 216.094 76.5689 213.907C74.3818 210.887 73.2882 206.721 73.2882 201.409V167.899H79.0685ZM125.046 167.899H130.826V220H125.046V167.899ZM145.529 167.899H151.309V214.532H165.682V220H145.529V167.899ZM174.784 220V167.899H185.407C193.427 167.899 199.832 169.93 204.623 173.992C210.559 178.939 213.527 185.605 213.527 193.989C213.527 202.112 210.481 208.778 204.388 213.985C201.889 216.12 199.207 217.657 196.343 218.594C193.479 219.531 189.807 220 185.329 220H174.784ZM180.564 173.367V214.532H185.641C191.838 214.532 196.811 212.97 200.561 209.845C205.248 205.888 207.591 200.602 207.591 193.989C207.591 187.74 205.586 182.741 201.576 178.991C197.567 175.242 192.255 173.367 185.641 173.367H180.564ZM225.398 167.899H231.178V220H225.398V167.899ZM251.661 220H245.88V165.712L286.498 208.283V167.899H292.279V222.343L251.661 179.772V220ZM333.815 199.3V193.833H355.53V195.082C355.53 201.54 353.864 207.033 350.531 211.564C345.896 217.813 339.439 220.937 331.159 220.937C323.452 220.937 317.021 218.36 311.866 213.204C306.71 207.997 304.133 201.592 304.133 193.989C304.133 186.386 306.71 180.007 311.866 174.851C317.073 169.644 323.556 167.04 331.316 167.04C337.46 167.04 342.772 168.759 347.25 172.196C349.542 173.966 351.546 176.023 353.265 178.366L348.969 182.272C347.459 180.137 345.818 178.34 344.048 176.882C340.455 173.966 336.237 172.508 331.394 172.508C325.197 172.508 320.093 174.565 316.084 178.679C312.074 182.793 310.069 187.922 310.069 194.067C310.069 198.545 311.163 202.477 313.35 205.862C315.537 209.195 318.193 211.642 321.317 213.204C324.494 214.714 327.8 215.47 331.237 215.47C334.674 215.47 337.799 214.688 340.611 213.126C343.475 211.512 345.662 209.377 347.172 206.721C348.474 204.482 349.177 202.008 349.281 199.3H333.815ZM395.285 175.164L390.676 178.21C389.843 176.596 388.827 175.294 387.63 174.305C386.067 173.107 384.115 172.508 381.771 172.508C379.167 172.508 377.058 173.263 375.444 174.773C373.83 176.231 373.023 178.158 373.023 180.554C373.023 182.324 373.674 183.834 374.975 185.084C376.017 186.125 377.84 187.219 380.443 188.365L385.442 190.552C389.14 192.166 391.822 193.806 393.488 195.473C395.988 197.972 397.237 201.123 397.237 204.924C397.237 209.663 395.675 213.517 392.551 216.485C389.426 219.453 385.495 220.937 380.756 220.937C376.069 220.937 372.294 219.531 369.429 216.719C367.086 214.428 365.472 211.356 364.587 207.502L370.211 205.94C370.575 208.544 371.617 210.757 373.335 212.579C375.262 214.506 377.761 215.47 380.834 215.47C384.167 215.47 386.744 214.48 388.567 212.501C390.39 210.47 391.301 208.023 391.301 205.159C391.301 202.659 390.442 200.628 388.723 199.066C387.734 198.129 385.651 196.931 382.474 195.473L377.787 193.286C374.611 191.828 372.294 190.396 370.836 188.99C368.44 186.698 367.242 183.86 367.242 180.475C367.242 176.466 368.596 173.237 371.304 170.79C374.064 168.29 377.579 167.04 381.849 167.04C385.078 167.04 387.864 167.821 390.207 169.384C392.342 170.79 394.035 172.716 395.285 175.164Z" fill="#2E2D2D"/>
</svg>
