<svg width="111" height="37" viewBox="0 0 111 37" fill="none" xmlns="http://www.w3.org/2000/svg">
<path d="M111 37H0V5L111 0V37ZM7.21387 30.0459H11.8389V22.3203L17.8809 30.0459H23.8701L16.1436 20.6621L23.2285 12.2139H17.5068L11.8389 19.5664V12.2139H7.21387V30.0459ZM23.9238 30.0459H45.1963V26.1162H28.5488V23.042H44.9023V19.1113H28.5488V16.1436H45.1963V12.2139H23.9238V30.0459ZM46.2031 30.0459H67.4756V26.1162H50.8281V23.042H67.1816V19.1113H50.8281V16.1436H67.4756V12.2139H46.2031V30.0459ZM68.4824 30.0459H73.1074V19.1387L81.6367 30.0459H86.2617V12.2139H81.6367V23.1221L73.1074 12.2139H68.4824V30.0459ZM99.3496 12.2842C97.4247 12.2842 95.9981 12.7651 95.0713 13.7275C94.3228 14.5117 93.9483 15.4833 93.9482 16.6416C93.9482 17.4613 94.207 18.1477 94.7236 18.7002C95.1692 19.1814 95.8649 19.5293 96.8096 19.7432L97.9326 20.0107C98.5381 20.1532 98.912 20.296 99.0547 20.4385C99.1973 20.5632 99.2686 20.7419 99.2686 20.9736C99.2685 21.2051 99.1972 21.3917 99.0547 21.5342C98.823 21.748 98.458 21.8555 97.959 21.8555C97.4066 21.8555 96.8542 21.7575 96.3018 21.5615C95.6958 21.3655 95.1245 21.0708 94.5898 20.6787L93.0664 23.6465C94.5814 24.5733 96.1857 25.0371 97.8789 25.0371C99.8215 25.0371 101.292 24.538 102.29 23.54C103.092 22.7737 103.493 21.7842 103.493 20.5723C103.493 19.5563 103.19 18.7627 102.584 18.1924C102.174 17.7826 101.586 17.4707 100.819 17.2568L100.044 17.043C99.848 16.9895 99.5986 16.9362 99.2959 16.8828C98.9929 16.8115 98.7695 16.7488 98.627 16.6953C98.2887 16.5527 98.1192 16.3301 98.1191 16.0273C98.1191 15.7778 98.2446 15.5811 98.4941 15.4385C98.7613 15.2783 99.0908 15.1983 99.4824 15.1982C100.124 15.1982 100.873 15.3941 101.729 15.7861L103.173 13.0596C101.943 12.5427 100.668 12.2842 99.3496 12.2842ZM87.1357 20.0742H89.8887L94.2471 12.2139H90.21L87.1357 20.0742Z" fill="#2E2D2D"/>
</svg>
