<svg width="16" height="16" viewBox="0 0 16 16" fill="none" xmlns="http://www.w3.org/2000/svg">
<g opacity="0.4" clip-path="url(#clip0_1_2769)">
<path d="M9.29724 1.39599C8.5497 0.758951 7.45024 0.758958 6.70277 1.39598L5.80408 2.16182C5.6973 2.25282 5.56454 2.3078 5.42469 2.31896L4.2477 2.41289C3.26868 2.49102 2.49126 3.26844 2.41314 4.24745L2.31922 5.42444C2.30806 5.56428 2.25306 5.69707 2.16206 5.80384L1.39622 6.70252C0.759196 7.45005 0.759203 8.54945 1.39624 9.29692L2.16208 10.1957C2.25306 10.3025 2.30805 10.4352 2.31921 10.5751L2.41315 11.752C2.49128 12.731 3.2687 13.5084 4.24773 13.5865L5.4247 13.6805C5.56454 13.6917 5.69727 13.7467 5.80404 13.8377L6.7027 14.6035C7.45024 15.2405 8.5497 15.2405 9.29724 14.6035L10.1959 13.8377C10.3026 13.7467 10.4354 13.6917 10.5752 13.6805L11.7522 13.5865C12.7312 13.5085 13.5086 12.7311 13.5868 11.752L13.6807 10.5751C13.6918 10.4352 13.7469 10.3024 13.8378 10.1956L14.6037 9.29698C15.2408 8.54945 15.2408 7.44998 14.6037 6.70252L13.8378 5.80382C13.7468 5.69704 13.6919 5.56428 13.6808 5.42445L13.5868 4.24746C13.5087 3.26845 12.7312 2.491 11.7522 2.41288L10.5752 2.31896C10.4354 2.3078 10.3026 2.25282 10.1959 2.16182L9.29724 1.39599ZM9.88544 5.17137L10.8282 6.11418L6.11418 10.8283L5.17137 9.88539L9.88544 5.17137ZM6.8213 6.82125C6.43076 7.21178 5.7976 7.21178 5.40707 6.82125C5.01654 6.43079 5.01654 5.7976 5.40707 5.40707C5.7976 5.01654 6.43076 5.01654 6.8213 5.40707C7.21184 5.7976 7.21184 6.43079 6.8213 6.82125ZM9.1783 10.5925C8.78777 10.202 8.78777 9.56885 9.1783 9.17832C9.56884 8.78779 10.202 8.78779 10.5925 9.17832C10.983 9.56885 10.983 10.202 10.5925 10.5925C10.202 10.9831 9.56884 10.9831 9.1783 10.5925Z" fill="#2E2D2D"/>
</g>
<defs>
<clipPath id="clip0_1_2769">
<rect width="16" height="16" fill="white"/>
</clipPath>
</defs>
</svg>
