<svg width="16" height="16" viewBox="0 0 16 16" fill="none" xmlns="http://www.w3.org/2000/svg">
<g opacity="0.4">
<path d="M1.86538 2.30298C1.24937 2.30298 0.75 2.80235 0.75 3.41836V10.1107C0.75 10.7267 1.24938 11.2261 1.86539 11.2261H10.7885V8.43759V4.53375V3.41836C10.7885 2.80235 10.2891 2.30298 9.67307 2.30298H1.86538Z" fill="#2E2D2D"/>
<path d="M14.1346 11.2261C14.7506 11.2261 15.25 10.7267 15.25 10.1107V8.43759H10.7885V11.2261H14.1346Z" fill="#2E2D2D"/>
<path d="M10.7885 4.53375H13.0192L15.25 8.43759M10.7885 4.53375V3.41836C10.7885 2.80235 10.2891 2.30298 9.67307 2.30298H1.86538C1.24937 2.30298 0.75 2.80235 0.75 3.41836V10.1107C0.75 10.7267 1.24938 11.2261 1.86539 11.2261H10.7885M10.7885 4.53375V8.43759M15.25 8.43759V10.1107C15.25 10.7267 14.7506 11.2261 14.1346 11.2261H10.7885M15.25 8.43759H10.7885M10.7885 11.2261V8.43759" stroke="#2E2D2D" stroke-width="1.25"/>
<circle cx="4.09597" cy="11.7837" r="1.95192" fill="#2E2D2D"/>
<circle cx="11.9041" cy="11.7837" r="1.95192" fill="#2E2D2D"/>
</g>
</svg>
