<svg width="16" height="16" viewBox="0 0 16 16" fill="none" xmlns="http://www.w3.org/2000/svg">
<g opacity="0.4">
<circle cx="8" cy="6" r="5" stroke="#2E2D2D" stroke-width="1.25"/>
<path d="M5 15V10L6.5 11H9.5L11 10V15L8 13L5 15Z" fill="#2E2D2D"/>
<path d="M5 10L5.34669 9.47997L4.375 8.83218V10H5ZM5 15H4.375C4.375 15.2305 4.50187 15.4423 4.70509 15.551C4.90831 15.6598 5.1549 15.6479 5.34669 15.52L5 15ZM11 15L10.6533 15.52C10.8451 15.6479 11.0917 15.6598 11.2949 15.551C11.4981 15.4423 11.625 15.2305 11.625 15H11ZM11 10H11.625V8.83218L10.6533 9.47997L11 10ZM6.5 11L6.15331 11.52L6.31077 11.625H6.5V11ZM8 13L8.34669 12.48L8 12.2488L7.65331 12.48L8 13ZM9.5 11V11.625H9.68923L9.84669 11.52L9.5 11ZM5 10H4.375V15H5H5.625V10H5ZM11 15H11.625V10H11H10.375V15H11ZM6.5 11L6.84669 10.48L5.34669 9.47997L5 10L4.65331 10.52L6.15331 11.52L6.5 11ZM5 15L5.34669 15.52L8.34669 13.52L8 13L7.65331 12.48L4.65331 14.48L5 15ZM8 13L7.65331 13.52L10.6533 15.52L11 15L11.3467 14.48L8.34669 12.48L8 13ZM11 10L10.6533 9.47997L9.15331 10.48L9.5 11L9.84669 11.52L11.3467 10.52L11 10ZM9.5 11V10.375H6.5V11V11.625H9.5V11Z" fill="#2E2D2D"/>
<circle cx="8" cy="6" r="3" fill="#2E2D2D"/>
</g>
</svg>
