<svg width="64" height="64" viewBox="0 0 64 64" fill="none" xmlns="http://www.w3.org/2000/svg">
<g filter="url(#filter0_d_70_1590)">
<path d="M4 28C4 12.536 16.536 0 32 0C47.464 0 60 12.536 60 28C60 43.464 47.464 56 32 56C16.536 56 4 43.464 4 28Z" fill="#252627"/>
<path d="M41.375 28C41.375 28.2984 41.2565 28.5846 41.0455 28.7955C40.8345 29.0065 40.5484 29.125 40.25 29.125H26.4688L31.2988 33.9541C31.5101 34.1654 31.6288 34.4521 31.6288 34.751C31.6288 35.0499 31.5101 35.3365 31.2988 35.5478C31.0874 35.7592 30.8008 35.8779 30.5019 35.8779C30.203 35.8779 29.9163 35.7592 29.705 35.5478L22.955 28.7978C22.8501 28.6933 22.7669 28.5691 22.7101 28.4324C22.6533 28.2956 22.6241 28.149 22.6241 28.001C22.6241 27.8529 22.6533 27.7063 22.7101 27.5696C22.7669 27.4328 22.8501 27.3086 22.955 27.2041L29.705 20.4541C29.8096 20.3495 29.9339 20.2664 30.0706 20.2098C30.2073 20.1532 30.3539 20.124 30.5019 20.124C30.6499 20.124 30.7964 20.1532 30.9331 20.2098C31.0699 20.2664 31.1941 20.3495 31.2988 20.4541C31.4034 20.5587 31.4864 20.683 31.543 20.8197C31.5997 20.9564 31.6288 21.103 31.6288 21.251C31.6288 21.399 31.5997 21.5455 31.543 21.6822C31.4864 21.819 31.4034 21.9432 31.2988 22.0479L26.4688 26.875H40.25C40.5484 26.875 40.8345 26.9936 41.0455 27.2045C41.2565 27.4155 41.375 27.7017 41.375 28Z" fill="white"/>
</g>
<defs>
<filter id="filter0_d_70_1590" x="0" y="0" width="64" height="64" filterUnits="userSpaceOnUse" color-interpolation-filters="sRGB">
<feFlood flood-opacity="0" result="BackgroundImageFix"/>
<feColorMatrix in="SourceAlpha" type="matrix" values="0 0 0 0 0 0 0 0 0 0 0 0 0 0 0 0 0 0 127 0" result="hardAlpha"/>
<feOffset dy="4"/>
<feGaussianBlur stdDeviation="2"/>
<feComposite in2="hardAlpha" operator="out"/>
<feColorMatrix type="matrix" values="0 0 0 0 0 0 0 0 0 0 0 0 0 0 0 0 0 0 0.05 0"/>
<feBlend mode="normal" in2="BackgroundImageFix" result="effect1_dropShadow_70_1590"/>
<feBlend mode="normal" in="SourceGraphic" in2="effect1_dropShadow_70_1590" result="shape"/>
</filter>
</defs>
</svg>
