<svg width="48" height="48" viewBox="0 0 48 48" fill="none" xmlns="http://www.w3.org/2000/svg">
<rect width="48" height="48" rx="24" fill="#24AA24"/>
<path d="M34.8002 29.3032V33.5465C34.8002 34.1765 34.3131 34.6993 33.6848 34.7437C33.1599 34.7807 32.7318 34.7992 32.4002 34.7992C21.7963 34.7992 13.2002 26.2031 13.2002 15.5992C13.2002 15.2677 13.2187 14.8395 13.2558 14.3146C13.3002 13.6863 13.8229 13.1992 14.4528 13.1992H18.6963C19.0043 13.1992 19.2623 13.4325 19.2932 13.739C19.321 14.0141 19.3468 14.235 19.3707 14.4016C19.6134 16.0969 20.1092 17.7105 20.8186 19.2029C20.9325 19.4424 20.8582 19.7291 20.6424 19.8833L18.0525 21.7334C19.6292 25.4165 22.5829 28.3702 26.266 29.947L28.1127 27.3615C28.2688 27.1431 28.559 27.068 28.8014 27.1831C30.2937 27.8919 31.9071 28.3871 33.6021 28.6293C33.7677 28.6531 33.9872 28.6786 34.2604 28.7062C34.5669 28.7372 34.8002 28.9952 34.8002 29.3032Z" fill="white"/>
</svg>
